<svg width="569" height="302" viewBox="0 0 569 302" fill="none" xmlns="http://www.w3.org/2000/svg">
<path d="M37.227 289.652C37.227 289.652 -31.3778 220.735 25.6242 146.125C76.2005 79.9246 135.168 84.4513 178.438 111.315C196.864 122.75 249.989 112.725 295.215 45.3637C356.86 -46.4978 570.605 9.21568 531.631 150.549C512.772 218.943 589.029 221.429 550.174 289.796L37.227 289.652Z" fill="#EBF3FA"/>
<path d="M343.172 260.741C343.172 260.702 343.389 256.252 341.242 255.221L341.394 255.075C342.378 255.418 343.467 256.481 343.903 257.983C344.227 259.099 343.981 259.344 343.983 259.385L343.172 260.741Z" fill="#A4C8FC"/>
<path d="M328.938 249.208C328.938 249.208 329.673 254.937 333.162 256.615C336.652 258.293 341.575 255.28 341.575 255.28C341.575 255.28 340.84 249.551 337.351 247.875C333.861 246.199 328.938 249.208 328.938 249.208Z" fill="#A4C8FC"/>
<path d="M342.814 269.09C342.774 268.867 341.998 263.624 343.979 257.785C345.884 252.172 344.83 247.415 344.822 247.367H346.222C346.258 247.564 346.356 252.241 344.864 258.64C343.521 264.401 346.027 269.09 345.494 269.09H342.814Z" fill="#A4C8FC"/>
<path d="M345.748 253.618C345.748 253.587 346.423 249.748 348.223 249.311C347.715 249.398 347.235 249.603 346.819 249.907C346.403 250.211 346.062 250.608 345.825 251.065C345.401 251.854 345.549 252.088 345.541 252.12L345.748 253.618Z" fill="#A4C8FC"/>
<path d="M351.522 254.015C348.832 253.471 347.331 249.663 347.331 249.663C347.331 249.663 350.19 246.738 352.88 247.28C355.57 247.822 357.069 251.631 357.069 251.631C357.069 251.631 354.21 254.559 351.522 254.015Z" fill="#A4C8FC"/>
<path d="M330.632 241.606C329.098 239.275 328.29 236.541 328.308 233.75C328.327 230.959 329.172 228.236 330.736 225.925C332.3 223.615 334.514 221.821 337.097 220.77C339.679 219.719 342.515 219.459 345.246 220.021C347.977 220.584 350.479 221.945 352.437 223.932C354.396 225.918 355.721 228.442 356.247 231.183C356.773 233.924 356.475 236.76 355.391 239.331C354.307 241.903 352.485 244.094 350.157 245.63C347.034 247.688 343.224 248.42 339.562 247.665C335.9 246.911 332.688 244.731 330.632 241.606Z" fill="#FFB93E"/>
<path d="M349.56 244.721C347.079 246.357 344.108 247.082 341.152 246.771C338.197 246.461 335.441 245.133 333.354 243.016C331.266 240.899 329.977 238.123 329.705 235.16C329.433 232.198 330.195 229.233 331.862 226.77C333.529 224.307 335.997 222.5 338.846 221.655C341.695 220.81 344.749 220.98 347.486 222.136C350.224 223.293 352.477 225.363 353.86 227.996C355.244 230.629 355.673 233.66 355.074 236.574C354.739 238.23 354.079 239.802 353.132 241.201C352.186 242.599 350.972 243.795 349.56 244.721ZM335.852 223.886C333.857 225.201 332.297 227.079 331.368 229.282C330.439 231.485 330.183 233.915 330.634 236.263C331.084 238.612 332.22 240.774 333.897 242.476C335.575 244.179 337.719 245.345 340.059 245.827C342.399 246.309 344.829 246.086 347.042 245.186C349.254 244.285 351.151 242.748 352.491 240.769C353.832 238.789 354.556 236.456 354.572 234.065C354.588 231.673 353.895 229.331 352.581 227.334C350.817 224.659 348.065 222.793 344.929 222.147C341.793 221.5 338.528 222.126 335.852 223.886Z" fill="#FFA412"/>
<path d="M346.022 236.127C345.914 235.9 345.767 235.694 345.586 235.52C345.414 235.361 345.208 235.243 344.984 235.175C344.713 235.097 344.433 235.057 344.151 235.057C343.777 235.057 343.404 235.084 343.034 235.137C342.353 235.227 341.669 235.283 340.982 235.303C340.4 235.324 339.818 235.265 339.251 235.127C338.741 235.002 338.264 234.77 337.849 234.447C336.998 233.722 336.467 232.69 336.37 231.575C336.34 231.074 336.416 230.572 336.593 230.102C336.783 229.606 337.06 229.148 337.41 228.75C337.809 228.299 338.274 227.912 338.788 227.6L337.833 225.692L339.367 224.923L340.336 226.857C340.886 226.658 341.465 226.552 342.05 226.543C342.589 226.532 343.125 226.63 343.626 226.83C344.127 227.03 344.582 227.329 344.966 227.709C345.401 228.139 345.759 228.64 346.025 229.191L343.255 230.571C342.896 229.86 342.467 229.404 341.979 229.209C341.73 229.113 341.464 229.073 341.199 229.092C340.933 229.11 340.675 229.186 340.443 229.315C340.187 229.437 339.955 229.604 339.759 229.808C339.601 229.977 339.483 230.179 339.413 230.4C339.348 230.608 339.331 230.828 339.361 231.044C339.396 231.275 339.467 231.499 339.574 231.707C339.672 231.912 339.806 232.098 339.968 232.257C340.132 232.41 340.33 232.523 340.545 232.586C340.817 232.664 341.099 232.703 341.382 232.701C341.777 232.702 342.171 232.679 342.563 232.634C343.3 232.555 343.983 232.509 344.613 232.497C345.196 232.484 345.778 232.55 346.342 232.695C346.853 232.822 347.331 233.055 347.747 233.379C348.194 233.742 348.554 234.203 348.798 234.725C349.048 235.205 349.195 235.731 349.229 236.271C349.256 236.771 349.177 237.271 348.997 237.738C348.803 238.23 348.52 238.682 348.16 239.071C347.756 239.514 347.292 239.899 346.782 240.214L347.668 241.988L346.144 242.753L345.261 240.979C344.71 241.191 344.135 241.333 343.548 241.403C342.978 241.474 342.4 241.437 341.845 241.292C341.273 241.14 340.741 240.864 340.287 240.484C339.754 240.025 339.323 239.458 339.023 238.82L341.795 237.44C341.964 237.806 342.204 238.135 342.5 238.408C342.733 238.617 343.012 238.768 343.314 238.848C343.594 238.919 343.886 238.925 344.168 238.866C344.454 238.809 344.731 238.713 344.992 238.582C345.262 238.452 345.51 238.279 345.724 238.069C345.9 237.896 346.04 237.69 346.134 237.462C346.219 237.253 346.254 237.028 346.236 236.803C346.212 236.566 346.139 236.335 346.022 236.127Z" fill="#FFA412"/>
<path d="M356.894 267.727L356.892 267.738L356.612 272.062L355.568 288.112H336.059L334.909 272.281L334.594 267.918L334.58 267.727H356.894Z" fill="#B4C9F7"/>
<path d="M356.892 267.73L356.61 272.054C353.104 270.887 349.431 270.298 345.736 270.309C339.015 270.309 334.905 272.281 334.905 272.281L334.588 267.918L356.892 267.73Z" fill="#9BB8EA"/>
<path d="M357.571 270.012H333.871L333.601 267.254H357.872L357.571 270.012Z" fill="#B4C9F7"/>
<path d="M355.868 288.968H335.64L335.407 288.008H356.126L355.868 288.968Z" fill="#B4C9F7"/>
<path d="M567.454 288.855H1.39457C1.04002 288.855 0.752594 289.143 0.752594 289.498V289.719C0.752594 290.074 1.04002 290.362 1.39457 290.362H567.454C567.809 290.362 568.096 290.074 568.096 289.719V289.498C568.096 289.143 567.809 288.855 567.454 288.855Z" fill="#2E3552"/>
<path d="M478.026 185.62L476.132 187.16C476.132 187.16 470.951 185.301 469.781 191.464C469.781 191.464 469.47 194.092 471.132 194.096C472.794 194.1 472.117 193.81 474.462 193.879C476.807 193.948 478.767 192.696 479.111 190.793L480.238 189.173L478.026 185.62Z" fill="#EA8E50"/>
<path d="M478.241 188.926C476.729 187.349 476.851 186.178 476.851 186.178C476.851 186.178 494.349 171.835 496.124 170.666C497.333 169.877 510.22 158.432 516.246 151.459C519.233 147.999 522.941 149.342 527.169 150.558L530.656 151.56C534.867 152.77 535.962 158.657 532.508 161.532C522.776 169.601 506.588 178.684 503.56 180.584C496.041 185.316 481.323 190.947 481.323 190.947C480.172 190.485 479.124 189.798 478.241 188.926Z" fill="#1E3D70"/>
<path d="M458.271 277.049C458.271 277.049 454.023 280.235 447.517 278.551C447.517 278.551 442.271 277.354 441.121 279.973C441.121 279.973 449.167 284.066 451.201 285.185C452.737 286.029 454.338 287.354 455.471 288.389C455.683 288.582 455.933 288.729 456.204 288.822C456.475 288.915 456.763 288.951 457.048 288.929C457.334 288.907 457.613 288.826 457.867 288.693C458.12 288.559 458.344 288.376 458.525 288.152C458.879 287.719 459.285 287.198 459.728 286.597C460.969 284.913 463.863 279.476 463.863 279.476L458.271 277.049Z" fill="#233862"/>
<path d="M506.433 164.678C508.647 148.41 497.27 133.426 481.021 131.209C464.773 128.993 449.806 140.383 447.592 156.65C445.377 172.917 456.754 187.902 473.003 190.118C489.251 192.335 504.218 180.945 506.433 164.678Z" fill="#E2810E"/>
<path d="M500.615 181.693C512.211 170.084 512.211 151.262 500.615 139.653C489.019 128.044 470.219 128.044 458.624 139.653C447.028 151.262 447.028 170.084 458.624 181.693C470.219 193.302 489.019 193.302 500.615 181.693Z" fill="#FFB93E"/>
<path d="M460.49 180.175C456.065 175.744 453.311 169.914 452.698 163.679C452.085 157.443 453.65 151.188 457.128 145.978C460.605 140.768 465.779 136.927 471.768 135.108C477.757 133.29 484.19 133.606 489.972 136.004C495.754 138.402 500.527 142.733 503.477 148.259C506.427 153.785 507.372 160.164 506.151 166.309C504.93 172.455 501.619 177.986 496.781 181.961C491.943 185.936 485.878 188.108 479.619 188.108C476.065 188.118 472.545 187.422 469.261 186.06C465.977 184.698 462.996 182.698 460.49 180.175ZM454.188 161.023C454.188 167.778 456.869 174.256 461.639 179.032C466.41 183.808 472.88 186.492 479.627 186.492C486.374 186.492 492.845 183.808 497.615 179.032C502.386 174.256 505.066 167.778 505.066 161.023C505.066 146.982 493.654 135.557 479.627 135.557C465.6 135.557 454.181 146.982 454.181 161.023H454.188Z" fill="#FFA412"/>
<path d="M476.329 170.282C476.558 170.697 476.88 171.053 477.27 171.323C477.7 171.614 478.184 171.815 478.694 171.914C479.314 172.033 479.95 172.051 480.576 171.966C481.185 171.893 481.781 171.74 482.349 171.51C482.914 171.287 483.421 170.937 483.832 170.489C484.27 169.997 484.587 169.409 484.755 168.772C484.961 167.947 485.002 167.091 484.877 166.25L491.36 165.479C491.557 167.149 491.457 168.613 491.061 169.872C490.702 171.067 490.087 172.169 489.259 173.101C488.448 173.999 487.474 174.735 486.39 175.27C485.277 175.826 484.1 176.242 482.886 176.51L483.375 180.65L479.808 181.072L479.316 176.932C478.049 176.977 476.781 176.844 475.551 176.538C474.469 176.266 473.446 175.798 472.532 175.158C471.676 174.545 470.959 173.757 470.429 172.847C469.295 170.764 469.029 168.317 469.688 166.039C470.047 164.989 470.618 164.025 471.366 163.206C472.199 162.303 473.15 161.518 474.194 160.872C475.317 160.159 476.57 159.446 477.955 158.733C478.692 158.362 479.407 157.949 480.096 157.495C480.597 157.167 481.048 156.768 481.435 156.312C481.74 155.95 481.958 155.522 482.071 155.062C482.173 154.594 482.193 154.113 482.13 153.638C482.077 153.149 481.944 152.671 481.736 152.225C481.544 151.809 481.26 151.441 480.905 151.15C480.526 150.848 480.085 150.633 479.613 150.521C479.032 150.387 478.431 150.362 477.841 150.446C476.6 150.592 475.659 151.123 475.015 152.039C474.372 152.956 474.15 154.248 474.35 155.915L467.867 156.686C467.699 155.408 467.749 154.111 468.015 152.85C468.25 151.737 468.705 150.684 469.355 149.751C470.004 148.818 470.834 148.026 471.796 147.42C472.836 146.759 473.977 146.272 475.175 145.981L474.637 141.446L478.227 141.021L478.755 145.484C480.017 145.439 481.278 145.586 482.496 145.918C483.574 146.212 484.59 146.697 485.498 147.349C486.353 147.97 487.067 148.764 487.595 149.679C488.715 151.753 488.975 154.184 488.318 156.448C487.961 157.496 487.389 158.458 486.638 159.271C485.801 160.169 484.845 160.948 483.796 161.586C482.566 162.348 481.297 163.046 479.996 163.677C479.283 164.012 478.595 164.397 477.938 164.831C477.441 165.159 476.994 165.557 476.61 166.014C476.293 166.393 476.065 166.84 475.945 167.321C475.831 167.839 475.81 168.373 475.882 168.898C475.939 169.384 476.09 169.854 476.329 170.282Z" fill="#FFA412"/>
<path d="M455.778 275.43C455.778 275.43 458.363 281.4 464.332 280.302C464.332 280.302 476.512 270.231 484.867 259.77C487.581 256.371 489.891 252.933 491.25 249.786C496.789 236.944 511.744 217.79 521.251 208.082L497.463 199.467C497.463 199.467 489.844 214.811 479.706 233.659C472.4 247.239 463.789 262.639 455.778 275.43Z" fill="#2B478B"/>
<path d="M479.706 233.659L484.868 259.77C487.581 256.371 489.891 252.933 491.25 249.786C496.789 236.944 511.744 217.79 521.251 208.082L497.463 199.467C497.463 199.467 489.844 214.811 479.706 233.659Z" fill="#233862"/>
<path d="M499.15 280.512C499.15 280.512 499.41 285.275 493.637 285.91C493.637 285.91 490.34 285.927 490.33 288.96L507.094 289.013C507.094 289.013 507.581 287.791 507.699 285.17C507.79 283.159 505.751 277.901 505.751 277.901L499.15 280.512Z" fill="#233862"/>
<path d="M505.265 199.467C505.265 199.467 494.668 211.125 487.936 232.127C484.277 243.562 494.645 272.283 496.665 282.265C496.665 282.265 503.621 282.857 508.376 281.015C508.376 281.015 508.739 260.399 505.956 244.509C504.401 235.615 519.908 225.489 526.687 209.415C531.297 198.483 525.688 198.668 518.796 198.406L505.265 199.467Z" fill="#2B478B"/>
<path d="M517.498 147.456C523.394 150.789 535.465 147.716 535.465 147.716C535.465 147.716 530.564 142.105 532.791 133.069L528.161 135.423L523.197 137.951C522.935 139.427 522.753 140.916 522.651 142.412C522.594 143.152 522.543 143.976 522.508 144.877C520.694 145.422 518.996 146.297 517.498 147.456Z" fill="#FFB07B"/>
<path d="M495.88 198.863C495.88 199.902 497.073 200.399 497.327 200.441C499.706 200.876 506.344 203.461 512.327 204.054C517.362 204.583 522.039 204.082 527.177 203.049C527.856 202.911 529.453 202.481 529.568 201.829C529.707 201.115 549.382 161.676 534.097 144.733C533.736 144.339 530.718 145.052 527.957 145.719C525.629 146.27 523.187 146.07 520.98 145.147L518.39 146.511C515.212 148.286 509.196 154.595 508.491 159.523C508.134 162.039 506.697 163.9 506.281 166.112C506.128 166.931 505.97 167.73 505.808 168.51C505.496 170.038 505.174 171.493 504.842 172.875C503.942 176.621 502.992 179.834 502.059 182.614C501.074 185.571 500.09 188.024 499.225 190.078C498.097 192.744 497.144 194.735 496.549 196.259C496.12 197.347 495.88 198.181 495.88 198.863Z" fill="#D2E3FC"/>
<path d="M496.541 196.264C524.308 183.165 533.931 158.017 533.931 158.017C533.931 158.017 511.368 166.348 505.801 168.519C505.488 170.048 505.166 171.503 504.834 172.884C503.934 176.63 502.985 179.843 502.051 182.623C501.067 185.581 500.082 188.033 499.217 190.088C498.089 192.749 497.136 194.74 496.541 196.264Z" fill="#A4C8FC"/>
<path d="M480.293 188.672L477.892 189.554C477.892 189.554 473.087 186.151 470.094 191.685C470.094 191.685 469.013 194.102 470.726 194.626C472.44 195.151 471.815 194.658 474.224 195.46C476.632 196.263 479.003 195.685 479.913 193.962L481.545 192.763L480.293 188.672Z" fill="#FFB07B"/>
<path d="M478.318 192.071L477.026 188.704C477.026 188.704 495.159 173.908 497.006 172.638C498.264 171.773 510.801 162.386 516.911 155.082C518.399 153.303 520.342 151.962 522.532 151.203C524.722 150.443 527.077 150.293 529.345 150.768L533.152 151.568C537.748 152.532 539.242 158.358 535.676 161.426C525.633 170.043 508.697 180.041 505.547 182.127C497.707 187.288 480.366 194.522 480.366 194.522C480.366 194.522 479.015 193.893 478.318 192.071Z" fill="#D2E3FC"/>
<path d="M522.644 142.412C528.441 142.739 532.212 137.946 532.212 137.946C532.212 137.946 529.591 136.493 528.162 135.423L523.197 137.95C522.932 139.426 522.748 140.916 522.644 142.412Z" fill="#EA8E50"/>
<path d="M520.174 136.454C520.174 136.454 528.959 142.763 532.801 137.227C536.643 131.691 540.363 128.775 534.916 124.511C529.469 120.246 526.903 121.595 525.172 123.131C523.441 124.666 517.986 134.67 520.174 136.454Z" fill="#FFB07B"/>
<path d="M524.243 118.129C524.421 116.88 524.766 115.66 525.267 114.503C525.267 114.503 525.818 116.788 529.993 116.474C534.168 116.161 540.782 116.887 542.99 121.648C543.132 121.951 543.256 122.263 543.368 122.582C543.762 121.526 543.862 119.944 543.862 119.944C544.65 121.995 543.862 124.558 543.862 124.558C543.874 124.633 543.884 124.708 543.894 124.782C544.815 125.571 545.589 127.986 545.589 127.986C545.312 127.31 544.632 126.868 544.03 126.606C544.047 130.313 542.547 133.934 539.912 135.013C536.06 136.59 536.092 135.385 532.218 137.958C532.218 137.958 531.178 136.667 531.887 135.79C532.596 134.912 535.274 133.662 533.778 132.4C532.281 131.139 531.73 132.558 531.178 131.691C530.627 130.823 533.384 128.302 529.841 125.936C526.299 123.57 523.928 120.26 524.243 118.129Z" fill="#233862"/>
<path d="M145.995 284.11V287.544C145.993 287.815 145.898 288.076 145.725 288.284C145.531 288.517 145.275 288.689 144.986 288.781C144.893 288.811 144.796 288.833 144.699 288.848C144.606 288.862 144.513 288.869 144.419 288.869H79.3276C78.4887 288.869 77.7975 288.309 77.7522 287.613C77.7522 287.592 77.7522 287.568 77.7522 287.544V284.11C77.7522 284.086 77.7522 284.065 77.7522 284.041C77.7955 283.345 78.4867 282.785 79.3276 282.785H144.419C144.513 282.785 144.606 282.793 144.699 282.807C144.796 282.822 144.893 282.845 144.986 282.876C145.275 282.965 145.532 283.137 145.725 283.371C145.898 283.578 145.993 283.84 145.995 284.11Z" fill="#FFB93E"/>
<path d="M114.034 288.87H79.1642C78.8147 288.878 78.4753 288.752 78.2146 288.519C77.954 288.286 77.7915 287.962 77.7601 287.614C77.7601 287.592 77.7601 287.568 77.7601 287.545V284.11C77.7601 284.087 77.7601 284.065 77.7601 284.041C77.7915 283.693 77.954 283.369 78.2146 283.136C78.4753 282.903 78.8147 282.778 79.1642 282.786H109.753C110.404 285.262 111.923 287.422 114.034 288.87Z" fill="#FFA412"/>
<path d="M138.077 282.787H137.336V288.871H138.077V282.787Z" fill="#FFA412"/>
<path d="M135.572 282.787H134.831V288.871H135.572V282.787Z" fill="#FFA412"/>
<path d="M132.571 282.787H131.83V288.871H132.571V282.787Z" fill="#FFA412"/>
<path d="M127.967 282.787H127.226V288.871H127.967V282.787Z" fill="#FFA412"/>
<path d="M123.101 282.787H122.36V288.871H123.101V282.787Z" fill="#FFA412"/>
<path d="M115.64 282.787H114.898V288.871H115.64V282.787Z" fill="#FFA412"/>
<path d="M108.653 282.787H107.911V288.871H108.653V282.787Z" fill="#FFA412"/>
<path d="M102.414 282.787H101.673V288.871H102.414V282.787Z" fill="#FFA412"/>
<path d="M140.46 282.787H139.719V288.871H140.46V282.787Z" fill="#FFA412"/>
<path d="M142.035 282.787H141.294V288.871H142.035V282.787Z" fill="#FFA412"/>
<path d="M143.556 282.787H142.814V288.871H143.556V282.787Z" fill="#FFA412"/>
<path d="M144.708 282.807V288.848C144.615 288.862 144.521 288.869 144.428 288.869H143.959V282.785H144.42C144.516 282.785 144.612 282.792 144.708 282.807Z" fill="#FFA412"/>
<path d="M145.726 283.371V288.284C145.532 288.517 145.276 288.69 144.986 288.781V282.866C145.277 282.958 145.534 283.134 145.726 283.371Z" fill="#FFA412"/>
<path d="M139.035 278.026V281.462C139.034 281.733 138.938 281.994 138.766 282.202C138.572 282.434 138.316 282.606 138.027 282.697C137.933 282.728 137.837 282.751 137.74 282.766C137.648 282.779 137.555 282.786 137.462 282.785H72.3742C71.5353 282.785 70.8441 282.227 70.7988 281.529C70.7988 281.508 70.7988 281.484 70.7988 281.462V278.026C70.7988 278.004 70.7988 277.981 70.7988 277.959C70.8421 277.261 71.5333 276.703 72.3742 276.703H137.462H137.586H137.639H137.698H137.74C137.837 276.717 137.933 276.74 138.027 276.77L138.068 276.784L138.108 276.8L138.187 276.831L138.232 276.853L138.273 276.873C138.299 276.885 138.322 276.898 138.346 276.912L138.427 276.961L138.488 277.005L138.527 277.034C138.567 277.065 138.605 277.098 138.641 277.133L138.673 277.164C138.685 277.164 138.693 277.186 138.704 277.196L138.762 277.263C138.94 277.477 139.037 277.747 139.035 278.026Z" fill="#FFB93E"/>
<path d="M107.074 282.786H72.205C71.8555 282.794 71.5161 282.668 71.2554 282.435C70.9947 282.202 70.8322 281.878 70.8009 281.53C70.8009 281.508 70.8009 281.484 70.8009 281.463V278.026C70.8009 278.005 70.8009 277.981 70.8009 277.959C70.8322 277.611 70.9947 277.287 71.2554 277.054C71.5161 276.821 71.8555 276.696 72.205 276.703H102.791C102.805 276.753 102.821 276.802 102.835 276.853C103.506 279.269 105.008 281.37 107.074 282.786Z" fill="#FFA412"/>
<path d="M131.118 276.703H130.377V282.787H131.118V276.703Z" fill="#FFA412"/>
<path d="M128.615 276.703H127.874V282.787H128.615V276.703Z" fill="#FFA412"/>
<path d="M125.612 276.703H124.871V282.787H125.612V276.703Z" fill="#FFA412"/>
<path d="M121.01 276.703H120.268V282.787H121.01V276.703Z" fill="#FFA412"/>
<path d="M116.142 276.703H115.4V282.787H116.142V276.703Z" fill="#FFA412"/>
<path d="M108.68 276.703H107.939V282.787H108.68V276.703Z" fill="#FFA412"/>
<path d="M101.693 276.703H100.952V282.787H101.693V276.703Z" fill="#FFA412"/>
<path d="M95.4548 276.703H94.7135V282.787H95.4548V276.703Z" fill="#FFA412"/>
<path d="M133.503 276.703H132.761V282.787H133.503V276.703Z" fill="#FFA412"/>
<path d="M135.076 276.703H134.335V282.787H135.076V276.703Z" fill="#FFA412"/>
<path d="M136.596 276.703H135.855V282.787H136.596V276.703Z" fill="#FFA412"/>
<path d="M137.741 276.725V282.766C137.649 282.779 137.556 282.786 137.463 282.785H136.999V276.703H137.463C137.556 276.702 137.649 276.71 137.741 276.725Z" fill="#FFA412"/>
<path d="M138.767 277.287V282.202C138.573 282.434 138.316 282.606 138.027 282.697V276.782C138.317 276.876 138.574 277.051 138.767 277.287Z" fill="#FFA412"/>
<path d="M142.399 272.093V275.528C142.397 275.798 142.302 276.06 142.129 276.267C141.936 276.5 141.679 276.673 141.391 276.764C141.296 276.795 141.199 276.817 141.101 276.831C141.009 276.845 140.916 276.853 140.823 276.853H75.7377C75.4877 276.854 75.2402 276.803 75.0111 276.703C74.7918 276.617 74.5987 276.475 74.4512 276.292C74.3036 276.108 74.2068 275.889 74.1702 275.656C74.1683 275.636 74.1683 275.616 74.1702 275.597C74.1702 275.575 74.1702 275.551 74.1702 275.528V272.093C74.1702 272.07 74.1702 272.048 74.1702 272.024C74.2135 271.328 74.9047 270.769 75.7456 270.769H140.823C140.916 270.769 141.009 270.776 141.101 270.79C141.199 270.805 141.296 270.828 141.391 270.859C141.68 270.949 141.936 271.121 142.129 271.354C142.302 271.562 142.397 271.823 142.399 272.093Z" fill="#FFB93E"/>
<path d="M110.442 276.853H75.5684C75.3438 276.854 75.122 276.802 74.9205 276.703C74.7169 276.607 74.5412 276.46 74.4099 276.277C74.2786 276.094 74.1961 275.88 74.1702 275.656C74.1683 275.637 74.1683 275.617 74.1702 275.597C74.1702 275.575 74.1702 275.552 74.1702 275.528V272.094C74.1702 272.07 74.1702 272.048 74.1702 272.025C74.2016 271.676 74.364 271.353 74.6247 271.119C74.8854 270.886 75.2248 270.761 75.5743 270.769H106.157C106.785 273.159 108.222 275.256 110.223 276.703L110.442 276.853Z" fill="#FFA412"/>
<path d="M134.481 270.769H133.74V276.853H134.481V270.769Z" fill="#FFA412"/>
<path d="M131.977 270.769H131.235V276.853H131.977V270.769Z" fill="#FFA412"/>
<path d="M128.975 270.769H128.234V276.853H128.975V270.769Z" fill="#FFA412"/>
<path d="M124.371 270.769H123.63V276.853H124.371V270.769Z" fill="#FFA412"/>
<path d="M119.505 270.769H118.764V276.853H119.505V270.769Z" fill="#FFA412"/>
<path d="M112.044 270.769H111.302V276.853H112.044V270.769Z" fill="#FFA412"/>
<path d="M105.057 270.769H104.315V276.853H105.057V270.769Z" fill="#FFA412"/>
<path d="M98.8183 270.769H98.077V276.853H98.8183V270.769Z" fill="#FFA412"/>
<path d="M136.864 270.769H136.123V276.853H136.864V270.769Z" fill="#FFA412"/>
<path d="M138.44 270.769H137.698V276.853H138.44V270.769Z" fill="#FFA412"/>
<path d="M139.96 270.769H139.219V276.853H139.96V270.769Z" fill="#FFA412"/>
<path d="M141.102 270.79V276.831C141.01 276.845 140.917 276.853 140.824 276.853H140.363V270.769H140.824C140.917 270.769 141.01 270.776 141.102 270.79Z" fill="#FFA412"/>
<path d="M142.13 271.353V276.266C141.936 276.5 141.68 276.672 141.391 276.763V270.849C141.681 270.941 141.938 271.116 142.13 271.353Z" fill="#FFA412"/>
<path d="M143.958 266.008V269.445C143.955 269.715 143.86 269.976 143.689 270.184C143.495 270.417 143.237 270.589 142.948 270.679C142.855 270.71 142.758 270.734 142.661 270.748C142.569 270.762 142.476 270.768 142.383 270.768H77.2953C76.4564 270.768 75.7652 270.21 75.7199 269.512C75.7199 269.49 75.7199 269.466 75.7199 269.445V266.008C75.7199 265.987 75.7199 265.963 75.7199 265.941C75.7593 265.297 76.3521 264.77 77.0984 264.695C77.1601 264.691 77.2219 264.691 77.2835 264.695H142.383C142.476 264.696 142.569 264.703 142.661 264.717C142.758 264.731 142.855 264.753 142.948 264.784C143.237 264.874 143.495 265.046 143.689 265.279C143.858 265.485 143.953 265.742 143.958 266.008Z" fill="#FFB93E"/>
<path d="M111.998 270.768H77.1281C76.7786 270.776 76.4392 270.65 76.1785 270.417C75.9178 270.184 75.7554 269.86 75.724 269.512C75.724 269.49 75.724 269.466 75.724 269.445V266.008C75.724 265.987 75.724 265.963 75.724 265.941C75.7502 265.621 75.8887 265.32 76.115 265.092C76.3413 264.864 76.6408 264.724 76.9607 264.695C77.0164 264.691 77.0724 264.691 77.1281 264.695H107.714C108.368 267.169 109.888 269.324 111.998 270.768Z" fill="#FFA412"/>
<path d="M136.041 264.687H135.3V270.769H136.041V264.687Z" fill="#FFA412"/>
<path d="M133.536 264.687H132.795V270.769H133.536V264.687Z" fill="#FFA412"/>
<path d="M130.533 264.687H129.792V270.769H130.533V264.687Z" fill="#FFA412"/>
<path d="M125.931 264.687H125.189V270.769H125.931V264.687Z" fill="#FFA412"/>
<path d="M121.063 264.687H120.322V270.769H121.063V264.687Z" fill="#FFA412"/>
<path d="M113.601 264.687H112.86V270.769H113.601V264.687Z" fill="#FFA412"/>
<path d="M106.617 264.687H105.875V270.769H106.617V264.687Z" fill="#FFA412"/>
<path d="M100.378 264.687H99.6366V270.769H100.378V264.687Z" fill="#FFA412"/>
<path d="M138.424 264.687H137.683V270.769H138.424V264.687Z" fill="#FFA412"/>
<path d="M139.999 264.687H139.258V270.769H139.999V264.687Z" fill="#FFA412"/>
<path d="M141.519 264.687H140.778V270.769H141.519V264.687Z" fill="#FFA412"/>
<path d="M142.662 264.708V270.747C142.57 270.762 142.477 270.77 142.384 270.769H141.92V264.687H142.384C142.477 264.686 142.57 264.693 142.662 264.708Z" fill="#FFA412"/>
<path d="M143.69 265.27V270.185C143.495 270.418 143.238 270.59 142.948 270.68V264.766C143.239 264.859 143.497 265.034 143.69 265.27Z" fill="#FFA412"/>
<path d="M139.173 259.937V263.372C139.17 263.642 139.075 263.903 138.904 264.111C138.71 264.345 138.453 264.517 138.163 264.606C138.069 264.637 137.973 264.66 137.876 264.675L137.785 264.687H137.734H137.683H72.5004C71.6614 264.687 70.9702 264.127 70.9249 263.431C70.9249 263.407 70.9249 263.385 70.9249 263.362V259.927C70.9249 259.904 70.9249 259.882 70.9249 259.858C70.9239 259.84 70.9239 259.822 70.9249 259.803C70.988 259.243 71.4724 258.78 72.1065 258.644H72.1557C72.2675 258.623 72.3808 258.613 72.4944 258.612H137.598H137.74H137.803H137.876C137.973 258.626 138.069 258.648 138.163 258.679C138.453 258.77 138.71 258.943 138.904 259.176C139.08 259.39 139.175 259.66 139.173 259.937Z" fill="#FFB93E"/>
<path d="M107.212 264.696H72.3428C71.9933 264.704 71.6539 264.579 71.3932 264.346C71.1325 264.113 70.9701 263.789 70.9387 263.441C70.9387 263.417 70.9387 263.395 70.9387 263.372V259.937C70.9387 259.914 70.9387 259.892 70.9387 259.868C70.9376 259.85 70.9376 259.831 70.9387 259.813C70.9739 259.528 71.0985 259.261 71.2945 259.052C71.4905 258.842 71.7479 258.7 72.0296 258.646L72.0887 258.634C72.1713 258.62 72.255 258.612 72.3388 258.612H102.929L102.941 258.656C103.597 261.11 105.107 263.249 107.199 264.687L107.212 264.696Z" fill="#FFA412"/>
<path d="M131.256 258.612H130.514V264.696H131.256V258.612Z" fill="#FFA412"/>
<path d="M128.751 258.612H128.009V264.696H128.751V258.612Z" fill="#FFA412"/>
<path d="M125.748 258.612H125.007V264.696H125.748V258.612Z" fill="#FFA412"/>
<path d="M121.146 258.612H120.404V264.696H121.146V258.612Z" fill="#FFA412"/>
<path d="M116.278 258.612H115.536V264.696H116.278V258.612Z" fill="#FFA412"/>
<path d="M108.816 258.612H108.075V264.696H108.816V258.612Z" fill="#FFA412"/>
<path d="M101.831 258.612H101.09V264.696H101.831V258.612Z" fill="#FFA412"/>
<path d="M95.5925 258.612H94.8512V264.696H95.5925V258.612Z" fill="#FFA412"/>
<path d="M133.639 258.612H132.897V264.696H133.639V258.612Z" fill="#FFA412"/>
<path d="M135.214 258.612H134.473V264.696H135.214V258.612Z" fill="#FFA412"/>
<path d="M136.734 258.612H135.993V264.696H136.734V258.612Z" fill="#FFA412"/>
<path d="M137.876 258.634V264.675C137.784 264.689 137.691 264.696 137.598 264.696H137.135V258.612H137.598C137.691 258.613 137.784 258.62 137.876 258.634Z" fill="#FFA412"/>
<path d="M138.904 259.197V264.11C138.711 264.344 138.453 264.516 138.163 264.605V258.69C138.454 258.784 138.712 258.96 138.904 259.197Z" fill="#FFA412"/>
<path d="M139.035 253.896V257.331C139.034 257.601 138.938 257.862 138.766 258.07C138.572 258.303 138.316 258.476 138.027 258.567C137.954 258.591 137.879 258.61 137.803 258.624H137.742C137.65 258.638 137.557 258.645 137.464 258.646H72.3742C72.3084 258.646 72.2426 258.642 72.1773 258.634L72.0985 258.624C71.3915 258.516 70.8441 258.007 70.8067 257.39C70.8067 257.366 70.8067 257.344 70.8067 257.321V253.886C70.8067 253.863 70.8067 253.841 70.8067 253.817C70.85 253.121 71.5412 252.562 72.3821 252.562H137.462C137.503 252.562 137.544 252.562 137.586 252.562H137.639H137.698H137.74C137.837 252.576 137.933 252.599 138.027 252.631L138.068 252.644L138.108 252.658L138.187 252.692L138.273 252.731L138.346 252.77L138.427 252.822L138.488 252.863C138.502 252.872 138.515 252.882 138.527 252.893C138.568 252.923 138.606 252.956 138.641 252.991L138.673 253.023L138.704 253.054C138.724 253.076 138.744 253.098 138.762 253.121C138.944 253.338 139.041 253.613 139.035 253.896Z" fill="#FFB93E"/>
<path d="M107.074 258.662H72.1222H72.0336C71.7148 258.632 71.4166 258.49 71.1912 258.263C70.9658 258.035 70.8277 257.735 70.8009 257.416C70.8009 257.392 70.8009 257.37 70.8009 257.347V253.912C70.8009 253.888 70.8009 253.867 70.8009 253.843C70.8322 253.495 70.9947 253.171 71.2554 252.938C71.5161 252.705 71.8555 252.579 72.205 252.587H102.791C102.805 252.639 102.821 252.688 102.835 252.739C103.5 255.13 104.978 257.213 107.013 258.628L107.074 258.662Z" fill="#FFA412"/>
<path d="M131.118 252.574H130.377V258.656H131.118V252.574Z" fill="#FFA412"/>
<path d="M128.615 252.574H127.874V258.656H128.615V252.574Z" fill="#FFA412"/>
<path d="M125.612 252.574H124.871V258.656H125.612V252.574Z" fill="#FFA412"/>
<path d="M121.01 252.574H120.268V258.656H121.01V252.574Z" fill="#FFA412"/>
<path d="M116.142 252.574H115.4V258.656H116.142V252.574Z" fill="#FFA412"/>
<path d="M108.68 252.574H107.939V258.656H108.68V252.574Z" fill="#FFA412"/>
<path d="M101.693 252.574H100.952V258.656H101.693V252.574Z" fill="#FFA412"/>
<path d="M95.4548 252.574H94.7135V258.656H95.4548V252.574Z" fill="#FFA412"/>
<path d="M133.503 252.574H132.761V258.656H133.503V252.574Z" fill="#FFA412"/>
<path d="M135.076 252.574H134.335V258.656H135.076V252.574Z" fill="#FFA412"/>
<path d="M136.596 252.574H135.855V258.656H136.596V252.574Z" fill="#FFA412"/>
<path d="M137.741 252.594V258.635C137.649 258.649 137.556 258.656 137.463 258.656H136.999V252.574H137.463C137.556 252.574 137.649 252.58 137.741 252.594Z" fill="#FFA412"/>
<path d="M138.767 253.157V258.07C138.573 258.303 138.316 258.476 138.027 258.567V252.652C138.317 252.746 138.574 252.921 138.767 253.157Z" fill="#FFA412"/>
<path d="M142.399 247.965V251.399C142.397 251.669 142.302 251.931 142.129 252.138C141.936 252.371 141.679 252.543 141.391 252.633C141.296 252.664 141.2 252.687 141.101 252.702C141.009 252.716 140.917 252.724 140.824 252.724H75.7378C75.4877 252.724 75.2402 252.673 75.0112 252.572C74.7919 252.487 74.5988 252.345 74.4512 252.162C74.3037 251.979 74.2068 251.76 74.1703 251.527C74.1683 251.507 74.1683 251.486 74.1703 251.466C74.1703 251.444 74.1703 251.423 74.1703 251.399V247.965C74.1703 247.941 74.1703 247.917 74.1703 247.896C74.2136 247.2 74.9048 246.64 75.7457 246.64H140.824C140.917 246.64 141.009 246.647 141.101 246.661C141.199 246.675 141.296 246.698 141.391 246.728C141.679 246.819 141.936 246.992 142.129 247.225C142.302 247.433 142.397 247.694 142.399 247.965Z" fill="#FFB93E"/>
<path d="M110.442 252.724H75.5685C75.3437 252.724 75.122 252.672 74.9206 252.572C74.717 252.476 74.5413 252.33 74.41 252.147C74.2787 251.965 74.1962 251.751 74.1703 251.527C74.1683 251.507 74.1683 251.487 74.1703 251.466C74.1703 251.445 74.1703 251.423 74.1703 251.399V247.965C74.1703 247.941 74.1703 247.918 74.1703 247.896C74.2017 247.547 74.3641 247.224 74.6248 246.991C74.8855 246.757 75.2249 246.632 75.5744 246.64H106.157C106.785 249.029 108.223 251.126 110.223 252.572L110.442 252.724Z" fill="#FFA412"/>
<path d="M134.481 246.64H133.74V252.724H134.481V246.64Z" fill="#FFA412"/>
<path d="M131.977 246.64H131.235V252.724H131.977V246.64Z" fill="#FFA412"/>
<path d="M128.975 246.64H128.234V252.724H128.975V246.64Z" fill="#FFA412"/>
<path d="M124.371 246.64H123.63V252.724H124.371V246.64Z" fill="#FFA412"/>
<path d="M119.505 246.64H118.764V252.724H119.505V246.64Z" fill="#FFA412"/>
<path d="M112.044 246.64H111.302V252.724H112.044V246.64Z" fill="#FFA412"/>
<path d="M105.057 246.64H104.315V252.724H105.057V246.64Z" fill="#FFA412"/>
<path d="M98.8183 246.64H98.077V252.724H98.8183V246.64Z" fill="#FFA412"/>
<path d="M136.864 246.64H136.123V252.724H136.864V246.64Z" fill="#FFA412"/>
<path d="M138.44 246.64H137.698V252.724H138.44V246.64Z" fill="#FFA412"/>
<path d="M139.96 246.64H139.219V252.724H139.96V246.64Z" fill="#FFA412"/>
<path d="M141.102 246.66V252.701C141.01 252.715 140.917 252.723 140.824 252.723H140.363V246.635H140.824C140.917 246.636 141.01 246.645 141.102 246.66Z" fill="#FFA412"/>
<path d="M142.13 247.226V252.139C141.937 252.373 141.68 252.545 141.391 252.634V246.72C141.681 246.814 141.938 246.99 142.13 247.226Z" fill="#FFA412"/>
<path d="M147.718 241.88V245.315C147.716 245.585 147.621 245.847 147.448 246.054C147.255 246.287 146.998 246.46 146.709 246.551C146.615 246.582 146.518 246.604 146.42 246.618C146.328 246.632 146.235 246.64 146.142 246.64H81.0566C80.2177 246.64 79.5265 246.08 79.4812 245.384C79.4812 245.36 79.4812 245.339 79.4812 245.315V241.88C79.4812 241.857 79.4812 241.835 79.4812 241.811C79.5206 241.169 80.1153 240.64 80.8597 240.565C80.9208 240.565 80.9838 240.565 81.0468 240.565H146.142C146.235 240.566 146.328 240.573 146.42 240.587C146.518 240.602 146.615 240.625 146.709 240.656C146.998 240.746 147.255 240.918 147.448 241.151C147.619 241.356 147.714 241.614 147.718 241.88Z" fill="#FFB93E"/>
<path d="M115.759 246.635H80.8874C80.5379 246.643 80.1985 246.518 79.9378 246.285C79.6772 246.051 79.5147 245.728 79.4833 245.379C79.4833 245.356 79.4833 245.334 79.4833 245.31V241.876C79.4833 241.852 79.4833 241.831 79.4833 241.807C79.5103 241.486 79.6494 241.186 79.8759 240.958C80.1025 240.73 80.4021 240.589 80.722 240.561C80.7771 240.558 80.8323 240.558 80.8874 240.561H111.474C112.128 243.035 113.649 245.19 115.759 246.635Z" fill="#FFA412"/>
<path d="M139.8 240.557H139.059V246.641H139.8V240.557Z" fill="#FFA412"/>
<path d="M137.295 240.557H136.554V246.641H137.295V240.557Z" fill="#FFA412"/>
<path d="M134.294 240.557H133.553V246.641H134.294V240.557Z" fill="#FFA412"/>
<path d="M129.69 240.557H128.949V246.641H129.69V240.557Z" fill="#FFA412"/>
<path d="M124.824 240.557H124.083V246.641H124.824V240.557Z" fill="#FFA412"/>
<path d="M117.363 240.557H116.621V246.641H117.363V240.557Z" fill="#FFA412"/>
<path d="M110.376 240.557H109.634V246.641H110.376V240.557Z" fill="#FFA412"/>
<path d="M104.137 240.557H103.396V246.641H104.137V240.557Z" fill="#FFA412"/>
<path d="M142.183 240.557H141.442V246.641H142.183V240.557Z" fill="#FFA412"/>
<path d="M143.759 240.557H143.017V246.641H143.759V240.557Z" fill="#FFA412"/>
<path d="M145.279 240.557H144.537V246.641H145.279V240.557Z" fill="#FFA412"/>
<path d="M146.423 240.577V246.618C146.33 246.632 146.237 246.64 146.143 246.64H145.691V240.556H146.153C146.243 240.556 146.333 240.564 146.423 240.577Z" fill="#FFA412"/>
<path d="M147.449 241.14V246.054C147.255 246.287 146.999 246.459 146.71 246.55V240.636C147 240.728 147.257 240.904 147.449 241.14Z" fill="#FFA412"/>
<path d="M139.173 235.805V239.242C139.17 239.512 139.075 239.773 138.903 239.981C138.709 240.214 138.452 240.386 138.163 240.476C138.07 240.508 137.973 240.53 137.875 240.543C137.846 240.549 137.815 240.553 137.785 240.555H137.712H137.675H72.5101C71.6712 240.555 70.98 239.997 70.9347 239.299C70.9347 239.277 70.9347 239.254 70.9347 239.232V235.796C70.9347 235.774 70.9347 235.75 70.9347 235.729C70.9761 235.031 71.6673 234.473 72.5101 234.473H137.692C137.757 234.473 137.822 234.483 137.889 234.49C137.987 234.505 138.083 234.528 138.177 234.559C138.224 234.574 138.27 234.591 138.315 234.611L138.395 234.646C138.423 234.658 138.45 234.672 138.476 234.688C138.476 234.688 138.476 234.688 138.488 234.688C138.513 234.7 138.537 234.714 138.559 234.731C138.614 234.765 138.667 234.803 138.716 234.845L138.76 234.883L138.787 234.908L138.833 234.958L138.896 235.029C139.078 235.246 139.177 235.521 139.173 235.805Z" fill="#FFB93E"/>
<path d="M107.212 240.565H72.3429C71.9934 240.573 71.654 240.448 71.3933 240.214C71.1326 239.981 70.9702 239.658 70.9388 239.309C70.9388 239.287 70.9388 239.264 70.9388 239.242V235.806C70.9388 235.784 70.9388 235.76 70.9388 235.739C70.9702 235.39 71.1326 235.066 71.3933 234.833C71.654 234.6 71.9934 234.475 72.3429 234.483H102.929C102.941 234.528 102.955 234.575 102.971 234.623C103.637 237.037 105.135 239.139 107.199 240.555L107.212 240.565Z" fill="#FFA412"/>
<path d="M131.256 234.482H130.514V240.567H131.256V234.482Z" fill="#FFA412"/>
<path d="M128.751 234.482H128.009V240.567H128.751V234.482Z" fill="#FFA412"/>
<path d="M125.748 234.482H125.007V240.567H125.748V234.482Z" fill="#FFA412"/>
<path d="M121.146 234.482H120.404V240.567H121.146V234.482Z" fill="#FFA412"/>
<path d="M116.278 234.482H115.536V240.567H116.278V234.482Z" fill="#FFA412"/>
<path d="M108.816 234.482H108.075V240.567H108.816V234.482Z" fill="#FFA412"/>
<path d="M101.831 234.482H101.09V240.567H101.831V234.482Z" fill="#FFA412"/>
<path d="M95.5925 234.482H94.8512V240.567H95.5925V234.482Z" fill="#FFA412"/>
<path d="M133.639 234.482H132.897V240.567H133.639V234.482Z" fill="#FFA412"/>
<path d="M135.214 234.482H134.473V240.567H135.214V234.482Z" fill="#FFA412"/>
<path d="M136.734 234.482H135.993V240.567H136.734V234.482Z" fill="#FFA412"/>
<path d="M137.876 234.502V240.543C137.784 240.557 137.691 240.564 137.598 240.565H137.135V234.482H137.598C137.691 234.482 137.784 234.489 137.876 234.502Z" fill="#FFA412"/>
<path d="M138.904 235.066V239.981C138.71 240.214 138.453 240.386 138.163 240.476V234.562C138.454 234.654 138.711 234.83 138.904 235.066Z" fill="#FFA412"/>
<path d="M143.959 229.864V233.298C143.956 233.568 143.86 233.829 143.689 234.038C143.495 234.271 143.238 234.444 142.948 234.534C142.855 234.565 142.758 234.588 142.661 234.601C142.569 234.616 142.476 234.623 142.383 234.623H77.2954C77.0541 234.623 76.8152 234.576 76.5924 234.483C76.3669 234.399 76.1679 234.256 76.016 234.069C75.864 233.883 75.7646 233.659 75.7279 233.42C75.7269 233.403 75.7269 233.385 75.7279 233.367C75.7279 233.344 75.7279 233.322 75.7279 233.298V229.864C75.7279 229.84 75.7279 229.818 75.7279 229.795C75.7673 229.15 76.36 228.624 77.1064 228.549C77.1674 228.549 77.2284 228.549 77.2915 228.549H142.383C142.476 228.549 142.569 228.556 142.661 228.571C142.758 228.585 142.855 228.608 142.948 228.64C143.238 228.729 143.495 228.901 143.689 229.134C143.858 229.34 143.953 229.597 143.959 229.864Z" fill="#FFB93E"/>
<path d="M111.998 234.622H77.128C76.9109 234.623 76.6964 234.575 76.4998 234.482C76.2904 234.387 76.1092 234.239 75.974 234.053C75.8387 233.867 75.7539 233.649 75.7279 233.42C75.7269 233.402 75.7269 233.384 75.7279 233.367C75.7279 233.343 75.7279 233.321 75.7279 233.298V229.863C75.7279 229.84 75.7279 229.818 75.7279 229.794C75.7544 229.474 75.893 229.173 76.1193 228.945C76.3455 228.717 76.6449 228.577 76.9646 228.548C77.0203 228.545 77.0762 228.545 77.132 228.548H107.714C108.345 230.94 109.787 233.038 111.793 234.482C111.862 234.53 111.929 234.577 111.998 234.622Z" fill="#FFA412"/>
<path d="M136.041 228.538H135.3V234.622H136.041V228.538Z" fill="#FFA412"/>
<path d="M133.536 228.538H132.795V234.622H133.536V228.538Z" fill="#FFA412"/>
<path d="M130.533 228.538H129.792V234.622H130.533V228.538Z" fill="#FFA412"/>
<path d="M125.931 228.538H125.189V234.622H125.931V228.538Z" fill="#FFA412"/>
<path d="M121.063 228.538H120.322V234.622H121.063V228.538Z" fill="#FFA412"/>
<path d="M113.601 228.538H112.86V234.622H113.601V228.538Z" fill="#FFA412"/>
<path d="M106.617 228.538H105.875V234.622H106.617V228.538Z" fill="#FFA412"/>
<path d="M100.378 228.538H99.6366V234.622H100.378V228.538Z" fill="#FFA412"/>
<path d="M138.424 228.538H137.683V234.622H138.424V228.538Z" fill="#FFA412"/>
<path d="M139.999 228.538H139.258V234.622H139.999V228.538Z" fill="#FFA412"/>
<path d="M141.519 228.538H140.778V234.622H141.519V228.538Z" fill="#FFA412"/>
<path d="M142.662 228.559V234.608C142.57 234.622 142.477 234.629 142.384 234.63H141.92V228.546H142.384C142.476 228.543 142.569 228.548 142.662 228.559Z" fill="#FFA412"/>
<path d="M143.69 229.124V234.037C143.496 234.27 143.238 234.443 142.948 234.534V228.629C143.239 228.718 143.496 228.89 143.69 229.124Z" fill="#FFA412"/>
<path d="M145.995 223.789V227.225C145.992 227.495 145.896 227.756 145.725 227.965C145.531 228.197 145.275 228.369 144.986 228.459C144.893 228.49 144.796 228.512 144.699 228.526C144.668 228.532 144.637 228.536 144.606 228.538H144.555H79.3276C78.4887 228.538 77.7975 227.98 77.7522 227.282C77.7522 227.261 77.7522 227.237 77.7522 227.215V223.779C77.7522 223.757 77.7522 223.734 77.7522 223.712C77.7956 223.014 78.4868 222.456 79.3276 222.456H144.419C144.513 222.456 144.606 222.462 144.699 222.476C144.797 222.491 144.893 222.514 144.986 222.545C145.275 222.635 145.531 222.807 145.725 223.04C145.9 223.25 145.995 223.515 145.995 223.789Z" fill="#FFB93E"/>
<path d="M114.034 228.548H79.1642C78.8147 228.556 78.4753 228.431 78.2146 228.198C77.954 227.965 77.7915 227.641 77.7601 227.292C77.7601 227.271 77.7601 227.247 77.7601 227.225V223.789C77.7601 223.767 77.7601 223.744 77.7601 223.722C77.7915 223.373 77.954 223.05 78.2146 222.817C78.4753 222.584 78.8147 222.458 79.1642 222.466H109.753C110.402 224.937 111.917 227.092 114.02 228.538L114.034 228.548Z" fill="#FFA412"/>
<path d="M138.077 222.467H137.336V228.551H138.077V222.467Z" fill="#FFA412"/>
<path d="M135.574 222.467H134.833V228.551H135.574V222.467Z" fill="#FFA412"/>
<path d="M132.571 222.467H131.83V228.551H132.571V222.467Z" fill="#FFA412"/>
<path d="M127.967 222.467H127.226V228.551H127.967V222.467Z" fill="#FFA412"/>
<path d="M123.101 222.467H122.36V228.551H123.101V222.467Z" fill="#FFA412"/>
<path d="M115.64 222.467H114.898V228.551H115.64V222.467Z" fill="#FFA412"/>
<path d="M108.653 222.467H107.911V228.551H108.653V222.467Z" fill="#FFA412"/>
<path d="M102.414 222.467H101.673V228.551H102.414V222.467Z" fill="#FFA412"/>
<path d="M140.46 222.467H139.719V228.551H140.46V222.467Z" fill="#FFA412"/>
<path d="M142.035 222.467H141.294V228.551H142.035V222.467Z" fill="#FFA412"/>
<path d="M143.556 222.467H142.814V228.551H143.556V222.467Z" fill="#FFA412"/>
<path d="M144.708 222.486V228.526C144.616 228.541 144.523 228.548 144.43 228.548H143.959V222.466H144.422C144.517 222.465 144.613 222.472 144.708 222.486Z" fill="#FFA412"/>
<path d="M145.726 223.05V227.963C145.532 228.196 145.276 228.368 144.986 228.46V222.545C145.276 222.638 145.533 222.814 145.726 223.05Z" fill="#FFA412"/>
<path d="M95.8592 279.815C107.939 267.721 107.939 248.113 95.8592 236.019C83.7791 223.925 64.1935 223.925 52.1134 236.019C40.0333 248.113 40.0333 267.721 52.1134 279.815C64.1935 291.909 83.7791 291.909 95.8592 279.815Z" fill="#E2810E"/>
<path d="M93.1584 279.815C105.239 267.721 105.239 248.113 93.1584 236.019C81.0784 223.925 61.4927 223.925 49.4126 236.019C37.3325 248.113 37.3325 267.721 49.4126 279.815C61.4927 291.909 81.0784 291.909 93.1584 279.815Z" fill="#FFB93E"/>
<path d="M71.2853 286.498C64.7648 286.498 58.446 284.234 53.4055 280.093C48.365 275.952 44.9147 270.189 43.6426 263.786C42.3704 257.384 43.355 250.737 46.4287 244.98C49.5023 239.223 54.4749 234.711 60.499 232.212C66.5231 229.714 73.2261 229.384 79.4659 231.279C85.7056 233.174 91.0961 237.177 94.7188 242.604C98.3414 248.032 99.9722 254.55 99.3331 261.046C98.6941 267.543 95.8248 273.617 91.2141 278.233C88.603 280.861 85.4972 282.945 82.0765 284.363C78.6557 285.782 74.9879 286.507 71.2853 286.498ZM71.2853 231.748C56.6735 231.748 44.7831 243.652 44.7831 258.281C44.7831 272.91 56.6813 284.814 71.2853 284.814C85.8893 284.814 97.7875 272.912 97.7875 258.281C97.7875 243.65 85.8991 231.748 71.2853 231.748Z" fill="#FFA412"/>
<path d="M75.1666 266.471C75.2407 265.925 75.2181 265.371 75.0997 264.833C74.9751 264.332 74.738 263.867 74.4065 263.472C74.0083 263.001 73.544 262.589 73.028 262.25C72.3432 261.798 71.6265 261.396 70.8835 261.047C69.5276 260.392 68.2058 259.668 66.9233 258.879C65.8334 258.214 64.8395 257.403 63.9695 256.468C63.1873 255.621 62.5915 254.618 62.2208 253.526C61.8505 252.44 61.7501 251.187 61.9195 249.766C62.0409 248.609 62.3996 247.489 62.973 246.476C63.5188 245.518 64.2603 244.686 65.149 244.035C66.0946 243.356 67.1536 242.851 68.2762 242.545C69.5471 242.198 70.863 242.047 72.1793 242.095L72.7307 237.444L76.4722 237.888L75.913 242.604C77.1604 242.906 78.3495 243.412 79.432 244.102C80.434 244.733 81.2991 245.559 81.9757 246.531C82.6523 247.503 83.1267 248.601 83.3705 249.76C83.6501 251.074 83.7027 252.426 83.5261 253.757L76.7716 252.954C76.9777 251.215 76.7466 249.869 76.0784 248.915C75.4101 247.96 74.4255 247.407 73.1245 247.255C72.5098 247.167 71.8843 247.194 71.2793 247.334C70.7875 247.449 70.3275 247.673 69.9323 247.988C69.5637 248.292 69.2677 248.675 69.0659 249.108C68.8493 249.573 68.7103 250.071 68.6543 250.581C68.5891 251.075 68.6097 251.576 68.7153 252.063C68.8329 252.543 69.0601 252.989 69.379 253.366C69.7824 253.839 70.252 254.251 70.7732 254.589C71.4897 255.063 72.2341 255.494 73.0024 255.878C74.4465 256.623 75.7528 257.367 76.9212 258.108C78.0113 258.781 79.005 259.6 79.8751 260.541C80.7027 261.426 81.3177 262.489 81.6733 263.648C82.0289 264.807 82.1157 266.032 81.9271 267.23C81.8057 268.41 81.4402 269.551 80.8538 270.582C80.301 271.531 79.5533 272.351 78.6601 272.989C77.7067 273.657 76.6386 274.143 75.5093 274.422C74.227 274.745 72.9058 274.885 71.5845 274.838L71.0725 279.162L67.3566 278.72L67.8666 274.418C66.6018 274.139 65.3762 273.705 64.2176 273.125C63.0867 272.567 62.0717 271.8 61.2263 270.864C60.3648 269.892 59.7245 268.744 59.3496 267.5C58.936 266.186 58.8323 264.661 59.0384 262.924L65.793 263.727C65.6621 264.602 65.7049 265.494 65.919 266.353C66.0942 267.016 66.4235 267.629 66.88 268.141C67.3089 268.608 67.8373 268.973 68.4259 269.208C69.0193 269.446 69.6418 269.605 70.277 269.679C70.9318 269.771 71.5973 269.753 72.2462 269.626C72.7771 269.522 73.2815 269.312 73.7291 269.009C74.1362 268.728 74.4732 268.357 74.7137 267.924C74.9575 267.474 75.1113 266.98 75.1666 266.471Z" fill="#FFA412"/>
<path d="M128.165 215.392C124.997 220.912 121.013 223.042 121.013 223.042H104.442C104.442 223.042 130.583 211.183 128.165 215.392Z" fill="#233862"/>
<path d="M115.438 258.095C115.24 258.314 115.109 258.584 115.06 258.875C115.012 259.166 115.048 259.465 115.164 259.736C115.558 260.83 116.866 262.05 118.384 263.271C118.581 263.426 118.75 263.568 118.9 263.7L119.016 263.805L119.105 263.886C120.519 265.191 119.987 265.491 122.529 268.14C125.426 271.159 127.421 271.212 127.988 270.938C128.468 270.703 127.494 269.102 126.413 267.302L126.255 267.04C126.111 266.802 125.968 266.557 125.826 266.319C124.558 264.15 124.884 263.137 125.184 259.913C125.428 257.295 129.254 245.282 129.254 245.282L123.701 244.324C123.701 244.324 122.027 253.89 120.186 255.365C119.201 256.153 118.096 256.153 117.151 256.745L116.954 256.869C116.396 257.208 115.887 257.621 115.438 258.095Z" fill="#FFB27D"/>
<path d="M115.438 258.096C115.24 258.314 115.109 258.585 115.06 258.876C115.012 259.166 115.048 259.465 115.164 259.736C115.649 260.828 116.923 262.043 118.388 263.259C118.585 263.419 118.748 263.565 118.9 263.701L119.016 263.805L119.105 263.886C120.519 265.191 119.987 265.491 122.529 268.141C125.426 271.159 127.421 271.212 127.988 270.938C128.468 270.704 127.494 269.103 126.413 267.303C124.385 266.511 122.603 265.196 121.247 263.492C119.502 261.264 118.339 258.399 117.151 256.739L116.954 256.863C116.396 257.205 115.886 257.619 115.438 258.096Z" fill="#233862"/>
<path d="M160.215 254.622C160.559 256.339 163.001 256.053 165.729 255.385C168.456 254.716 167.808 255.511 171.693 255.079C175.579 254.647 176.756 253.198 176.875 252.621C176.981 252.108 175.061 251.927 173.001 251.688C172.743 251.66 172.483 251.627 172.213 251.595C169.888 251.304 168.186 249.801 166.073 248.569C164.074 247.4 161.089 242.641 161.089 242.641L155.76 243.063C155.76 243.063 158.557 247.313 159.638 249.162C160.274 250.249 160.24 251.688 160.161 252.798C160.098 253.406 160.116 254.019 160.215 254.622Z" fill="#FFB27D"/>
<path d="M165.733 255.385C168.462 254.717 167.812 255.511 171.697 255.079C175.583 254.648 176.76 253.199 176.879 252.621C176.985 252.108 175.065 251.927 173.005 251.688L172.987 251.73C171.322 252.798 169.399 253.396 167.422 253.461C164.787 253.524 161.995 252.769 160.175 252.798C160.108 253.405 160.121 254.019 160.215 254.622C160.559 256.339 163.001 256.053 165.733 255.385Z" fill="#233862"/>
<path d="M139.798 220.514L134.815 233.932L128.317 251.451C127.156 251.539 125.989 251.432 124.863 251.136C123.307 250.687 121.515 249.508 121.515 249.508C121.515 249.508 123.321 230.697 126.69 219.897C127.553 217.125 128.52 214.884 129.587 213.622C134.811 207.443 139.798 220.514 139.798 220.514Z" fill="#233862"/>
<path d="M134.733 199.204C131.47 198.149 122.163 199.503 112.813 201.335L110.855 198.102L90.6628 196.524C90.6628 196.524 83.9988 211.311 87.6479 220.745C88.1835 222.125 89.5108 222.716 91.3264 222.744C91.3264 222.744 103.376 223.04 107.277 223.04C117.321 223.04 128.531 216.127 129.981 215.838C132.356 215.362 133.305 220.116 135.678 225.104C138.051 230.092 157.991 247.207 157.991 247.207C157.991 247.207 161.058 247.236 162.324 246.761C163.687 246.25 164.185 245.578 164.185 245.578C164.185 245.578 142.092 201.579 134.733 199.204Z" fill="#2B478B"/>
<path d="M108.711 138.735C107.539 138.036 106.191 137.688 104.828 137.731C104.183 137.742 103.538 137.699 102.9 137.603C95.2472 136.574 90.6411 147.707 90.3713 151.08C89.8711 157.297 86.5864 158.245 81.9626 162.139C72.6894 169.946 75.4089 179.019 80.4798 182.388C83.5203 184.411 88.8826 182.388 88.8826 182.388C88.9594 182.442 103.548 174.224 110.741 170.261C121.517 168.726 113.041 141.315 108.711 138.735Z" fill="#233862"/>
<path d="M104.711 166.887C104.743 166.909 101.167 168.127 98.7859 167.07C96.539 166.085 94.8474 162.378 94.873 162.376C95.893 162.329 97.0155 161.434 97.878 155.566L98.3132 155.724L105.627 158.358C105.627 158.358 105.097 160.708 104.755 162.944C104.465 164.817 104.312 166.621 104.711 166.887Z" fill="#FFB27D"/>
<path d="M105.627 158.359C105.627 158.359 105.097 160.709 104.755 162.944C100.554 162.187 98.9059 157.998 98.3131 155.725L105.627 158.359Z" fill="#ED975D"/>
<path d="M106.716 160.69C106.716 160.69 96.7103 159.345 97.6418 153.119C98.5732 146.893 97.9115 142.526 104.337 143.122C110.763 143.717 111.649 146.276 111.842 148.433C112.035 150.59 109.343 160.873 106.716 160.69Z" fill="#FFB27D"/>
<path d="M111.48 145.021C111.48 145.021 105.074 150.541 100.716 150.993C96.3577 151.444 94.7095 150.039 94.7095 150.039C96.4481 148.481 97.8483 146.581 98.8232 144.459C99.0453 143.96 99.3966 143.529 99.8408 143.211C100.285 142.893 100.806 142.7 101.35 142.651C104.461 142.381 110.357 142.259 111.48 145.021Z" fill="#233862"/>
<path d="M107.474 144.526C107.474 144.526 109.619 146.6 110.292 148.139C110.944 149.624 111.139 153.175 110.621 154.584C110.621 154.584 113.969 148.078 112.069 144.924C110.064 141.578 107.474 144.526 107.474 144.526Z" fill="#233862"/>
<path d="M113.136 181.644C112.834 201.923 113.053 197.686 110.838 199.61C110.304 200.074 108.803 200.35 106.828 200.48C100.617 200.892 89.6958 199.869 89.2842 198.719C87.8506 194.743 88.8628 193.507 87.6674 187.42C87.5414 186.772 87.3878 186.072 87.2066 185.309C86.2102 181.127 85.2374 179.706 88.782 172.989C91.988 166.905 95.3199 161.966 95.6193 162.145C104.077 167.173 104.761 162.948 104.761 162.948C104.761 162.948 113.283 171.753 113.136 181.644Z" fill="white"/>
<path d="M134.815 233.933L128.317 251.452C127.156 251.539 125.989 251.432 124.863 251.136C123.307 250.687 121.515 249.508 121.515 249.508C121.515 249.508 123.321 230.698 126.69 219.897L134.815 233.933Z" fill="#2B478B"/>
<path d="M104.755 162.943C104.755 162.943 113.459 164.422 114.481 168.174C115.503 171.926 121.517 193.981 121.517 193.981C121.517 193.981 117.092 194.77 115.048 192.731C113.004 190.693 107.935 173.743 107.935 173.743L104.755 162.943Z" fill="white"/>
<path d="M106.828 200.479C100.617 200.891 89.6958 199.868 89.2842 198.718C87.8506 194.742 88.8628 193.506 87.6674 187.42L90.6627 178.974C90.6627 178.974 90.1664 188.378 92.9372 190.852C95.7079 193.326 104.28 195.627 105.627 197.693C106.275 198.685 106.7 199.681 106.828 200.479Z" fill="#EBF3FF"/>
<path d="M99.7115 196.525C99.7115 196.525 105.838 195.159 106.828 195.703C107.819 196.247 110.233 198.231 110.534 198.921C110.836 199.611 108.333 198.396 107.52 198.177C106.992 198.036 105.603 198.519 104.916 198.749C102.025 199.713 100.253 199.216 100.253 199.216L99.7115 196.525Z" fill="#FFB27D"/>
<path d="M95.6076 162.14C95.6076 162.14 87.3801 162.646 84.5325 166.625C80.5231 172.222 72.5693 196.082 77.1281 199.264C82.26 202.848 100.489 200.202 100.489 200.202C100.489 200.202 101.096 197.363 100.253 195.989C99.4102 194.615 85.6924 192.397 85.0603 191.764C84.4282 191.131 92.9727 179.404 92.9727 177.504C92.9727 175.603 95.6076 162.14 95.6076 162.14Z" fill="white"/>
<path d="M107.124 197.409C107.124 197.409 108.408 199.067 108.829 199.264C109.041 199.38 109.282 199.432 109.522 199.414L108.656 197.855L107.124 197.409Z" fill="#FFB27D"/>
<path d="M106.828 195.703L110.57 197.517C110.497 197.607 110.401 197.677 110.293 197.719C110.184 197.761 110.067 197.775 109.952 197.757C109.493 197.736 108.333 197.312 108.333 197.312L106.828 195.703Z" fill="#FFB27D"/>
<path d="M108.829 201.806H138.356L147.239 179.691H117.758L108.829 201.806Z" fill="#F99746"/>
<path d="M138.703 200.945H99.7115V201.807H138.356L138.703 200.945Z" fill="#ED7D2B"/>
<path d="M130.902 190.748C131.125 189.972 130.676 189.343 129.9 189.343C129.491 189.365 129.099 189.512 128.776 189.763C128.453 190.014 128.213 190.358 128.09 190.748C127.868 191.537 128.317 192.156 129.093 192.156C129.501 192.134 129.894 191.987 130.217 191.735C130.541 191.484 130.78 191.14 130.902 190.748Z" fill="white"/>
<path d="M278.263 203.924C278.263 203.806 278.915 190.397 272.444 187.312L272.901 186.874C275.855 187.909 279.15 191.113 280.465 195.635C281.45 198.987 280.699 199.734 280.703 199.86L278.263 203.924Z" fill="#A4C8FC"/>
<path d="M261.367 177.366C261.367 177.366 260.629 184.266 264.236 187.198C267.844 190.13 274.435 187.987 274.435 187.987C274.435 187.987 275.176 181.086 271.566 178.156C267.956 175.227 261.367 177.366 261.367 177.366Z" fill="#A4C8FC"/>
<path d="M277.159 229.075C277.037 228.401 274.703 212.611 280.672 195.013C286.408 178.105 283.232 163.77 283.206 163.628H287.428C287.537 164.239 287.822 178.31 283.334 197.593C279.289 214.943 286.843 229.075 285.235 229.075H277.159Z" fill="#A4C8FC"/>
<path d="M286.022 182.458C286.044 182.369 288.059 170.798 293.478 169.483C291.056 169.799 287.978 171.536 286.257 174.769C284.977 177.172 285.424 177.853 285.4 177.949L286.022 182.458Z" fill="#A4C8FC"/>
<path d="M264.333 151.77C264.333 151.77 258.486 143.508 251.848 141.081C251.848 141.081 254.329 160.463 250.7 160.703C247.07 160.944 249.489 138.906 249.489 138.906C249.489 138.906 232.193 129.293 225.17 129.559C225.17 129.559 235.113 148.925 231.535 148.263C227.957 147.601 216.675 127.929 216.675 127.929C216.675 127.929 198.627 123.477 195.064 134.129C191.502 144.781 195.917 150.473 198.58 151.309C201.242 152.145 218.603 152.936 218.02 155.165C217.437 157.395 205.513 160.315 199.099 157.902C199.099 157.902 205.265 176.142 214.779 175.795C224.292 175.448 227.565 169.755 233.449 169.648C239.333 169.542 243.52 171.371 240.499 172.777C237.478 174.183 227.628 172.542 222.662 176.29C217.695 180.038 213.721 182.296 222.4 184.616C231.078 186.937 244.182 184.316 250.398 180.168C250.416 180.156 255.489 179.752 259.483 203.261C261.023 212.33 259.837 225.768 259.837 225.768L263.059 225.275C264.847 198.925 255.347 177.018 255.347 177.018C255.347 177.018 271.464 165.088 264.333 151.77Z" fill="#A4C8FC"/>
<path d="M317.042 186.549C317.042 186.549 297.623 178.381 304.573 163.52C304.573 163.52 310.427 154.216 317.483 151.196C317.483 151.196 315.929 172.356 319.88 172.401C323.83 172.447 319.913 148.698 319.913 148.698C319.913 148.698 338.101 137.263 345.732 137.131C345.732 137.131 336.083 158.715 339.929 157.786C343.775 156.858 354.846 134.864 354.846 134.864C354.846 134.864 374.154 128.973 378.642 140.313C383.13 151.653 378.68 158.086 375.84 159.147C373 160.208 354.225 162.09 354.987 164.47C355.75 166.85 368.853 169.318 375.665 166.323C375.665 166.323 370.05 186.462 359.714 186.648C349.377 186.833 345.496 180.851 339.111 181.082C332.727 181.313 328.292 183.543 331.65 184.889C335.007 186.236 345.592 183.876 351.197 187.649C356.801 191.423 361.24 193.633 351.969 196.659C342.697 199.685 325.512 200.405 321.276 193.473L317.042 186.549Z" fill="#D2E3FC"/>
<path d="M370.046 144.99C370.046 144.99 320.79 167.361 317.042 186.548C317.042 186.548 318.224 194.809 314.185 204.895L314.596 208.55C314.596 208.55 318.548 195.513 321.276 193.476C321.276 193.476 308.015 178.684 370.046 144.99Z" fill="#A4C8FC"/>
<path d="M314.185 204.896C314.185 204.896 307.655 217.778 313.791 231.86L315.76 231.086C315.76 231.086 311.973 215.234 315.185 206.684C318.397 198.133 314.185 204.896 314.185 204.896Z" fill="#A4C8FC"/>
<path d="M243.004 98.0648C250.962 106.542 246.822 123.381 246.822 123.381C246.822 123.381 229.777 126.473 221.813 117.995C213.849 109.517 217.995 92.6766 217.995 92.6766C217.995 92.6766 235.044 89.5853 243.004 98.0648Z" fill="#A4C8FC"/>
<path d="M243.004 98.0648C250.962 106.542 246.822 123.381 246.822 123.381L218 92.6766C218 92.6766 235.044 89.5853 243.004 98.0648Z" fill="#D2E3FC"/>
<path d="M345.645 130.361C341.492 135.177 332.109 133.882 332.109 133.882C332.109 133.882 329.458 124.775 333.611 119.959C337.764 115.142 347.146 116.438 347.146 116.438C347.146 116.438 349.798 125.544 345.645 130.361Z" fill="#A4C8FC"/>
<path d="M296.558 172.733C293.773 173.506 290.552 170.647 290.552 170.647C290.552 170.647 291.843 166.534 294.626 165.761C297.408 164.989 300.634 167.847 300.634 167.847C300.634 167.847 299.342 171.96 296.558 172.733Z" fill="#A4C8FC"/>
<path d="M247.393 82.3395C249.302 86.874 245.188 92.9325 245.188 92.9325C245.188 92.9325 237.98 91.649 236.072 87.1185C234.164 82.5879 238.278 76.5234 238.278 76.5234C238.278 76.5234 245.485 77.8089 247.393 82.3395Z" fill="#A4C8FC"/>
<path d="M315.749 150.706C332.334 134.102 332.334 107.181 315.749 90.5768C299.164 73.9725 272.274 73.9725 255.689 90.5768C239.104 107.181 239.104 134.102 255.689 150.706C272.274 167.311 299.164 167.311 315.749 150.706Z" fill="#E2810E"/>
<path d="M312.074 151.169C328.659 134.565 328.659 107.644 312.074 91.0397C295.489 74.4354 268.599 74.4354 252.014 91.0397C235.429 107.644 235.429 134.565 252.014 151.169C268.599 167.774 295.489 167.774 312.074 151.169Z" fill="#FFB93E"/>
<path d="M286.938 160.038C278.055 161.158 269.059 159.16 261.483 154.384C253.906 149.609 248.218 142.35 245.388 133.847C242.558 125.343 242.76 116.12 245.961 107.749C249.162 99.3776 255.162 92.3766 262.941 87.9386C270.72 83.5006 279.795 81.9002 288.62 83.4102C297.445 84.9201 305.474 89.4468 311.339 96.2191C317.204 102.991 320.542 111.59 320.785 120.55C321.027 129.511 318.159 138.278 312.668 145.358C309.562 149.386 305.688 152.758 301.272 155.278C296.855 157.798 291.983 159.416 286.938 160.038ZM277.558 85.4587C257.653 87.9685 243.49 106.225 246.003 126.153C248.516 146.081 266.743 160.261 286.651 157.745C306.558 155.229 320.719 136.981 318.206 117.053C315.693 97.1243 297.466 82.9509 277.558 85.4587Z" fill="#FFA412"/>
<path d="M288.793 132.089C288.802 131.333 288.676 130.581 288.421 129.869C288.164 129.208 287.76 128.615 287.239 128.134C286.613 127.561 285.908 127.08 285.146 126.707C284.135 126.209 283.09 125.785 282.019 125.437C280.059 124.774 278.133 124.01 276.251 123.15C274.65 122.432 273.154 121.497 271.806 120.372C270.596 119.353 269.613 118.091 268.919 116.668C268.23 115.251 267.879 113.561 267.866 111.597C267.834 109.999 268.13 108.411 268.736 106.932C269.322 105.539 270.194 104.284 271.296 103.25C272.468 102.163 273.825 101.295 275.302 100.687C276.974 99.9965 278.74 99.5638 280.542 99.4032L280.497 92.972L285.666 92.9365L285.713 99.4564C287.464 99.6539 289.169 100.139 290.762 100.892C292.234 101.579 293.554 102.556 294.642 103.764C295.73 104.971 296.565 106.385 297.097 107.922C297.701 109.664 298.004 111.496 297.991 113.34L288.655 113.407C288.638 111.003 288.092 109.209 287.017 108.025C285.942 106.84 284.511 106.255 282.724 106.268C281.871 106.254 281.023 106.397 280.223 106.692C279.574 106.935 278.986 107.319 278.502 107.816C278.052 108.293 277.716 108.865 277.517 109.49C277.303 110.16 277.198 110.861 277.208 111.566C277.204 112.25 277.318 112.931 277.547 113.576C277.789 114.21 278.174 114.778 278.673 115.237C279.304 115.811 280.014 116.292 280.782 116.664C281.84 117.187 282.928 117.647 284.039 118.044C286.14 118.809 288.043 119.598 289.75 120.41C291.346 121.141 292.836 122.086 294.179 123.217C295.388 124.245 296.37 125.511 297.066 126.938C297.752 128.356 298.104 130.036 298.119 131.979C298.157 133.608 297.855 135.226 297.233 136.732C296.644 138.112 295.769 139.352 294.667 140.37C293.487 141.443 292.118 142.288 290.63 142.864C288.939 143.523 287.164 143.94 285.357 144.104L285.4 150.081L280.262 150.119L280.221 144.169C278.449 144.007 276.704 143.626 275.026 143.035C273.391 142.469 271.878 141.6 270.566 140.472C269.225 139.296 268.156 137.842 267.433 136.212C266.645 134.503 266.243 132.443 266.225 130.031L275.564 129.964C275.573 131.387 275.78 132.57 276.186 133.513C276.538 134.387 277.091 135.166 277.801 135.786C278.465 136.347 279.246 136.751 280.087 136.969C280.936 137.193 281.812 137.303 282.69 137.296C283.594 137.306 284.494 137.167 285.353 136.886C286.059 136.654 286.71 136.281 287.269 135.79C287.774 135.337 288.168 134.774 288.419 134.143C288.677 133.49 288.804 132.792 288.793 132.089Z" fill="#FFA412"/>
<path d="M319.602 224.97L319.598 225.003L318.753 238.029L315.608 286.387H256.828L253.366 238.69L252.413 225.545L252.372 224.97H319.602Z" fill="#739AF0"/>
<path d="M319.598 225.003L318.751 238.027C314.322 236.483 302.013 232.773 285.985 232.773C265.739 232.773 253.366 238.687 253.366 238.687L252.413 225.543L319.598 225.003Z" fill="#618DD8"/>
<path d="M321.644 231.855H250.239L249.422 223.543H322.552L321.644 231.855Z" fill="#739AF0"/>
<path d="M316.512 288.968H255.566L254.869 286.074H317.286L316.512 288.968Z" fill="#618DD8"/>
<path d="M211.083 262.029C211.027 261.725 209.978 254.622 212.658 246.706C215.238 239.102 213.808 232.653 213.798 232.588H215.696C215.744 232.864 215.876 239.193 213.855 247.867C212.036 255.673 215.431 262.029 214.71 262.029H211.083Z" fill="#A4C8FC"/>
<path d="M215.07 241.06C215.07 241.021 215.986 235.816 218.418 235.225C217.329 235.367 215.945 236.147 215.171 237.6C214.596 238.683 214.796 238.98 214.787 239.032L215.07 241.06Z" fill="#A4C8FC"/>
<path d="M210.564 239.843C210.564 239.843 208.18 235.963 205.269 234.682C205.269 234.682 205.824 243.455 204.186 243.457C202.548 243.459 204.275 233.637 204.275 233.637C204.275 233.637 196.792 228.82 193.629 228.736C193.629 228.736 197.532 237.718 195.945 237.318C194.357 236.917 189.864 227.758 189.864 227.758C189.864 227.758 181.89 225.236 179.984 229.915C178.078 234.593 179.893 237.276 181.065 237.728C182.237 238.179 190.005 239.039 189.679 240.023C189.352 241.006 183.915 241.972 181.106 240.703C181.106 240.703 183.345 249.07 187.627 249.18C191.908 249.291 193.534 246.84 196.185 246.962C198.836 247.085 200.655 248.027 199.259 248.571C197.863 249.115 193.489 248.092 191.152 249.63C188.814 251.168 186.963 252.067 190.793 253.36C194.623 254.653 200.578 253.857 203.489 252.177C203.489 252.177 205.785 252.138 206.898 262.806C207.327 266.918 206.407 272.92 206.407 272.92L207.867 272.791C209.442 261.015 205.801 250.907 205.801 250.907C205.801 250.907 213.38 246.028 210.564 239.843Z" fill="#A4C8FC"/>
<path d="M219.808 236.684C218.556 237.031 217.106 235.746 217.106 235.746C217.106 235.746 217.687 233.896 218.94 233.547C220.192 233.198 221.642 234.486 221.642 234.486C221.642 234.486 221.061 236.337 219.808 236.684Z" fill="#A4C8FC"/>
<path d="M234.215 208.412C229.842 211.279 229.883 219.08 229.883 219.08C229.883 219.08 237.01 222.235 241.383 219.364C245.757 216.494 245.716 208.696 245.716 208.696C245.716 208.696 238.589 205.544 234.215 208.412Z" fill="#A4C8FC"/>
<path d="M234.215 208.412C229.842 211.279 229.883 219.08 229.883 219.08L245.72 208.696C245.72 208.696 238.589 205.544 234.215 208.412Z" fill="#D2E3FC"/>
<path d="M233.953 201.074C232.642 202.848 233.8 205.939 233.8 205.939C233.8 205.939 237.086 206.137 238.398 204.362C239.709 202.588 238.552 199.498 238.552 199.498C238.552 199.498 235.265 199.293 233.953 201.074Z" fill="#A4C8FC"/>
<path d="M228.441 226.778C235.902 219.309 235.902 207.199 228.441 199.73C220.981 192.261 208.885 192.261 201.424 199.73C193.964 207.199 193.964 219.309 201.424 226.778C208.885 234.247 220.981 234.247 228.441 226.778Z" fill="#E2810E"/>
<path d="M214.504 232.568C225.032 231.881 233.01 222.779 232.324 212.238C231.638 201.698 222.546 193.71 212.018 194.397C201.49 195.085 193.511 204.186 194.198 214.727C194.884 225.267 203.975 233.255 214.504 232.568Z" fill="#FFB93E"/>
<path d="M215.482 230.976C211.486 231.48 207.44 230.581 204.032 228.433C200.624 226.285 198.066 223.02 196.793 219.195C195.52 215.37 195.611 211.221 197.051 207.456C198.49 203.691 201.19 200.542 204.688 198.546C208.187 196.549 212.269 195.83 216.239 196.509C220.208 197.188 223.82 199.224 226.458 202.271C229.096 205.317 230.597 209.185 230.706 213.215C230.815 217.245 229.525 221.189 227.055 224.373C225.658 226.185 223.916 227.702 221.929 228.835C219.942 229.969 217.751 230.696 215.482 230.976ZM211.268 197.43C208.056 197.836 205.037 199.185 202.591 201.308C200.146 203.431 198.384 206.233 197.529 209.358C196.674 212.484 196.764 215.793 197.787 218.868C198.811 221.942 200.722 224.644 203.279 226.631C205.836 228.618 208.924 229.801 212.153 230.031C215.381 230.261 218.606 229.527 221.418 227.923C224.23 226.318 226.504 223.914 227.952 221.016C229.4 218.118 229.957 214.854 229.552 211.639C229.005 207.329 226.773 203.413 223.345 200.749C219.917 198.085 215.573 196.892 211.268 197.43Z" fill="#FFA412"/>
<path d="M216.315 218.405C216.319 218.064 216.263 217.726 216.149 217.405C216.035 217.106 215.854 216.836 215.62 216.617C215.339 216.358 215.021 216.143 214.678 215.976C214.224 215.751 213.753 215.56 213.27 215.404C212.389 215.105 211.524 214.761 210.677 214.375C209.956 214.052 209.284 213.632 208.678 213.125C208.133 212.667 207.691 212.099 207.378 211.459C206.778 210.067 206.749 208.494 207.298 207.08C207.56 206.453 207.952 205.889 208.448 205.424C208.974 204.934 209.585 204.543 210.249 204.269C211.003 203.957 211.8 203.762 212.613 203.691L212.591 200.799L214.917 200.781L214.938 203.715C215.726 203.804 216.493 204.022 217.209 204.362C217.871 204.669 218.464 205.107 218.953 205.649C219.443 206.191 219.819 206.826 220.058 207.516C220.33 208.299 220.467 209.123 220.462 209.953L216.262 209.982C216.254 208.902 216.008 208.095 215.525 207.561C215.28 207.296 214.981 207.088 214.647 206.952C214.313 206.816 213.953 206.755 213.593 206.773C213.21 206.769 212.828 206.836 212.469 206.97C212.176 207.078 211.912 207.25 211.695 207.475C211.492 207.689 211.34 207.946 211.25 208.228C211.153 208.53 211.106 208.845 211.11 209.162C211.109 209.47 211.16 209.775 211.262 210.065C211.371 210.35 211.545 210.606 211.77 210.812C212.054 211.071 212.373 211.288 212.719 211.455C213.195 211.69 213.684 211.896 214.184 212.072C215.125 212.418 215.983 212.772 216.756 213.135C217.474 213.464 218.144 213.89 218.749 214.399C219.324 214.878 219.783 215.482 220.09 216.165C220.397 216.848 220.544 217.593 220.521 218.342C220.54 219.074 220.406 219.802 220.127 220.479C219.862 221.103 219.467 221.663 218.969 222.123C218.438 222.606 217.823 222.986 217.154 223.245C216.396 223.54 215.6 223.728 214.791 223.803L214.808 226.492L212.498 226.508L212.479 223.832C211.682 223.758 210.898 223.587 210.143 223.322C209.408 223.067 208.727 222.675 208.136 222.166C207.534 221.637 207.054 220.984 206.728 220.25C206.352 219.373 206.167 218.425 206.185 217.47L210.385 217.441C210.372 217.987 210.467 218.53 210.665 219.04C210.822 219.434 211.071 219.785 211.392 220.063C211.69 220.316 212.041 220.498 212.42 220.595C212.805 220.696 213.203 220.746 213.601 220.743C214.008 220.747 214.412 220.685 214.798 220.558C215.116 220.454 215.409 220.286 215.659 220.065C215.886 219.862 216.064 219.609 216.177 219.325C216.283 219.031 216.33 218.718 216.315 218.405Z" fill="#FFA412"/>
<path d="M230.174 260.182L230.172 260.197L229.792 266.055L228.378 287.807H201.937L200.382 266.353L199.952 260.44L199.933 260.182H230.174Z" fill="#B4C9F7"/>
<path d="M230.172 260.197L229.792 266.055C227.799 265.361 222.264 263.689 215.052 263.689C205.947 263.689 200.379 266.35 200.379 266.35L199.952 260.436L230.172 260.197Z" fill="#9BB8EA"/>
<path d="M231.092 263.279H198.976L198.607 259.539H231.5L231.092 263.279Z" fill="#B4C9F7"/>
<path d="M228.784 288.968H201.37L201.057 287.667H229.132L228.784 288.968Z" fill="#B4C9F7"/>
<path d="M339.117 177.156C339.117 177.156 336.098 176.565 335.409 177.156C334.72 177.748 331.443 181.076 332.144 182.17C332.845 183.264 336.207 181.265 336.906 181.076C337.605 180.887 339.558 180.124 339.558 180.124L339.117 177.156Z" fill="#FFB27D"/>
<path d="M371.202 284.03L374.44 285.236C374.44 285.236 388.498 265.718 390.229 248.54C390.538 245.475 390.426 242.504 389.766 239.759C389.766 239.759 389.904 238.971 390.145 237.59C390.255 236.942 390.393 236.163 390.548 235.268C391.005 232.646 391.635 229.06 392.354 224.975C394.008 215.574 396.151 203.558 397.815 194.725L396.944 194.444L387.516 191.392L385.564 185.189L378.538 183.338C378.538 183.338 376.962 186.412 375.566 200.934C375.306 202.838 375.072 204.938 374.895 207.217C374.248 215.695 374.472 224.217 375.562 232.65C375.885 235.173 376.297 237.776 376.797 240.457C377.167 242.429 377.222 245.094 377.067 248.166C376.35 262.211 371.202 284.03 371.202 284.03Z" fill="#2B478B"/>
<path d="M374.887 207.217L390.144 237.579C390.255 236.93 390.393 236.151 390.548 235.256C391.005 232.634 391.635 229.048 392.354 224.963C394.008 215.563 396.151 203.546 397.815 194.714L396.944 194.432L387.516 191.392L385.564 185.189L378.538 183.338C378.538 183.338 376.962 186.412 375.566 200.934C375.306 202.838 375.064 204.938 374.887 207.217Z" fill="#233862"/>
<path d="M412.896 282.883L409.434 284.171C409.434 284.171 394.403 263.338 392.553 245.002C392.222 241.73 392.342 238.558 393.047 235.629C393.047 235.629 392.9 234.787 392.643 233.314C392.525 232.622 392.378 231.791 392.211 230.835C391.723 228.036 391.049 224.208 390.281 219.848C388.512 209.814 386.221 196.988 384.442 187.56L385.373 187.259L395.454 184.002L397.54 177.381L405.053 175.405C405.053 175.405 406.737 178.686 408.23 194.187C408.508 196.22 408.758 198.461 408.948 200.894C409.639 209.943 409.4 219.04 408.234 228.041C407.889 230.734 407.449 233.512 406.914 236.374C406.518 238.478 406.459 241.324 406.626 244.602C407.392 259.594 412.896 282.883 412.896 282.883Z" fill="#2B478B"/>
<path d="M408.585 200.59L393.092 231.515C392.981 230.854 392.841 230.061 392.683 229.149C392.219 226.478 391.579 222.826 390.849 218.665C389.169 209.091 386.994 196.851 385.304 187.855L386.188 187.568L395.762 184.472L397.743 178.154L404.878 176.269C404.878 176.269 406.477 179.399 407.895 194.191C408.159 196.13 408.405 198.269 408.585 200.59Z" fill="#233862"/>
<path d="M339.117 177.157L339.558 180.124C339.558 180.124 339.755 180.124 340.098 180.099C341.175 180.026 343.796 179.878 346.76 179.56C351.218 179.119 356.51 178.334 358.617 177.035C361.825 175.063 367.084 169.064 370.521 163.057C370.611 162.914 370.692 162.767 370.765 162.615C372.553 159.427 373.802 156.263 373.9 153.743C373.976 152.389 373.836 151.031 373.485 149.721C373.127 148.403 372.511 147.169 371.671 146.092C371.578 145.937 371.462 145.797 371.328 145.676C370.681 144.875 369.894 144.2 369.005 143.682C368.414 143.438 367.78 143.732 367.12 144.443V144.467C366.447 145.221 365.878 146.063 365.428 146.969C365.405 146.993 365.381 147.018 365.381 147.042C365.257 147.263 365.135 147.509 364.987 147.777C364.946 147.83 364.914 147.888 364.891 147.951C364.622 148.515 364.352 149.103 364.081 149.715C361.068 156.288 357.861 166.245 355.19 169.212C354.04 170.485 348.772 172.987 344.584 174.852C341.567 176.175 339.117 177.157 339.117 177.157Z" fill="#FFB27D"/>
<path d="M370.294 150.452C372.151 151.315 374.394 151.903 377.108 152.051C387.283 152.609 389.591 143.68 390.013 137.753C388.892 137.365 387.703 137.214 386.521 137.312C385.8 137.351 385.046 137.426 384.426 137.509C383.181 136.858 380.946 133.696 379.654 128.408L379.215 128.605L371.874 132.059C371.874 132.059 372.662 134.451 373.231 136.74C373.68 138.532 374.001 140.261 373.731 140.746C373.154 140.981 372.807 141.129 372.807 141.129C371.674 144.149 370.833 147.271 370.294 150.452Z" fill="#FFB27D"/>
<path d="M367.748 157.127C367.825 157.324 367.91 157.521 368.002 157.732C370.58 163.288 375.35 186.301 375.35 186.301C374.67 190.442 406.409 185.489 406.491 181.722C407.608 177.727 402.525 171.31 399.658 168.09C399.3 167.687 398.978 167.253 398.695 166.793C397.983 165.64 397.538 164.342 397.395 162.994C396.832 157.653 397.047 152.649 397.001 149.605C396.44 149.189 395.899 148.817 395.395 148.44C394.695 147.959 394.041 147.415 393.439 146.816C392.886 146.224 392.541 145.633 392.5 144.968C392.473 144.451 392.487 143.932 392.541 143.417C392.565 143.17 392.596 142.926 392.634 142.679C392.921 140.982 393.416 139.327 394.107 137.75C391.377 136.644 386.523 137.303 386.523 137.303C386.523 137.303 386.523 137.573 386.523 138.015C386.539 139.789 386.523 144.347 385.956 145.211C385.245 146.285 372.24 150.991 371.553 149.534C370.866 148.077 372.734 141.382 372.797 141.128C368.441 142.841 366.89 144.282 366.89 144.282C369.521 145.98 365.72 151.744 367.748 157.127Z" fill="#F99746"/>
<path d="M376.507 109.129C376.525 108.687 376.866 103.93 384.105 103.682C384.105 103.682 380.544 104.106 379.93 105.673C379.93 105.673 382.354 103.737 384.327 104.36C386.301 104.983 387.462 108.445 387.478 109.584C387.494 110.724 386.391 114.393 385.139 114.71C384.638 114.812 384.123 114.812 383.622 114.71C383.979 115.27 384.304 115.85 384.595 116.447C387.482 122.384 384.505 128.186 382.059 127.545C380.483 127.135 380.046 129.814 380.046 129.814L364.808 117.463C364.808 117.463 370.401 105.868 376.507 109.129Z" fill="#2C3A64"/>
<path d="M371.874 132.062C371.874 132.062 372.662 134.451 373.229 136.742C377.52 135.543 378.823 131.025 379.215 128.607L371.874 132.062Z" fill="#ED985F"/>
<path d="M370.974 134.591C370.974 134.591 381.24 132.214 379.662 125.836C378.085 119.458 378.347 114.856 371.724 116.104C365.102 117.352 364.438 120.103 364.438 122.36C364.438 124.617 368.258 135.047 370.974 134.591Z" fill="#FFB27D"/>
<path d="M363.865 118.738C364.97 116.427 366.267 116.55 367.081 116.964C371.905 112.496 376.636 116.145 376.636 116.145C378.457 120.55 382.403 122.35 382.403 122.35C382.403 122.35 380.828 123.966 376.255 123.927C374.859 123.915 373.455 123.274 372.179 122.389C373.773 123.96 375.574 125.305 377.532 126.388C371.809 125.291 367.973 118.659 367.579 117.955C367.095 118.671 366.167 120.197 366.09 121.484C365.984 123.235 366.584 126.634 365.584 126.764C365.584 126.766 362.211 122.204 363.865 118.738Z" fill="#2C3A64"/>
<path d="M366.894 144.277C366.894 144.277 364.422 148.593 364.052 149.705C364.052 149.705 367.258 149.581 368.554 152.049C368.554 152.049 368.863 144.859 366.894 144.277Z" fill="#F99746"/>
<path d="M383.894 178.578C390.154 178.511 395.456 172.003 398.695 166.802C397.983 165.649 397.538 164.351 397.395 163.003C396.832 157.662 397.047 152.658 397.001 149.614C396.44 149.198 395.899 148.825 395.395 148.449C394.695 147.967 394.041 147.424 393.439 146.824C388.303 155.501 375.407 178.666 383.894 178.578Z" fill="#ED7D2B"/>
<path d="M360.232 181.986L361.09 185.125C361.09 185.125 362.167 184.928 363.883 184.611C364.397 184.512 364.69 184.439 364.69 184.439C366.068 184.169 367.703 183.802 369.491 183.41H369.517C372.577 182.673 376.015 181.791 378.898 180.809C380.93 180.098 382.695 179.339 383.894 178.578C384.014 178.504 384.128 178.422 384.237 178.333C387.102 176.249 390.507 170.118 393.153 163.547C393.52 162.64 393.862 161.733 394.207 160.85C395.361 157.815 396.295 154.701 396.999 151.532C397.345 150.074 397.566 148.588 397.659 147.092C397.692 146.677 397.7 146.259 397.685 145.842C397.636 138.731 394.109 137.759 394.109 137.759C394.036 137.735 393.961 137.71 393.862 137.686C393.25 137.588 392.614 138.004 391.952 138.814C391.119 139.819 390.239 141.462 389.331 143.449C387.935 146.603 386.466 150.708 385.095 154.779C384.335 157.009 383.601 159.241 382.866 161.301C382.449 162.551 382.033 163.728 381.641 164.808C380.881 166.869 380.196 168.535 379.583 169.589C379.19 170.276 378.065 171.234 376.57 172.312C373.973 174.201 370.178 176.482 366.87 178.345C365.491 179.134 364.202 179.841 363.128 180.429C361.384 181.377 360.232 181.986 360.232 181.986Z" fill="#FFB27D"/>
<path d="M389.341 143.448C394.056 142.147 397.693 145.832 397.693 145.832C397.634 138.734 394.105 137.76 394.105 137.76C392.685 137.173 391.039 139.635 389.341 143.448Z" fill="#F99746"/>
<path d="M398.663 289.469H414.964C414.964 289.469 415.358 286.983 414.503 285.094C413.688 283.284 412.41 282.46 412.715 280.27C411.679 281.338 409.992 282.533 407.634 282.215C407.347 282.685 405.772 285.192 404.807 285.886C403.741 286.657 398.991 286.379 398.663 289.469Z" fill="#233862"/>
<path d="M361.072 289.469H377.376C377.376 289.469 377.984 286.866 376.915 285.094C375.968 283.517 376.324 282.635 377.031 281.348C376.166 281.722 375.228 281.899 374.286 281.864C373.475 281.819 372.614 281.45 371.862 281.011C371.161 281.813 368.156 285.222 367.217 285.896C366.151 286.657 361.401 286.379 361.072 289.469Z" fill="#233862"/>
<path d="M359.263 196.531L355.389 187.068C355.146 186.477 354.695 185.995 354.121 185.713C353.548 185.432 352.892 185.369 352.276 185.538C351.076 183.241 349.342 181.268 347.221 179.783C345.11 178.328 342.739 177.525 340.399 177.535C339.15 177.538 337.914 177.783 336.758 178.257C331.244 180.516 328.783 187.484 330.803 194.327L330.502 194.449C330.502 194.449 329.561 194.384 327.981 194.384C322.993 194.384 311.652 195.048 303.694 200.58C303.375 200.958 303.193 201.433 303.176 201.927C303.166 202.233 303.223 202.538 303.344 202.82C303.344 202.82 316.116 194.54 327.928 203.049C328.654 203.575 329.359 204.058 330.043 204.498L331.102 207.088C331.955 209.154 333.589 210.797 335.648 211.66C337.707 212.522 340.023 212.534 342.091 211.692L352.91 207.254L355.165 206.329C357.003 205.57 358.465 204.113 359.233 202.277C360.001 200.441 360.012 198.375 359.263 196.531ZM338.284 188.87L333.877 190.679C333.304 190.916 332.835 191.351 332.556 191.906C332.278 192.46 332.207 193.096 332.359 193.698L331.886 193.895C330.094 187.661 332.28 181.374 337.203 179.357C337.882 179.077 338.594 178.888 339.322 178.795C341.587 178.497 343.948 179.107 346.069 180.431C348.224 181.809 349.987 183.72 351.189 185.979L350.537 186.245C350.223 185.711 349.727 185.308 349.14 185.109C348.553 184.911 347.915 184.93 347.341 185.163L342.932 186.973C342.767 186.572 342.487 186.23 342.127 185.989C341.767 185.748 341.344 185.62 340.911 185.62C340.632 185.622 340.355 185.676 340.096 185.78L339.486 186.033C338.951 186.25 338.525 186.671 338.299 187.203C338.074 187.734 338.069 188.334 338.284 188.87Z" fill="#C94C43"/>
<path d="M330.043 204.499C329.358 204.052 328.653 203.569 327.928 203.05C316.113 194.541 303.344 202.821 303.344 202.821C303.223 202.54 303.166 202.235 303.176 201.928C304.963 200.745 311.664 196.828 319.968 198.169C329.696 199.74 331.457 201.092 330.043 204.499Z" fill="#B23B38"/>
<path d="M355.165 206.331L352.91 207.256C356.289 205.409 352.105 197.595 349.657 192.45C347.209 187.304 343.505 189.652 343.505 189.652C342.656 187.925 340.838 188.02 340.838 188.02C340.744 186.356 339.476 186.021 339.476 186.021L340.086 185.768C340.345 185.664 340.622 185.61 340.901 185.609C341.334 185.608 341.757 185.736 342.117 185.977C342.477 186.218 342.757 186.56 342.922 186.961L347.331 185.151C347.905 184.918 348.543 184.899 349.13 185.097C349.717 185.296 350.213 185.699 350.527 186.234L351.179 185.967C349.978 183.708 348.214 181.797 346.059 180.419C343.938 179.095 341.577 178.485 339.312 178.783C339.741 178.434 340.105 178.012 340.389 177.537C342.729 177.537 345.1 178.326 347.211 179.785C349.332 181.27 351.066 183.243 352.266 185.54C352.882 185.371 353.538 185.434 354.112 185.715C354.685 185.997 355.136 186.479 355.379 187.069L359.253 196.533C360.002 198.375 359.993 200.44 359.227 202.276C358.461 204.112 357.001 205.57 355.165 206.331Z" fill="#B23B38"/>
<path d="M350.1 185.029C351.675 185.689 353.871 187.986 357.4 186.606C359.523 185.809 361.693 185.146 363.898 184.619C364.412 184.52 364.706 184.447 364.706 184.447L363.31 180.376C363.255 180.4 363.197 180.416 363.138 180.425C362.232 180.622 357.624 181.608 355.472 181.111C353.048 180.547 348.973 183.465 348.973 183.465C348.973 183.465 348.524 184.39 350.1 185.029Z" fill="#FFB27D"/>
<path d="M305.837 209.656C305.837 208.183 303.174 203.637 303.174 203.637C303.174 203.637 300.51 208.183 300.51 209.656C300.486 210.02 300.537 210.386 300.659 210.73C300.782 211.074 300.974 211.389 301.223 211.656C301.472 211.922 301.773 212.135 302.108 212.28C302.443 212.426 302.804 212.501 303.169 212.501C303.533 212.501 303.894 212.426 304.229 212.28C304.564 212.135 304.865 211.922 305.114 211.656C305.364 211.389 305.555 211.074 305.678 210.73C305.801 210.386 305.851 210.02 305.827 209.656H305.837Z" fill="#AFCDFB"/>
<path d="M378.171 33.0327L374.263 33.8863L374.17 33.908C373.941 33.9582 373.739 34.0911 373.602 34.2814C373.465 34.4717 373.403 34.7059 373.428 34.9391L373.78 38.2651C373.784 38.3189 373.784 38.373 373.78 38.4268C373.768 38.6103 373.703 38.7862 373.592 38.9327C373.481 39.0792 373.329 39.1898 373.156 39.2509C371.065 39.9944 369.145 41.1486 367.506 42.6458C367.438 42.7049 367.364 42.7552 367.283 42.7957C367.133 42.868 366.966 42.9001 366.799 42.8887C366.633 42.8773 366.472 42.8228 366.332 42.7306L364.02 41.1711C363.872 41.0738 363.699 41.0192 363.522 41.0132C363.345 41.0073 363.169 41.0504 363.014 41.1376C362.918 41.1948 362.831 41.2666 362.756 41.3506L360.123 44.4794C359.968 44.6676 359.889 44.9066 359.9 45.1502C359.911 45.3938 360.011 45.6247 360.182 45.7983L362.807 48.4224C362.934 48.549 363.021 48.7088 363.06 48.8833C363.099 49.0578 363.088 49.2398 363.028 49.4082C362.855 49.907 362.701 50.4117 362.573 50.9322C362.336 51.8887 362.184 52.8646 362.12 53.8481C362.109 54.044 362.038 54.2317 361.917 54.3861C361.795 54.5404 361.63 54.654 361.443 54.7116L357.845 55.8275L357.664 55.8847C357.438 55.9539 357.247 56.1055 357.128 56.3093C357.009 56.5131 356.971 56.7542 357.022 56.9848L357.89 60.987C357.943 61.2221 358.08 61.4297 358.275 61.5707C358.47 61.7116 358.71 61.7761 358.95 61.7519L362.648 61.3576C362.847 61.3359 363.049 61.3778 363.223 61.4773C363.397 61.5767 363.536 61.7287 363.619 61.9116C364.347 63.4813 365.315 64.9285 366.486 66.2017C366.63 66.361 366.717 66.5642 366.732 66.7788C366.747 66.9934 366.689 67.2068 366.569 67.3846L364.727 70.1329C364.596 70.3338 364.542 70.5759 364.576 70.8137C364.61 71.0514 364.73 71.2686 364.913 71.4243L368.048 74.072C368.226 74.2229 368.454 74.3012 368.687 74.2913C368.92 74.2815 369.141 74.1842 369.306 74.0188L372.39 70.9334C372.519 70.8059 372.68 70.7165 372.857 70.6751C373.033 70.6337 373.218 70.6419 373.39 70.6988C373.823 70.8447 374.265 70.9761 374.715 71.0931C375.549 71.3008 376.398 71.4438 377.254 71.5209C377.44 71.5352 377.619 71.6058 377.764 71.7234C377.91 71.8409 378.017 71.9999 378.071 72.1794L379.406 76.5167C379.477 76.7456 379.631 76.9395 379.838 77.0603C380.044 77.1811 380.289 77.22 380.523 77.1693L384.534 76.2979C384.739 76.2511 384.924 76.1383 385.059 75.9766C385.194 75.815 385.273 75.6134 385.282 75.4028C385.286 75.3569 385.286 75.3108 385.282 75.2648L384.849 71.1581C384.827 70.9721 384.861 70.7838 384.946 70.6168C385.031 70.4498 385.163 70.3117 385.326 70.2197C385.354 70.2022 385.384 70.1871 385.414 70.1743C385.508 70.1373 385.598 70.0945 385.686 70.0462C386.767 69.5486 387.792 68.9365 388.742 68.2205C388.898 68.1018 389.087 68.0356 389.283 68.0314C389.479 68.0271 389.671 68.0851 389.831 68.1969L392.732 70.1428C392.931 70.2758 393.173 70.3305 393.41 70.2963C393.647 70.2621 393.863 70.1414 394.016 69.9575L394.607 69.2635L396.639 66.8306C396.794 66.647 396.875 66.4118 396.865 66.1716C396.855 65.9314 396.755 65.7037 396.586 65.5333L394 62.9467C393.866 62.8126 393.777 62.6402 393.744 62.4532C393.711 62.2662 393.737 62.0737 393.817 61.9018C394.251 60.9502 394.595 59.9601 394.845 58.9445C395.032 58.184 395.163 57.4112 395.239 56.6319L395.995 56.3993L399.093 55.4371C399.278 55.3815 399.44 55.2696 399.559 55.1169C399.677 54.9642 399.745 54.7785 399.752 54.5854C399.756 54.5032 399.749 54.4209 399.729 54.341L398.862 50.3092C398.81 50.0803 398.675 49.8784 398.485 49.7413C398.294 49.6042 398.06 49.5412 397.827 49.5639L395.3 49.838C395.092 49.8577 394.882 49.8085 394.704 49.6977C394.527 49.5869 394.39 49.4208 394.315 49.2248C393.703 47.5586 392.83 46.0002 391.73 44.6075C391.603 44.4525 391.53 44.2605 391.522 44.0604C391.513 43.8603 391.569 43.6628 391.683 43.4975L394.014 40.0178C394.139 39.8291 394.191 39.6008 394.159 39.3765C394.127 39.1522 394.014 38.9474 393.841 38.8014L390.666 36.126C390.487 35.9733 390.257 35.8938 390.022 35.9033C389.787 35.9128 389.564 36.0106 389.398 36.1773L386.19 39.3869C386.055 39.5216 385.882 39.6124 385.695 39.6475C385.507 39.6827 385.313 39.6606 385.139 39.5841C384.351 39.2522 383.539 38.9832 382.709 38.7797C382.254 38.6673 381.797 38.5825 381.342 38.4997C381.167 38.4716 381.004 38.3953 380.87 38.2793C380.736 38.1633 380.637 38.0123 380.584 37.8432L379.3 33.7089C379.23 33.4753 379.076 33.2762 378.867 33.151C378.658 33.0258 378.41 32.9836 378.171 33.0327ZM370.312 51.7918C370.726 50.6898 371.326 49.6669 372.085 48.7674C372.274 48.5433 372.479 48.3331 372.699 48.1385C373.715 47.2435 375.2 46.4332 376.354 46.1867C385.184 44.3157 391.039 53.8422 385.548 60.8529C385.456 60.9673 385.365 61.0816 385.269 61.194C384.377 62.2547 382.527 63.3627 381.179 63.6643C380.502 63.8152 379.812 63.9023 379.119 63.9246C372.478 64.1 368.132 57.7083 370.312 51.7918Z" fill="#DFEDFB"/>
<path d="M437.869 46.6042L431.717 47.1601L431.57 47.1739C431.209 47.2078 430.874 47.3732 430.628 47.6386C430.382 47.9041 430.242 48.251 430.235 48.6132L430.138 53.7766C430.133 54.1025 430.018 54.4171 429.811 54.6694C429.605 54.9217 429.32 55.0968 429.002 55.1665C425.656 55.9051 422.492 57.3046 419.693 59.2831C419.424 59.4716 419.099 59.5648 418.771 59.548C418.443 59.5313 418.13 59.4054 417.881 59.1904L414.638 56.3554C414.429 56.178 414.175 56.0614 413.904 56.0183C413.633 55.9752 413.356 56.0073 413.102 56.1109C412.943 56.1796 412.796 56.2734 412.667 56.3889L408.033 60.677C407.757 60.9337 407.587 61.2848 407.558 61.6608C407.528 62.0368 407.64 62.4104 407.872 62.7076L411.391 67.2264C411.56 67.4447 411.664 67.7066 411.69 67.9817C411.716 68.2568 411.664 68.5336 411.538 68.7799C411.178 69.5134 410.845 70.2547 410.554 71.0275C410.007 72.4476 409.588 73.9136 409.301 75.4082C409.247 75.7061 409.102 75.98 408.888 76.1933C408.673 76.4065 408.398 76.5488 408.1 76.601L402.374 77.6203L402.086 77.6735C401.727 77.7359 401.405 77.9315 401.183 78.2212C400.961 78.511 400.857 78.8736 400.891 79.2369L401.456 85.532C401.49 85.9036 401.659 86.2496 401.931 86.5042C402.204 86.7588 402.56 86.904 402.933 86.9121L408.673 87.0206C408.982 87.025 409.282 87.1274 409.53 87.313C409.778 87.4985 409.96 87.7578 410.052 88.0536C410.867 90.5992 412.071 93.0028 413.622 95.1788C413.812 95.4496 413.905 95.7763 413.887 96.1066C413.869 96.437 413.741 96.7517 413.523 97.0004L410.176 100.857C409.932 101.137 409.801 101.498 409.807 101.87C409.813 102.241 409.957 102.597 410.209 102.87L414.494 107.538C414.739 107.803 415.074 107.966 415.432 107.995C415.791 108.024 416.148 107.917 416.432 107.696L421.749 103.556C421.97 103.384 422.234 103.277 422.513 103.247C422.791 103.217 423.072 103.265 423.324 103.386C423.959 103.694 424.61 103.976 425.278 104.234C426.516 104.711 427.789 105.093 429.085 105.377C429.368 105.435 429.627 105.576 429.829 105.784C430.03 105.992 430.164 106.255 430.213 106.541L431.428 113.441C431.492 113.805 431.691 114.132 431.985 114.357C432.278 114.582 432.645 114.688 433.013 114.656L439.315 114.09C439.638 114.058 439.942 113.921 440.18 113.699C440.418 113.477 440.577 113.184 440.632 112.863C440.646 112.794 440.652 112.723 440.652 112.652L440.774 106.275C440.776 105.986 440.864 105.704 441.026 105.465C441.188 105.226 441.417 105.041 441.684 104.932C441.73 104.909 441.779 104.89 441.829 104.877C441.978 104.837 442.125 104.789 442.269 104.733C444.027 104.177 445.721 103.434 447.322 102.517C447.583 102.364 447.885 102.299 448.186 102.33C448.487 102.361 448.77 102.487 448.994 102.69L453.064 106.225C453.344 106.468 453.703 106.599 454.073 106.593C454.443 106.586 454.798 106.443 455.069 106.19L456.101 105.237L459.691 101.908C459.964 101.656 460.132 101.311 460.163 100.94C460.194 100.57 460.084 100.202 459.856 99.9085L456.39 95.4508C456.21 95.2194 456.105 94.9379 456.09 94.6447C456.075 94.3516 456.151 94.0609 456.307 93.8125C457.154 92.4362 457.871 90.9842 458.45 89.4751C458.885 88.3464 459.239 87.1881 459.509 86.0092L460.711 85.7962L465.634 84.9189C465.93 84.8707 466.203 84.7305 466.415 84.5183C466.627 84.306 466.767 84.0323 466.815 83.736C466.838 83.6104 466.842 83.4822 466.827 83.3555L466.272 77.015C466.235 76.6539 466.067 76.3187 465.801 76.072C465.535 75.8253 465.189 75.684 464.826 75.6744L460.906 75.6074C460.581 75.6004 460.267 75.486 460.014 75.282C459.761 75.078 459.582 74.7959 459.505 74.4796C458.885 71.8098 457.846 69.2553 456.428 66.9109C456.263 66.649 456.187 66.3406 456.212 66.0319C456.237 65.7233 456.362 65.4312 456.567 65.1996L460.799 60.326C461.027 60.0612 461.149 59.7217 461.143 59.3723C461.137 59.0229 461.003 58.688 460.766 58.4314L456.416 53.7293C456.171 53.4602 455.834 53.2937 455.472 53.2633C455.11 53.233 454.75 53.341 454.464 53.5656L448.935 57.8675C448.703 58.0495 448.421 58.1574 448.127 58.1771C447.833 58.1968 447.54 58.1274 447.286 57.9779C446.142 57.3194 444.949 56.7518 443.716 56.2804C443.039 56.0176 442.359 55.7876 441.678 55.5904C441.416 55.5126 441.18 55.3637 440.997 55.1601C440.814 54.9566 440.69 54.7064 440.64 54.4371L439.472 47.8305C439.406 47.463 439.204 47.1336 438.908 46.9068C438.611 46.68 438.241 46.5721 437.869 46.6042ZM422.235 73.833C423.079 72.2253 424.19 70.7737 425.522 69.541C425.855 69.2329 426.21 68.9495 426.584 68.6932C428.313 67.5103 430.741 66.562 432.556 66.4062C446.441 65.2351 453.588 80.9522 443.832 90.6403C443.671 90.798 443.509 90.9538 443.34 91.1095C441.764 92.5606 438.724 93.9032 436.601 94.1062C435.535 94.2068 434.461 94.2068 433.395 94.1062C423.198 93.1067 417.761 82.4781 422.235 73.833Z" fill="#CDE3FD"/>
</svg>
