<svg width="245" height="84" viewBox="0 0 245 84" fill="none" xmlns="http://www.w3.org/2000/svg">
<mask id="mask0_122_177" style="mask-type:alpha" maskUnits="userSpaceOnUse" x="9" y="6" width="75" height="78">
<rect x="9.70332" y="6.59631" width="73.7112" height="76.4349" fill="url(#paint0_linear_122_177)"/>
</mask>
<g mask="url(#mask0_122_177)">
<path d="M31.9751 27.383L45.7336 34.6683C45.7336 34.6683 53.515 20.9637 58.557 19.2319C58.557 19.2319 50.5605 12.5246 45.7336 11.3708C45.729 11.3708 35.1447 17.3573 31.9751 27.383Z" fill="#F1F1F1"/>
<path opacity="0.1" d="M35.8533 29.4389L45.729 34.6682C45.729 34.6682 53.5105 20.9636 58.5525 19.2318C58.5525 19.2318 46.3675 18.8442 35.8533 29.4389Z" fill="black"/>
<path d="M44.6128 29.9897C44.5467 29.9897 44.4821 29.97 44.4272 29.933L39.7588 26.5556C39.6891 26.5051 39.6424 26.429 39.6288 26.344C39.6152 26.2589 39.6359 26.172 39.6863 26.1023C39.7368 26.0325 39.8128 25.9857 39.8977 25.9721C39.9826 25.9585 40.0695 25.9792 40.1391 26.0297L44.803 29.4003C44.8582 29.4409 44.8991 29.4979 44.9201 29.5631C44.9412 29.6283 44.9411 29.6985 44.9201 29.7636C44.8991 29.8288 44.8581 29.8858 44.8029 29.9263C44.7478 29.9669 44.6813 29.9891 44.6128 29.9897Z" fill="#9A9A9A"/>
<path d="M44.6966 18.8578C44.6336 18.8481 44.5747 18.8206 44.5268 18.7785L42.1949 16.6818C42.1323 16.6245 42.0946 16.5449 42.0899 16.4602C42.0852 16.3754 42.114 16.2922 42.17 16.2284L44.2619 13.8937C44.3191 13.831 44.3986 13.7932 44.4832 13.7886C44.5679 13.7839 44.651 13.8127 44.7147 13.8687L47.0467 15.9632C47.0791 15.9917 47.1054 16.0265 47.124 16.0655C47.1427 16.1044 47.1534 16.1467 47.1554 16.1899C47.1584 16.2735 47.1283 16.355 47.0716 16.4165L44.9796 18.7535C44.9443 18.7925 44.9002 18.8223 44.8509 18.8404C44.8016 18.8586 44.7487 18.8645 44.6966 18.8578ZM42.8673 16.4165L44.717 18.0781L46.3788 16.2261L44.5291 14.5646L42.8673 16.4165Z" fill="#9A9A9A"/>
<path d="M41.3368 22.8178C41.2734 22.8157 41.2124 22.7935 41.1625 22.7543L38.6449 20.8843C38.5767 20.8325 38.5316 20.7559 38.5193 20.6711C38.507 20.5863 38.5285 20.5 38.5792 20.4309L40.447 17.9194C40.4991 17.8516 40.5756 17.8068 40.6601 17.7945C40.7447 17.7823 40.8307 17.8035 40.8998 17.8537L43.4152 19.7237C43.4836 19.7754 43.5291 19.8519 43.542 19.9368C43.5485 19.9793 43.5464 20.0226 43.5359 20.0642C43.5254 20.1059 43.5067 20.145 43.4808 20.1793L41.6153 22.6795C41.5845 22.7244 41.5427 22.7607 41.494 22.7849C41.4452 22.8091 41.3911 22.8204 41.3368 22.8178ZM39.2992 20.5511L41.2938 22.0358L42.7767 20.0388L40.7821 18.5541L39.2992 20.5511Z" fill="#9A9A9A"/>
<path d="M37.8434 27.2538C37.7794 27.2513 37.7178 27.2291 37.6668 27.1903L35.1447 25.3203C35.0765 25.2685 35.0314 25.1919 35.0191 25.1071C35.0068 25.0223 35.0283 24.936 35.079 24.8669L36.9559 22.3463C37.0073 22.2775 37.0838 22.232 37.1687 22.2197C37.2536 22.2073 37.3399 22.2293 37.4087 22.2806L39.9241 24.1506C39.9918 24.203 40.0371 24.2792 40.0508 24.3637C40.0629 24.4495 40.041 24.5365 39.9897 24.6063L38.1219 27.1246C38.0899 27.1677 38.0477 27.2021 37.999 27.2246C37.9504 27.2472 37.8969 27.2572 37.8434 27.2538ZM35.8058 24.9871L37.8004 26.4718L39.2833 24.4748L37.2887 22.9901L35.8058 24.9871Z" fill="#9A9A9A"/>
<path d="M50.051 16.9447H44.0016C43.9355 16.9448 43.8703 16.9296 43.811 16.9005C43.7516 16.8714 43.6997 16.8291 43.6593 16.7768C43.6189 16.7245 43.5909 16.6636 43.5777 16.5988C43.5644 16.534 43.5661 16.467 43.5827 16.403L44.0876 14.4672C44.1025 14.4123 44.128 14.3608 44.1627 14.3158C44.1974 14.2707 44.2407 14.233 44.29 14.2047C44.3393 14.1763 44.3937 14.158 44.45 14.1508C44.5064 14.1435 44.5636 14.1474 44.6185 14.1623C44.6734 14.1772 44.7247 14.2027 44.7697 14.2375C44.8147 14.2723 44.8524 14.3156 44.8807 14.3649C44.909 14.4143 44.9273 14.4687 44.9345 14.5252C44.9418 14.5816 44.9379 14.6389 44.923 14.6939L44.5608 16.0879H50.051C50.1103 16.0836 50.1698 16.0916 50.2259 16.1113C50.2819 16.1311 50.3333 16.1622 50.3768 16.2027C50.4203 16.2432 50.455 16.2923 50.4788 16.3468C50.5025 16.4014 50.5147 16.4602 50.5147 16.5197C50.5147 16.5792 50.5025 16.638 50.4788 16.6926C50.455 16.7471 50.4203 16.7962 50.3768 16.8367C50.3333 16.8772 50.2819 16.9083 50.2259 16.9281C50.1698 16.9478 50.1103 16.9558 50.051 16.9515V16.9447Z" fill="#039F1C"/>
<path d="M51.6902 21.7728C51.622 21.7724 51.5556 21.751 51.5 21.7116L46.8361 18.3387C46.8016 18.3137 46.7724 18.2821 46.7501 18.2458C46.7278 18.2095 46.7128 18.1691 46.7061 18.127C46.6994 18.0849 46.701 18.0419 46.7109 18.0005C46.7208 17.959 46.7387 17.9199 46.7637 17.8853C46.7886 17.8508 46.8202 17.8215 46.8564 17.7992C46.8927 17.7769 46.933 17.7619 46.9751 17.7552C47.0171 17.7484 47.0601 17.7501 47.1015 17.7599C47.1429 17.7698 47.182 17.7878 47.2165 17.8128L51.8804 21.1857C51.936 21.2258 51.9774 21.2826 51.9987 21.3478C52.0201 21.413 52.0202 21.4834 51.999 21.5486C51.9779 21.6139 51.9366 21.6708 51.8811 21.7111C51.8256 21.7514 51.7587 21.773 51.6902 21.7728Z" fill="#9A9A9A"/>
<path d="M48.3417 25.7963C48.2735 25.7961 48.207 25.7747 48.1515 25.7351L43.4876 22.3622C43.4516 22.3379 43.4209 22.3067 43.3972 22.2703C43.3734 22.2339 43.3573 22.1931 43.3496 22.1504C43.342 22.1076 43.343 22.0638 43.3526 22.0214C43.3622 21.9791 43.3802 21.9391 43.4055 21.9038C43.4309 21.8686 43.463 21.8388 43.5001 21.8162C43.5372 21.7936 43.5784 21.7788 43.6213 21.7725C43.6643 21.7662 43.708 21.7686 43.75 21.7795C43.792 21.7905 43.8313 21.8098 43.8657 21.8363L48.5296 25.2092C48.5851 25.2492 48.6264 25.3058 48.6478 25.3708C48.6692 25.4358 48.6695 25.5059 48.6486 25.571C48.6277 25.6362 48.5868 25.6931 48.5317 25.7335C48.4766 25.774 48.41 25.796 48.3417 25.7963Z" fill="#9A9A9A"/>
<path opacity="0.2" d="M17.9879 38.771H51.4276L71.48 38.5556L64.6314 33.4736L21.7326 35.3528L17.9879 38.771Z" fill="black"/>
<mask id="mask1_122_177" style="mask-type:alpha" maskUnits="userSpaceOnUse" x="20" y="32" width="50" height="40">
<path d="M69.465 36.2436L51.4276 32.6486L20.0029 36.4431V67.0008L51.4276 71.5955L69.465 62.0072V36.2436Z" fill="url(#paint1_linear_122_177)"/>
</mask>
<g mask="url(#mask1_122_177)">
<path d="M18.0297 31.2662L47.3792 32.9443L47.2177 35.3454L17.8682 33.6673L18.0297 31.2662Z" fill="url(#paint2_linear_122_177)"/>
<path d="M47.3792 32.9443L76.7286 34.6224L76.5671 37.0235L47.2177 35.3454L47.3792 32.9443Z" fill="url(#paint3_linear_122_177)"/>
<path d="M17.0607 45.6729L46.4102 47.351L46.2487 49.7521L16.8992 48.074L17.0607 45.6729Z" fill="url(#paint4_linear_122_177)"/>
<path d="M46.4102 47.351L75.7597 49.029L75.5982 51.4302L46.2487 49.7521L46.4102 47.351Z" fill="url(#paint5_linear_122_177)"/>
<path d="M16.0918 60.0796L45.4412 61.7576L45.2798 64.1587L15.9303 62.4807L16.0918 60.0796Z" fill="url(#paint6_linear_122_177)"/>
<path d="M45.4412 61.7576L74.7907 63.4357L74.6292 65.8368L45.2798 64.1587L45.4412 61.7576Z" fill="url(#paint7_linear_122_177)"/>
<path d="M17.8682 33.6673L47.2177 35.3454L47.0562 37.7465L17.7067 36.0685L17.8682 33.6673Z" fill="white"/>
<path d="M47.2177 35.3454L76.5671 37.0235L76.4056 39.4246L47.0562 37.7465L47.2177 35.3454Z" fill="white"/>
<path d="M17.2222 43.2718L46.5717 44.9499L46.4102 47.351L17.0607 45.6729L17.2222 43.2718Z" fill="white"/>
<path d="M46.5717 44.9499L75.9212 46.6279L75.7597 49.029L46.4102 47.351L46.5717 44.9499Z" fill="white"/>
<path d="M16.2511 57.7109L45.6006 59.389L45.4391 61.7901L16.0896 60.112L16.2511 57.7109Z" fill="white"/>
<path d="M45.6006 59.389L74.95 61.067L74.7885 63.4682L45.4391 61.7901L45.6006 59.389Z" fill="white"/>
<path d="M16.8992 48.074L46.2487 49.7521L46.0872 52.1532L16.7377 50.4751L16.8992 48.074Z" fill="white"/>
<path d="M46.2487 49.7521L75.5982 51.4302L75.4367 53.8313L46.0872 52.1532L46.2487 49.7521Z" fill="white"/>
<path d="M15.9303 62.4807L45.2798 64.1587L45.1183 66.5599L15.7688 64.8818L15.9303 62.4807Z" fill="white"/>
<path d="M45.2798 64.1587L74.6292 65.8368L74.4677 68.2379L45.1183 66.5599L45.2798 64.1587Z" fill="white"/>
<path d="M17.7067 36.0685L47.0562 37.7465L46.8947 40.1476L17.5452 38.4696L17.7067 36.0685Z" fill="url(#paint8_linear_122_177)"/>
<path d="M47.0562 37.7465L76.4056 39.4246L76.2442 41.8257L46.8947 40.1476L47.0562 37.7465Z" fill="url(#paint9_linear_122_177)"/>
<path d="M16.7377 50.4751L46.0872 52.1532L45.9257 54.5543L16.5763 52.8762L16.7377 50.4751Z" fill="url(#paint10_linear_122_177)"/>
<path d="M46.0872 52.1532L75.4367 53.8313L75.2752 56.2324L45.9257 54.5543L46.0872 52.1532Z" fill="url(#paint11_linear_122_177)"/>
<path d="M15.7688 64.8818L45.1183 66.5599L44.9568 68.961L15.6073 67.2829L15.7688 64.8818Z" fill="url(#paint12_linear_122_177)"/>
<path d="M45.1183 66.5599L74.4677 68.2379L74.3062 70.639L44.9568 68.961L45.1183 66.5599Z" fill="url(#paint13_linear_122_177)"/>
<path d="M17.5452 38.4696L46.8947 40.1476L46.7332 42.5488L17.3837 40.8707L17.5452 38.4696Z" fill="white"/>
<path d="M46.8947 40.1476L76.2442 41.8257L76.0827 44.2268L46.7332 42.5488L46.8947 40.1476Z" fill="white"/>
<path d="M16.5763 52.8762L45.9257 54.5543L45.7642 56.9554L16.4148 55.2773L16.5763 52.8762Z" fill="white"/>
<path d="M45.9257 54.5543L75.2752 56.2324L75.1137 58.6335L45.7642 56.9554L45.9257 54.5543Z" fill="white"/>
<path d="M15.6073 67.2829L44.9568 68.961L44.7953 71.3621L15.4458 69.684L15.6073 67.2829Z" fill="white"/>
<path d="M44.9568 68.961L74.3062 70.639L74.1447 73.0402L44.7953 71.3621L44.9568 68.961Z" fill="white"/>
<path d="M17.3837 40.8707L46.7332 42.5488L46.5717 44.9499L17.2222 43.2718L17.3837 40.8707Z" fill="url(#paint14_linear_122_177)"/>
<path d="M46.7332 42.5488L76.0827 44.2268L75.9212 46.6279L46.5717 44.9499L46.7332 42.5488Z" fill="url(#paint15_linear_122_177)"/>
<path d="M16.4148 55.2773L45.7642 56.9554L45.6027 59.3565L16.2533 57.6785L16.4148 55.2773Z" fill="url(#paint16_linear_122_177)"/>
<path d="M45.7642 56.9554L75.1137 58.6335L74.9522 61.0346L45.6027 59.3565L45.7642 56.9554Z" fill="url(#paint17_linear_122_177)"/>
<path d="M15.4458 69.684L44.7953 71.3621L44.6338 73.7632L15.2843 72.0851L15.4458 69.684Z" fill="url(#paint18_linear_122_177)"/>
<path d="M44.7953 71.3621L74.1447 73.0402L73.9832 75.4413L44.6338 73.7632L44.7953 71.3621Z" fill="url(#paint19_linear_122_177)"/>
</g>
<path opacity="0.2" d="M23.614 57.8138C23.614 57.8138 31.5381 60.0125 44.7328 59.2555L32.7561 57.3605L23.614 57.8138Z" fill="black"/>
<path d="M23.614 45.4148V57.8206L44.7328 59.2622V43.4677L23.614 45.4148Z" fill="white"/>
<path opacity="0.2" d="M51.4276 32.6486V71.5955L69.4651 62.0072V36.2436L51.4276 32.6486Z" fill="black"/>
<path opacity="0.2" d="M20.0029 36.2278V39.8274L51.4276 36.0306L69.4651 39.4534V36.0261L51.4276 32.431L20.0029 36.2278Z" fill="black"/>
<path d="M29.9281 56.5408C29.9281 54.2752 29.9281 52.016 29.9281 49.7631C29.4091 51.4305 28.8899 53.0681 28.3703 54.676C28.1509 54.659 27.9313 54.6423 27.7113 54.6259C27.1918 53.0292 26.6725 51.461 26.1536 49.9215C26.1536 51.9841 26.1536 54.0471 26.1536 56.1107C25.7594 56.0691 25.3656 56.0296 24.9721 55.9923C24.9721 52.9621 24.9721 49.8716 24.9721 46.7208C25.3941 46.6777 25.8165 46.6331 26.2392 46.5871C26.8384 48.3945 27.4376 50.2176 28.0368 52.0565C28.6414 50.1527 29.2462 48.1983 29.8514 46.1934C30.2711 46.1483 30.6905 46.1035 31.1096 46.059C31.1096 49.6035 31.1096 53.143 31.1096 56.6773C30.716 56.6318 30.3222 56.5863 29.9281 56.5408ZM33.2603 45.8331C33.8084 48.6696 34.3562 51.5477 34.9037 54.4675C35.4458 51.5264 35.9883 48.5434 36.531 45.5185C36.9448 45.4798 37.3585 45.4413 37.7723 45.403C37.0048 49.4028 36.2371 53.3229 35.469 57.1633C35.0892 57.1236 34.7096 57.0836 34.3303 57.0434C33.5599 53.2703 32.7895 49.5766 32.0191 45.9624C32.4328 45.9188 32.8466 45.8757 33.2603 45.8331ZM38.6782 57.4982C38.6782 53.4442 38.6782 49.3846 38.6782 45.3195C39.5366 45.2396 40.3953 45.1601 41.2543 45.0812C41.5343 45.0558 41.7911 45.1538 42.0247 45.371C42.2592 45.5955 42.4616 45.9064 42.6329 46.3111C42.8094 46.7179 42.9467 47.1821 43.0439 47.6986C43.1402 48.2151 43.1893 48.7483 43.1893 49.2916C43.1893 50.0333 43.109 50.7351 42.9494 51.3947C42.7898 52.0492 42.5695 52.5788 42.2904 52.979C42.0105 53.3793 41.6796 53.5689 41.2971 53.5507C40.818 53.5289 40.3385 53.5071 39.8588 53.4854C39.8588 54.8709 39.8588 56.2502 39.8588 57.6231C39.4653 57.5815 39.0717 57.5398 38.6782 57.4982ZM39.8588 51.3591C40.3154 51.3639 40.7719 51.3692 41.2284 51.3751C41.3711 51.3772 41.4995 51.2944 41.6137 51.1281C41.7278 50.9603 41.8196 50.7191 41.8883 50.4053C41.9561 50.0776 41.9908 49.7072 41.9908 49.2931C41.9908 48.8441 41.9507 48.4635 41.8705 48.1497C41.7964 47.838 41.6966 47.6063 41.5709 47.4559C41.4514 47.3063 41.3203 47.2344 41.1776 47.2424C40.7383 47.2666 40.2987 47.2918 39.8588 47.3179C39.8588 48.6628 39.8588 50.0098 39.8588 51.3591Z" fill="#0054B2"/>
<path d="M51.9732 28.1764L17.9879 32.2814V38.7711L51.9732 34.6683L71.48 38.5557V32.0638L51.9732 28.1764Z" fill="url(#paint20_linear_122_177)"/>
<path opacity="0.2" d="M51.9732 28.1764V34.6683L71.48 38.5557V31.9437L51.9732 28.1764Z" fill="#0C0C0C"/>
<path d="M22.5574 33.0586L22.9808 34.3836H24.3548L23.2444 35.2046L23.6678 36.5377L22.5574 35.7086L21.447 36.5377L21.8704 35.2046L20.76 34.3836H22.134L22.5574 33.0586Z" fill="white"/>
<path d="M28.4558 32.2151L28.9044 33.6204H30.36L29.1836 34.4911L29.6322 35.9051L28.4558 35.0257L27.2794 35.9051L27.728 34.4911L26.5516 33.6204H28.0073L28.4558 32.2151Z" fill="white"/>
<path d="M34.3743 31.4772L34.8031 32.8423H36.1947L35.0701 33.6882L35.4989 35.0617L34.3743 34.2075L33.2496 35.0617L33.6784 33.6882L32.5538 32.8423H33.9455L34.3743 31.4772Z" fill="white"/>
<path d="M40.3765 30.8446L40.8053 32.2097H42.1969L41.0723 33.0556L41.5011 34.4291L40.3765 33.5749L39.2518 34.4291L39.6806 33.0556L38.556 32.2097H39.9476L40.3765 30.8446Z" fill="white"/>
<path d="M46.484 30.1066L46.9128 31.4717H48.3044L47.1798 32.3176L47.6086 33.6911L46.484 32.8368L45.3593 33.6911L45.7881 32.3176L44.6635 31.4717H46.0551L46.484 30.1066Z" fill="white"/>
<path d="M56.1717 30.1066L56.6005 31.4717H57.9922L56.8676 32.3176L57.2964 33.6911L56.1717 32.8368L55.0471 33.6911L55.4759 32.3176L54.3513 31.4717H55.7429L56.1717 30.1066Z" fill="white"/>
<path d="M61.7527 31.2664L62.1815 32.6315H63.5732L62.4485 33.4774L62.8774 34.8509L61.7527 33.9966L60.6281 34.8509L61.0569 33.4774L59.9323 32.6315H61.3239L61.7527 31.2664Z" fill="white"/>
<path d="M67.6496 32.6368L68.0784 34.002H69.4701L68.3454 34.8479L68.7743 36.2214L67.6496 35.3671L66.525 36.2214L66.9538 34.8479L65.8291 34.002H67.2208L67.6496 32.6368Z" fill="white"/>
</g>
<path d="M87.3299 9.14978L88.3324 12.2617H91.5858L88.9566 14.19L89.9591 17.321L87.3299 15.3737L84.7007 17.321L85.7032 14.19L83.0741 12.2617H86.3274L87.3299 9.14978Z" fill="#003B7E"/>
<path d="M100.353 0.80835L101.335 3.98512H104.524L101.947 5.95355L102.929 9.1498L100.353 7.16189L97.7762 9.1498L98.7586 5.95355L96.1821 3.98512H99.3703L100.353 0.80835Z" fill="#003B7E"/>
<path d="M113.376 9.14978L114.378 12.2617H117.632L115.002 14.19L116.005 17.321L113.376 15.3737L110.746 17.321L111.749 14.19L109.12 12.2617H112.373L113.376 9.14978Z" fill="#003B7E"/>
<path d="M102.225 41.324H95.7716L88.0108 20.215H95.0755L102.225 41.324Z" fill="url(#paint21_linear_122_177)"/>
<path d="M94.8737 20.0448L73.7963 65.1564H65.002L57.7092 43.4619H64.9408L69.4145 58.3846L87.6422 20.0448H94.8737Z" fill="#039F1C"/>
<path d="M105.728 20.215H113.093L123.781 41.324H117.886L109.424 24.2593L102.324 41.324H96.2672L105.728 20.215Z" fill="#FF1212"/>
<path d="M93.9554 65.3711C91.933 65.3711 90.0741 64.9013 88.3785 63.9616C86.683 63.0015 85.3348 61.6839 84.3338 60.0088C83.3532 58.3132 82.863 56.4032 82.863 54.2787C82.863 52.1542 83.3532 50.2544 84.3338 48.5793C85.3348 46.8838 86.683 45.5661 88.3785 44.6265C90.0741 43.6868 91.933 43.2169 93.9554 43.2169C95.9982 43.2169 97.8572 43.6868 99.5323 44.6265C101.228 45.5661 102.566 46.8838 103.546 48.5793C104.527 50.2544 105.017 52.1542 105.017 54.2787C105.017 56.4032 104.527 58.3132 103.546 60.0088C102.566 61.6839 101.228 63.0015 99.5323 63.9616C97.8367 64.9013 95.9778 65.3711 93.9554 65.3711ZM93.9554 59.7943C95.4875 59.7943 96.6928 59.2938 97.5712 58.2928C98.47 57.2918 98.9194 55.9538 98.9194 54.2787C98.9194 52.5627 98.47 51.2145 97.5712 50.234C96.6928 49.233 95.4875 48.7325 93.9554 48.7325C92.4029 48.7325 91.1874 49.233 90.309 50.234C89.4306 51.2145 88.9914 52.5627 88.9914 54.2787C88.9914 55.9742 89.4306 57.3225 90.309 58.3235C91.1874 59.304 92.4029 59.7943 93.9554 59.7943Z" fill="#003B7E"/>
<path d="M123.988 43.554V48.3341H118.227V65.1566H112.221V48.3341H106.522V43.554H123.988Z" fill="#003B7E"/>
<path d="M132.216 48.3648V51.8886H139.11V56.4543H132.216V60.3458H140.03V65.1566H126.21V43.554H140.03V48.3648H132.216Z" fill="#003B7E"/>
<path d="M130.978 19.8133V32.6829C130.978 33.9699 131.294 34.9607 131.928 35.6552C132.561 36.3498 133.49 36.697 134.716 36.697C135.942 36.697 136.882 36.3498 137.535 35.6552C138.189 34.9607 138.516 33.9699 138.516 32.6829V19.8133H143.756V32.6523C143.756 34.5725 143.347 36.1965 142.53 37.5244C141.713 38.8522 140.61 39.8532 139.221 40.5273C137.852 41.2014 136.32 41.5385 134.624 41.5385C132.929 41.5385 131.407 41.2116 130.059 40.5579C128.731 39.8838 127.679 38.8828 126.902 37.555C126.126 36.2068 125.738 34.5725 125.738 32.6523V19.8133H130.978Z" fill="url(#paint22_linear_122_177)"/>
<path d="M155.218 41.5385C153.645 41.5385 152.236 41.2831 150.99 40.7724C149.743 40.2617 148.742 39.5059 147.987 38.5049C147.251 37.5039 146.863 36.2987 146.822 34.8892H152.399C152.481 35.6858 152.757 36.2987 153.226 36.7277C153.696 37.1362 154.309 37.3405 155.065 37.3405C155.841 37.3405 156.454 37.1669 156.903 36.8196C157.353 36.4519 157.578 35.9514 157.578 35.3181C157.578 34.787 157.394 34.3478 157.026 34.0005C156.679 33.6533 156.24 33.3673 155.708 33.1426C155.198 32.9178 154.462 32.6625 153.502 32.3765C152.113 31.9475 150.979 31.5185 150.101 31.0895C149.222 30.6605 148.467 30.0273 147.833 29.1897C147.2 28.3522 146.883 27.2593 146.883 25.911C146.883 23.9091 147.609 22.3463 149.059 21.2228C150.509 20.0788 152.399 19.5068 154.728 19.5068C157.097 19.5068 159.008 20.0788 160.458 21.2228C161.908 22.3463 162.685 23.9193 162.787 25.9417H157.118C157.077 25.2471 156.822 24.7058 156.352 24.3176C155.882 23.9091 155.279 23.7048 154.544 23.7048C153.911 23.7048 153.4 23.8784 153.012 24.2257C152.624 24.5526 152.43 25.0326 152.43 25.6659C152.43 26.3604 152.757 26.9018 153.41 27.2899C154.064 27.6781 155.085 28.0968 156.474 28.5462C157.864 29.0161 158.987 29.4655 159.845 29.8945C160.723 30.3235 161.479 30.9465 162.113 31.7637C162.746 32.5808 163.062 33.6328 163.062 34.9198C163.062 36.1455 162.746 37.2588 162.113 38.2598C161.5 39.2608 160.601 40.0574 159.416 40.6499C158.231 41.2423 156.832 41.5385 155.218 41.5385Z" fill="url(#paint23_linear_122_177)"/>
<path d="M171.527 37.2792H178.391V41.324H166.287V19.8133H171.527V37.2792Z" fill="url(#paint24_linear_122_177)"/>
<path d="M186.13 19.8133V41.324H180.89V19.8133H186.13Z" fill="url(#paint25_linear_122_177)"/>
<path d="M214.287 19.8133V41.324H209.048V28.4237L204.237 41.324H200.008L195.167 28.393V41.324H189.927V19.8133H196.117L202.153 34.7053L208.128 19.8133H214.287Z" fill="url(#paint26_linear_122_177)"/>
<path d="M225.839 41.5385C224.266 41.5385 222.856 41.2831 221.61 40.7724C220.364 40.2617 219.363 39.5059 218.607 38.5049C217.872 37.5039 217.483 36.2987 217.443 34.8892H223.019C223.101 35.6858 223.377 36.2987 223.847 36.7277C224.317 37.1362 224.929 37.3405 225.685 37.3405C226.462 37.3405 227.074 37.1669 227.524 36.8196C227.973 36.4519 228.198 35.9514 228.198 35.3181C228.198 34.787 228.014 34.3478 227.646 34.0005C227.299 33.6533 226.86 33.3673 226.329 33.1426C225.818 32.9178 225.083 32.6625 224.123 32.3765C222.733 31.9475 221.6 31.5185 220.721 31.0895C219.843 30.6605 219.087 30.0273 218.454 29.1897C217.821 28.3522 217.504 27.2593 217.504 25.911C217.504 23.9091 218.229 22.3463 219.679 21.2228C221.13 20.0788 223.019 19.5068 225.348 19.5068C227.718 19.5068 229.628 20.0788 231.078 21.2228C232.529 22.3463 233.305 23.9193 233.407 25.9417H227.738C227.697 25.2471 227.442 24.7058 226.972 24.3176C226.502 23.9091 225.9 23.7048 225.164 23.7048C224.531 23.7048 224.02 23.8784 223.632 24.2257C223.244 24.5526 223.05 25.0326 223.05 25.6659C223.05 26.3604 223.377 26.9018 224.031 27.2899C224.684 27.6781 225.706 28.0968 227.095 28.5462C228.484 29.0161 229.607 29.4655 230.465 29.8945C231.344 30.3235 232.1 30.9465 232.733 31.7637C233.366 32.5808 233.683 33.6328 233.683 34.9198C233.683 36.1455 233.366 37.2588 232.733 38.2598C232.12 39.2608 231.221 40.0574 230.036 40.6499C228.852 41.2423 227.452 41.5385 225.839 41.5385Z" fill="url(#paint27_linear_122_177)"/>
<path d="M142.035 51.538V43.8026H145.336C145.706 43.8026 146.044 43.8789 146.349 44.0314C146.662 44.1767 146.93 44.3764 147.155 44.6306C147.381 44.8776 147.555 45.1572 147.678 45.4695C147.802 45.7819 147.864 46.1014 147.864 46.4283C147.864 46.8714 147.758 47.2926 147.548 47.6921C147.344 48.0916 147.057 48.4184 146.687 48.6727C146.324 48.9196 145.892 49.0431 145.39 49.0431H143.822V51.538H142.035ZM143.822 47.4851H145.282C145.42 47.4851 145.547 47.4452 145.663 47.3653C145.779 47.2854 145.874 47.1655 145.946 47.0057C146.019 46.8459 146.055 46.6498 146.055 46.4174C146.055 46.1777 146.012 45.9816 145.924 45.8291C145.844 45.6693 145.739 45.5531 145.608 45.4804C145.485 45.4078 145.354 45.3715 145.216 45.3715H143.822V47.4851Z" fill="#003B7E"/>
<path d="M148.823 51.538V43.8026H152.309C152.672 43.8026 153.007 43.8789 153.312 44.0314C153.624 44.1767 153.893 44.3764 154.118 44.6306C154.343 44.8776 154.517 45.1572 154.641 45.4695C154.772 45.7819 154.837 46.0978 154.837 46.4174C154.837 46.737 154.786 47.042 154.684 47.3326C154.583 47.6158 154.437 47.8737 154.249 48.1061C154.06 48.3313 153.835 48.5165 153.573 48.6618L155.273 51.538H153.301L151.819 49.0431H150.61V51.538H148.823ZM150.61 47.4851H152.244C152.389 47.4851 152.516 47.4415 152.625 47.3544C152.741 47.2599 152.836 47.1328 152.909 46.973C152.981 46.8133 153.017 46.628 153.017 46.4174C153.017 46.2068 152.974 46.0252 152.887 45.8727C152.807 45.7129 152.705 45.5894 152.582 45.5022C152.458 45.4151 152.327 45.3715 152.189 45.3715H150.61V47.4851Z" fill="#003B7E"/>
<path d="M159.436 51.6034C158.854 51.6034 158.328 51.4945 157.856 51.2766C157.391 51.0514 156.988 50.7536 156.646 50.3832C156.312 50.0055 156.054 49.5842 155.873 49.1194C155.691 48.6472 155.601 48.1606 155.601 47.6594C155.601 47.1437 155.695 46.6535 155.884 46.1886C156.08 45.7238 156.349 45.3097 156.69 44.9466C157.039 44.5762 157.449 44.2856 157.921 44.075C158.393 43.8644 158.909 43.759 159.468 43.759C160.042 43.759 160.561 43.8716 161.026 44.0968C161.498 44.3147 161.901 44.6125 162.236 44.9902C162.577 45.3679 162.838 45.7928 163.02 46.2649C163.202 46.7297 163.292 47.2055 163.292 47.6921C163.292 48.2078 163.198 48.6981 163.009 49.1629C162.82 49.6278 162.552 50.0454 162.203 50.4159C161.854 50.779 161.444 51.0696 160.972 51.2875C160.507 51.4981 159.995 51.6034 159.436 51.6034ZM157.42 47.6812C157.42 47.979 157.464 48.2695 157.551 48.5528C157.638 48.8288 157.765 49.0758 157.932 49.2937C158.106 49.5116 158.321 49.6859 158.575 49.8166C158.829 49.9474 159.12 50.0127 159.446 50.0127C159.788 50.0127 160.086 49.9474 160.34 49.8166C160.594 49.6786 160.805 49.497 160.972 49.2719C161.139 49.0467 161.262 48.7961 161.342 48.5201C161.429 48.2369 161.473 47.95 161.473 47.6594C161.473 47.3616 161.429 47.0747 161.342 46.7987C161.255 46.5227 161.124 46.2758 160.95 46.0579C160.776 45.8327 160.561 45.6584 160.307 45.5349C160.053 45.4114 159.766 45.3497 159.446 45.3497C159.105 45.3497 158.807 45.4151 158.553 45.5458C158.306 45.6765 158.095 45.8545 157.921 46.0797C157.754 46.2976 157.627 46.5481 157.54 46.8314C157.46 47.1074 157.42 47.3907 157.42 47.6812Z" fill="#003B7E"/>
<path d="M163.786 49.7186C163.858 49.7694 164.011 49.8421 164.243 49.9365C164.483 50.0236 164.763 50.0672 165.082 50.0672C165.336 50.0672 165.543 50.0236 165.703 49.9365C165.87 49.8493 165.994 49.7186 166.074 49.5443C166.161 49.3627 166.219 49.1302 166.248 48.847C166.277 48.5564 166.292 48.2078 166.292 47.8011V43.8026H168.078V47.7357C168.078 48.3168 168.046 48.847 167.98 49.3264C167.915 49.8057 167.781 50.2234 167.577 50.5793C167.381 50.9279 167.083 51.1967 166.684 51.3855C166.284 51.5671 165.75 51.6579 165.082 51.6579C164.741 51.6579 164.432 51.6179 164.156 51.538C163.88 51.4581 163.626 51.3383 163.393 51.1785L163.786 49.7186Z" fill="#003B7E"/>
<path d="M174.911 49.9692V51.538H169.474V43.8026H174.813V45.3715H171.261V46.875H174.312V48.324H171.261V49.9692H174.911Z" fill="#003B7E"/>
<path d="M175.422 47.605C175.422 47.1328 175.509 46.6716 175.684 46.2213C175.858 45.7637 176.112 45.3497 176.446 44.9793C176.78 44.6088 177.187 44.3147 177.666 44.0968C178.146 43.8716 178.691 43.759 179.301 43.759C180.027 43.759 180.655 43.9152 181.186 44.2275C181.723 44.5398 182.123 44.9466 182.384 45.4478L181.011 46.4065C180.895 46.1305 180.739 45.9162 180.543 45.7637C180.354 45.6112 180.143 45.5059 179.911 45.4478C179.686 45.3824 179.468 45.3497 179.257 45.3497C178.916 45.3497 178.618 45.4187 178.364 45.5567C178.11 45.6874 177.899 45.8654 177.732 46.0906C177.565 46.3157 177.441 46.5663 177.361 46.8423C177.282 47.1183 177.242 47.3943 177.242 47.6703C177.242 47.9754 177.289 48.2695 177.383 48.5528C177.478 48.8361 177.612 49.0867 177.786 49.3046C177.968 49.5225 178.186 49.6968 178.44 49.8275C178.694 49.951 178.974 50.0127 179.279 50.0127C179.497 50.0127 179.718 49.9764 179.944 49.9038C180.169 49.8312 180.376 49.7186 180.565 49.566C180.761 49.4063 180.91 49.1992 181.011 48.945L182.471 49.8057C182.319 50.1834 182.068 50.5066 181.719 50.7754C181.371 51.0441 180.975 51.2511 180.532 51.3964C180.096 51.5344 179.664 51.6034 179.235 51.6034C178.676 51.6034 178.16 51.4908 177.688 51.2657C177.223 51.0332 176.82 50.7282 176.479 50.3505C176.145 49.9655 175.883 49.537 175.694 49.0649C175.513 48.5855 175.422 48.0989 175.422 47.605Z" fill="#003B7E"/>
<path d="M189.264 45.3715H186.911V51.538H185.124V45.3715H182.76V43.8026H189.264V45.3715Z" fill="#003B7E"/>
<defs>
<linearGradient id="paint0_linear_122_177" x1="46.5589" y1="6.59631" x2="46.5589" y2="73.1211" gradientUnits="userSpaceOnUse">
<stop offset="0.524288" stop-color="#D9D9D9"/>
<stop offset="0.902592" stop-color="#D9D9D9" stop-opacity="0"/>
</linearGradient>
<linearGradient id="paint1_linear_122_177" x1="44.734" y1="32.6486" x2="44.734" y2="71.5955" gradientUnits="userSpaceOnUse">
<stop stop-color="#003B7E"/>
<stop offset="1" stop-color="#A3CEFF"/>
</linearGradient>
<linearGradient id="paint2_linear_122_177" x1="47.3792" y1="32.9443" x2="45.044" y2="73.7866" gradientUnits="userSpaceOnUse">
<stop stop-color="#FF1212"/>
<stop offset="1" stop-color="#B50404"/>
</linearGradient>
<linearGradient id="paint3_linear_122_177" x1="47.3792" y1="32.9443" x2="45.044" y2="73.7866" gradientUnits="userSpaceOnUse">
<stop stop-color="#FF1212"/>
<stop offset="1" stop-color="#B50404"/>
</linearGradient>
<linearGradient id="paint4_linear_122_177" x1="47.3792" y1="32.9443" x2="45.044" y2="73.7866" gradientUnits="userSpaceOnUse">
<stop stop-color="#FF1212"/>
<stop offset="1" stop-color="#B50404"/>
</linearGradient>
<linearGradient id="paint5_linear_122_177" x1="47.3792" y1="32.9443" x2="45.044" y2="73.7866" gradientUnits="userSpaceOnUse">
<stop stop-color="#FF1212"/>
<stop offset="1" stop-color="#B50404"/>
</linearGradient>
<linearGradient id="paint6_linear_122_177" x1="47.3792" y1="32.9443" x2="45.044" y2="73.7866" gradientUnits="userSpaceOnUse">
<stop stop-color="#FF1212"/>
<stop offset="1" stop-color="#B50404"/>
</linearGradient>
<linearGradient id="paint7_linear_122_177" x1="47.3792" y1="32.9443" x2="45.044" y2="73.7866" gradientUnits="userSpaceOnUse">
<stop stop-color="#FF1212"/>
<stop offset="1" stop-color="#B50404"/>
</linearGradient>
<linearGradient id="paint8_linear_122_177" x1="47.3792" y1="32.9443" x2="45.044" y2="73.7866" gradientUnits="userSpaceOnUse">
<stop stop-color="#FF1212"/>
<stop offset="1" stop-color="#B50404"/>
</linearGradient>
<linearGradient id="paint9_linear_122_177" x1="47.3792" y1="32.9443" x2="45.044" y2="73.7866" gradientUnits="userSpaceOnUse">
<stop stop-color="#FF1212"/>
<stop offset="1" stop-color="#B50404"/>
</linearGradient>
<linearGradient id="paint10_linear_122_177" x1="47.3792" y1="32.9443" x2="45.044" y2="73.7866" gradientUnits="userSpaceOnUse">
<stop stop-color="#FF1212"/>
<stop offset="1" stop-color="#B50404"/>
</linearGradient>
<linearGradient id="paint11_linear_122_177" x1="47.3792" y1="32.9443" x2="45.044" y2="73.7866" gradientUnits="userSpaceOnUse">
<stop stop-color="#FF1212"/>
<stop offset="1" stop-color="#B50404"/>
</linearGradient>
<linearGradient id="paint12_linear_122_177" x1="47.3792" y1="32.9443" x2="45.044" y2="73.7866" gradientUnits="userSpaceOnUse">
<stop stop-color="#FF1212"/>
<stop offset="1" stop-color="#B50404"/>
</linearGradient>
<linearGradient id="paint13_linear_122_177" x1="47.3792" y1="32.9443" x2="45.044" y2="73.7866" gradientUnits="userSpaceOnUse">
<stop stop-color="#FF1212"/>
<stop offset="1" stop-color="#B50404"/>
</linearGradient>
<linearGradient id="paint14_linear_122_177" x1="47.3792" y1="32.9443" x2="45.044" y2="73.7866" gradientUnits="userSpaceOnUse">
<stop stop-color="#FF1212"/>
<stop offset="1" stop-color="#B50404"/>
</linearGradient>
<linearGradient id="paint15_linear_122_177" x1="47.3792" y1="32.9443" x2="45.044" y2="73.7866" gradientUnits="userSpaceOnUse">
<stop stop-color="#FF1212"/>
<stop offset="1" stop-color="#B50404"/>
</linearGradient>
<linearGradient id="paint16_linear_122_177" x1="47.3792" y1="32.9443" x2="45.044" y2="73.7866" gradientUnits="userSpaceOnUse">
<stop stop-color="#FF1212"/>
<stop offset="1" stop-color="#B50404"/>
</linearGradient>
<linearGradient id="paint17_linear_122_177" x1="47.3792" y1="32.9443" x2="45.044" y2="73.7866" gradientUnits="userSpaceOnUse">
<stop stop-color="#FF1212"/>
<stop offset="1" stop-color="#B50404"/>
</linearGradient>
<linearGradient id="paint18_linear_122_177" x1="47.3792" y1="32.9443" x2="45.044" y2="73.7866" gradientUnits="userSpaceOnUse">
<stop stop-color="#FF1212"/>
<stop offset="1" stop-color="#B50404"/>
</linearGradient>
<linearGradient id="paint19_linear_122_177" x1="47.3792" y1="32.9443" x2="45.044" y2="73.7866" gradientUnits="userSpaceOnUse">
<stop stop-color="#FF1212"/>
<stop offset="1" stop-color="#B50404"/>
</linearGradient>
<linearGradient id="paint20_linear_122_177" x1="44.734" y1="28.1764" x2="44.734" y2="38.7711" gradientUnits="userSpaceOnUse">
<stop stop-color="#003B7E"/>
<stop offset="1" stop-color="#0054B3"/>
</linearGradient>
<linearGradient id="paint21_linear_122_177" x1="97.455" y1="40.697" x2="88.8356" y2="17.2522" gradientUnits="userSpaceOnUse">
<stop stop-color="#FF3737"/>
<stop offset="1"/>
</linearGradient>
<linearGradient id="paint22_linear_122_177" x1="126.994" y1="30.5993" x2="225.56" y2="53.5808" gradientUnits="userSpaceOnUse">
<stop stop-color="#FF1212"/>
<stop offset="1" stop-color="#C1272D"/>
</linearGradient>
<linearGradient id="paint23_linear_122_177" x1="126.994" y1="30.5993" x2="225.56" y2="53.5808" gradientUnits="userSpaceOnUse">
<stop stop-color="#FF1212"/>
<stop offset="1" stop-color="#C1272D"/>
</linearGradient>
<linearGradient id="paint24_linear_122_177" x1="126.994" y1="30.5993" x2="225.56" y2="53.5808" gradientUnits="userSpaceOnUse">
<stop stop-color="#FF1212"/>
<stop offset="1" stop-color="#C1272D"/>
</linearGradient>
<linearGradient id="paint25_linear_122_177" x1="126.994" y1="30.5993" x2="225.56" y2="53.5808" gradientUnits="userSpaceOnUse">
<stop stop-color="#FF1212"/>
<stop offset="1" stop-color="#C1272D"/>
</linearGradient>
<linearGradient id="paint26_linear_122_177" x1="126.994" y1="30.5993" x2="225.56" y2="53.5808" gradientUnits="userSpaceOnUse">
<stop stop-color="#FF1212"/>
<stop offset="1" stop-color="#C1272D"/>
</linearGradient>
<linearGradient id="paint27_linear_122_177" x1="126.994" y1="30.5993" x2="225.56" y2="53.5808" gradientUnits="userSpaceOnUse">
<stop stop-color="#FF1212"/>
<stop offset="1" stop-color="#C1272D"/>
</linearGradient>
</defs>
</svg>
