<svg width="245" height="80" viewBox="0 0 245 80" fill="none" xmlns="http://www.w3.org/2000/svg">
<mask id="mask0_332_456" style="mask-type:alpha" maskUnits="userSpaceOnUse" x="84" y="37" width="39" height="40">
<rect x="84.606" y="37.9622" width="37.4514" height="38.9835" fill="url(#paint0_linear_332_456)"/>
</mask>
<g mask="url(#mask0_332_456)">
<path d="M95.9219 48.5639L102.912 52.2796C102.912 52.2796 106.866 45.2899 109.428 44.4066C109.428 44.4066 105.365 40.9858 102.912 40.3973C102.91 40.3973 97.5323 43.4506 95.9219 48.5639Z" fill="#F1F1F1"/>
<path opacity="0.1" d="M97.8926 49.6124L102.91 52.2795C102.91 52.2795 106.864 45.2898 109.426 44.4066C109.426 44.4066 103.235 44.2089 97.8926 49.6124Z" fill="black"/>
<path d="M102.343 49.8934C102.309 49.8934 102.277 49.8834 102.249 49.8645L99.8767 48.142C99.8413 48.1162 99.8176 48.0774 99.8107 48.034C99.8038 47.9907 99.8143 47.9463 99.8399 47.9107C99.8655 47.8752 99.9042 47.8513 99.9473 47.8444C99.9905 47.8374 100.035 47.848 100.07 47.8738L102.44 49.5928C102.468 49.6136 102.488 49.6426 102.499 49.6758C102.51 49.7091 102.51 49.7449 102.499 49.7781C102.488 49.8114 102.468 49.8404 102.44 49.8611C102.412 49.8818 102.378 49.8931 102.343 49.8934Z" fill="#9A9A9A"/>
<path d="M102.386 44.2159C102.354 44.211 102.324 44.1969 102.299 44.1755L101.115 43.1061C101.083 43.0769 101.064 43.0363 101.061 42.9931C101.059 42.9498 101.074 42.9074 101.102 42.8749L102.165 41.6841C102.194 41.6521 102.234 41.6329 102.277 41.6305C102.32 41.6281 102.363 41.6428 102.395 41.6714L103.58 42.7396C103.596 42.7542 103.61 42.7719 103.619 42.7918C103.629 42.8116 103.634 42.8332 103.635 42.8552C103.636 42.8979 103.621 42.9394 103.592 42.9708L102.53 44.1627C102.512 44.1826 102.489 44.1978 102.464 44.207C102.439 44.2163 102.412 44.2193 102.386 44.2159ZM101.456 42.9708L102.396 43.8182L103.24 42.8737L102.301 42.0263L101.456 42.9708Z" fill="#9A9A9A"/>
<path d="M100.678 46.2356C100.646 46.2345 100.615 46.2232 100.59 46.2032L99.3106 45.2494C99.276 45.223 99.2531 45.184 99.2468 45.1407C99.2406 45.0974 99.2515 45.0535 99.2773 45.0182L100.226 43.7373C100.253 43.7027 100.292 43.6799 100.335 43.6736C100.378 43.6674 100.421 43.6782 100.456 43.7038L101.734 44.6575C101.769 44.6839 101.792 44.7229 101.799 44.7662C101.802 44.7879 101.801 44.81 101.796 44.8312C101.79 44.8525 101.781 44.8724 101.768 44.8899L100.82 46.1651C100.804 46.188 100.783 46.2065 100.758 46.2188C100.733 46.2311 100.706 46.2369 100.678 46.2356ZM99.6431 45.0795L100.657 45.8367L101.41 44.8182L100.397 44.061L99.6431 45.0795Z" fill="#9A9A9A"/>
<path d="M98.9035 48.4979C98.871 48.4966 98.8397 48.4853 98.8138 48.4656L97.5323 47.5118C97.4977 47.4854 97.4748 47.4463 97.4685 47.4031C97.4623 47.3598 97.4732 47.3158 97.499 47.2806L98.4526 45.995C98.4787 45.9599 98.5176 45.9367 98.5607 45.9304C98.6038 45.9241 98.6477 45.9353 98.6826 45.9615L99.9606 46.9153C99.995 46.942 100.018 46.9808 100.025 47.0239C100.031 47.0677 100.02 47.1121 99.994 47.1476L99.045 48.432C99.0287 48.454 99.0073 48.4716 98.9826 48.4831C98.9579 48.4946 98.9307 48.4997 98.9035 48.4979ZM97.8682 47.3419L98.8816 48.0991L99.6351 47.0806L98.6217 46.3234L97.8682 47.3419Z" fill="#9A9A9A"/>
<path d="M105.106 43.2401H102.032C101.999 43.2402 101.966 43.2325 101.936 43.2176C101.905 43.2028 101.879 43.1812 101.858 43.1545C101.838 43.1278 101.824 43.0968 101.817 43.0637C101.81 43.0307 101.811 42.9965 101.82 42.9638L102.076 41.9765C102.084 41.9485 102.097 41.9223 102.114 41.8993C102.132 41.8763 102.154 41.8571 102.179 41.8426C102.204 41.8282 102.232 41.8189 102.26 41.8152C102.289 41.8115 102.318 41.8135 102.346 41.821C102.374 41.8286 102.4 41.8417 102.423 41.8594C102.446 41.8771 102.465 41.8992 102.479 41.9244C102.493 41.9496 102.503 41.9773 102.506 42.0061C102.51 42.0349 102.508 42.0641 102.501 42.0921L102.316 42.8031H105.106C105.136 42.8009 105.166 42.805 105.195 42.8151C105.223 42.8252 105.249 42.841 105.272 42.8617C105.294 42.8824 105.311 42.9074 105.323 42.9352C105.335 42.963 105.342 42.993 105.342 43.0234C105.342 43.0537 105.335 43.0837 105.323 43.1116C105.311 43.1394 105.294 43.1644 105.272 43.1851C105.249 43.2057 105.223 43.2216 105.195 43.2317C105.166 43.2417 105.136 43.2458 105.106 43.2436V43.2401Z" fill="#039F1C"/>
<path d="M105.939 45.7026C105.904 45.7024 105.87 45.6915 105.842 45.6714L103.472 43.9512C103.455 43.9384 103.44 43.9223 103.429 43.9038C103.417 43.8853 103.41 43.8647 103.406 43.8432C103.403 43.8218 103.404 43.7998 103.409 43.7787C103.414 43.7575 103.423 43.7376 103.436 43.72C103.448 43.7023 103.464 43.6874 103.483 43.676C103.501 43.6646 103.522 43.657 103.543 43.6536C103.564 43.6501 103.586 43.651 103.607 43.656C103.628 43.661 103.648 43.6702 103.666 43.683L106.035 45.4032C106.064 45.4237 106.085 45.4526 106.095 45.4859C106.106 45.5192 106.106 45.555 106.096 45.5883C106.085 45.6216 106.064 45.6506 106.036 45.6712C106.007 45.6917 105.974 45.7027 105.939 45.7026Z" fill="#9A9A9A"/>
<path d="M104.238 47.7547C104.203 47.7546 104.169 47.7437 104.141 47.7234L101.771 46.0032C101.753 45.9908 101.738 45.9749 101.725 45.9563C101.713 45.9378 101.705 45.917 101.701 45.8952C101.697 45.8734 101.698 45.851 101.703 45.8294C101.708 45.8078 101.717 45.7874 101.73 45.7694C101.743 45.7514 101.759 45.7362 101.778 45.7247C101.797 45.7132 101.818 45.7056 101.839 45.7024C101.861 45.6992 101.883 45.7004 101.905 45.706C101.926 45.7116 101.946 45.7215 101.964 45.735L104.333 47.4552C104.361 47.4756 104.382 47.5045 104.393 47.5376C104.404 47.5708 104.404 47.6065 104.394 47.6398C104.383 47.673 104.362 47.702 104.334 47.7227C104.306 47.7433 104.272 47.7545 104.238 47.7547Z" fill="#9A9A9A"/>
<path opacity="0.2" d="M88.8154 54.3721H105.806L115.994 54.2622L112.514 51.6703L90.718 52.6287L88.8154 54.3721Z" fill="black"/>
<mask id="mask1_332_456" style="mask-type:alpha" maskUnits="userSpaceOnUse" x="89" y="51" width="26" height="21">
<path d="M114.97 53.0831L105.806 51.2495L89.8394 53.1848V68.7699L105.806 71.1133L114.97 66.2231V53.0831Z" fill="url(#paint1_linear_332_456)"/>
</mask>
<g mask="url(#mask1_332_456)">
<path d="M88.8369 50.5446L103.749 51.4004L103.667 52.625L88.7549 51.7692L88.8369 50.5446Z" fill="url(#paint2_linear_332_456)"/>
<path d="M103.749 51.4004L118.661 52.2563L118.579 53.4809L103.667 52.625L103.749 51.4004Z" fill="url(#paint3_linear_332_456)"/>
<path d="M88.3446 57.8923L103.257 58.7481L103.175 59.9728L88.2626 59.1169L88.3446 57.8923Z" fill="url(#paint4_linear_332_456)"/>
<path d="M103.257 58.7481L118.169 59.604L118.086 60.8286L103.175 59.9728L103.257 58.7481Z" fill="url(#paint5_linear_332_456)"/>
<path d="M87.8523 65.24L102.764 66.0959L102.682 67.3205L87.7702 66.4646L87.8523 65.24Z" fill="url(#paint6_linear_332_456)"/>
<path d="M102.764 66.0959L117.676 66.9517L117.594 68.1763L102.682 67.3205L102.764 66.0959Z" fill="url(#paint7_linear_332_456)"/>
<path d="M88.7549 51.7692L103.667 52.625L103.585 53.8497L88.6728 52.9938L88.7549 51.7692Z" fill="white"/>
<path d="M103.667 52.625L118.579 53.4809L118.497 54.7055L103.585 53.8497L103.667 52.625Z" fill="white"/>
<path d="M88.4267 56.6677L103.339 57.5235L103.257 58.7481L88.3446 57.8923L88.4267 56.6677Z" fill="white"/>
<path d="M103.339 57.5235L118.251 58.3794L118.169 59.604L103.257 58.7481L103.339 57.5235Z" fill="white"/>
<path d="M87.9332 64.0319L102.845 64.8878L102.763 66.1124L87.8512 65.2565L87.9332 64.0319Z" fill="white"/>
<path d="M102.845 64.8878L117.757 65.7436L117.675 66.9683L102.763 66.1124L102.845 64.8878Z" fill="white"/>
<path d="M88.2626 59.1169L103.175 59.9728L103.092 61.1974L88.1805 60.3415L88.2626 59.1169Z" fill="white"/>
<path d="M103.175 59.9728L118.086 60.8286L118.004 62.0532L103.092 61.1974L103.175 59.9728Z" fill="white"/>
<path d="M87.7702 66.4646L102.682 67.3205L102.6 68.5451L87.6882 67.6892L87.7702 66.4646Z" fill="white"/>
<path d="M102.682 67.3205L117.594 68.1763L117.512 69.4009L102.6 68.5451L102.682 67.3205Z" fill="white"/>
<path d="M88.6728 52.9938L103.585 53.8497L103.503 55.0743L88.5908 54.2184L88.6728 52.9938Z" fill="url(#paint8_linear_332_456)"/>
<path d="M103.585 53.8497L118.497 54.7055L118.415 55.9301L103.503 55.0743L103.585 53.8497Z" fill="url(#paint9_linear_332_456)"/>
<path d="M88.1805 60.3415L103.092 61.1974L103.01 62.422L88.0984 61.5661L88.1805 60.3415Z" fill="url(#paint10_linear_332_456)"/>
<path d="M103.092 61.1974L118.004 62.0532L117.922 63.2778L103.01 62.422L103.092 61.1974Z" fill="url(#paint11_linear_332_456)"/>
<path d="M87.6882 67.6892L102.6 68.5451L102.518 69.7697L87.6061 68.9139L87.6882 67.6892Z" fill="url(#paint12_linear_332_456)"/>
<path d="M102.6 68.5451L117.512 69.4009L117.43 70.6256L102.518 69.7697L102.6 68.5451Z" fill="url(#paint13_linear_332_456)"/>
<path d="M88.5908 54.2184L103.503 55.0743L103.421 56.2989L88.5087 55.443L88.5908 54.2184Z" fill="white"/>
<path d="M103.503 55.0743L118.415 55.9301L118.333 57.1547L103.421 56.2989L103.503 55.0743Z" fill="white"/>
<path d="M88.0984 61.5661L103.01 62.422L102.928 63.6466L88.0164 62.7908L88.0984 61.5661Z" fill="white"/>
<path d="M103.01 62.422L117.922 63.2778L117.84 64.5025L102.928 63.6466L103.01 62.422Z" fill="white"/>
<path d="M87.6061 68.9139L102.518 69.7697L102.436 70.9943L87.5241 70.1385L87.6061 68.9139Z" fill="white"/>
<path d="M102.518 69.7697L117.43 70.6256L117.348 71.8502L102.436 70.9943L102.518 69.7697Z" fill="white"/>
<path d="M88.5087 55.443L103.421 56.2989L103.339 57.5235L88.4267 56.6677L88.5087 55.443Z" fill="url(#paint14_linear_332_456)"/>
<path d="M103.421 56.2989L118.333 57.1547L118.251 58.3794L103.339 57.5235L103.421 56.2989Z" fill="url(#paint15_linear_332_456)"/>
<path d="M88.0164 62.7908L102.928 63.6466L102.846 64.8712L87.9343 64.0154L88.0164 62.7908Z" fill="url(#paint16_linear_332_456)"/>
<path d="M102.928 63.6466L117.84 64.5025L117.758 65.7271L102.846 64.8712L102.928 63.6466Z" fill="url(#paint17_linear_332_456)"/>
<path d="M87.5241 70.1385L102.436 70.9943L102.354 72.2189L87.442 71.3631L87.5241 70.1385Z" fill="url(#paint18_linear_332_456)"/>
<path d="M102.436 70.9943L117.348 71.8502L117.266 73.0748L102.354 72.2189L102.436 70.9943Z" fill="url(#paint19_linear_332_456)"/>
</g>
<path opacity="0.2" d="M91.6738 64.0842C91.6738 64.0842 95.6999 65.2056 102.404 64.8195L96.3188 63.853L91.6738 64.0842Z" fill="black"/>
<path d="M91.6738 57.7605V64.0878L102.404 64.823V56.7675L91.6738 57.7605Z" fill="white"/>
<path opacity="0.2" d="M105.806 51.2495V71.1133L114.97 66.2231V53.0831L105.806 51.2495Z" fill="black"/>
<path opacity="0.2" d="M89.8394 53.0749V54.9107L105.806 52.9743L114.97 54.72V52.972L105.806 51.1384L89.8394 53.0749Z" fill="black"/>
<path d="M94.8818 63.435C94.8818 62.2795 94.8818 61.1273 94.8818 59.9783C94.6182 60.8287 94.3543 61.6639 94.0904 62.4839C93.9789 62.4753 93.8673 62.4668 93.7555 62.4584C93.4916 61.644 93.2277 60.8442 92.9641 60.059C92.9641 61.111 92.9641 62.1632 92.9641 63.2157C92.7638 63.1944 92.5637 63.1743 92.3638 63.1553C92.3638 61.6098 92.3638 60.0336 92.3638 58.4266C92.5782 58.4046 92.7928 58.3819 93.0076 58.3584C93.312 59.2802 93.6165 60.2101 93.9209 61.1479C94.2281 60.177 94.5354 59.1802 94.8429 58.1576C95.0561 58.1346 95.2692 58.1118 95.4821 58.0891C95.4821 59.8969 95.4821 61.7021 95.4821 63.5047C95.2822 63.4814 95.0821 63.4582 94.8818 63.435ZM96.5749 57.9739C96.8534 59.4205 97.1317 60.8884 97.4099 62.3776C97.6853 60.8776 97.9609 59.3562 98.2367 57.8134C98.4469 57.7937 98.6571 57.774 98.8673 57.7545C98.4774 59.7945 98.0873 61.7938 97.6971 63.7525C97.5041 63.7323 97.3112 63.7119 97.1186 63.6914C96.7271 61.767 96.3357 59.8832 95.9442 58.0398C96.1545 58.0176 96.3647 57.9956 96.5749 57.9739ZM99.3276 63.9233C99.3276 61.8557 99.3276 59.7852 99.3276 57.7119C99.7638 57.6712 100.2 57.6306 100.636 57.5904C100.779 57.5774 100.909 57.6274 101.028 57.7382C101.147 57.8527 101.25 58.0113 101.337 58.2176C101.427 58.4251 101.496 58.6619 101.546 58.9253C101.595 59.1887 101.62 59.4607 101.62 59.7378C101.62 60.1161 101.579 60.474 101.498 60.8104C101.417 61.1442 101.305 61.4143 101.163 61.6185C101.021 61.8226 100.853 61.9193 100.658 61.91C100.415 61.8989 100.171 61.8878 99.9275 61.8767C99.9275 62.5834 99.9275 63.2868 99.9275 63.9871C99.7275 63.9658 99.5276 63.9446 99.3276 63.9233ZM99.9275 60.7922C100.159 60.7947 100.391 60.7974 100.623 60.8004C100.696 60.8015 100.761 60.7593 100.819 60.6744C100.877 60.5888 100.924 60.4658 100.959 60.3058C100.993 60.1387 101.011 59.9497 101.011 59.7385C101.011 59.5096 100.99 59.3154 100.95 59.1554C100.912 58.9964 100.861 58.8782 100.797 58.8015C100.737 58.7252 100.67 58.6885 100.598 58.6926C100.374 58.705 100.151 58.7178 99.9275 58.7312C99.9275 59.4171 99.9275 60.1041 99.9275 60.7922Z" fill="#0054B2"/>
<path d="M106.083 48.9685L88.8154 51.0622V54.372L106.083 52.2795L115.994 54.2622V50.9512L106.083 48.9685Z" fill="url(#paint20_linear_332_456)"/>
<path opacity="0.2" d="M106.083 48.9685V52.2795L115.994 54.2622V50.8899L106.083 48.9685Z" fill="#0C0C0C"/>
<path d="M91.1369 51.4586L91.352 52.1344H92.0501L91.4859 52.5531L91.701 53.233L91.1369 52.8102L90.5727 53.233L90.7878 52.5531L90.2236 52.1344H90.9217L91.1369 51.4586Z" fill="white"/>
<path d="M94.134 51.0284L94.3619 51.7452H95.1015L94.5038 52.1893L94.7317 52.9104L94.134 52.4619L93.5363 52.9104L93.7642 52.1893L93.1665 51.7452H93.9061L94.134 51.0284Z" fill="white"/>
<path d="M97.1408 50.652L97.3586 51.3482H98.0657L97.4943 51.7796L97.7122 52.4802L97.1408 52.0445L96.5694 52.4802L96.7872 51.7796L96.2158 51.3482H96.9229L97.1408 50.652Z" fill="white"/>
<path d="M100.191 50.3293L100.408 51.0256H101.116L100.544 51.457L100.762 52.1575L100.191 51.7218L99.6192 52.1575L99.837 51.457L99.2656 51.0256H99.9727L100.191 50.3293Z" fill="white"/>
<path d="M103.294 49.953L103.511 50.6493H104.219L103.647 51.0807L103.865 51.7812L103.294 51.3455L102.722 51.7812L102.94 51.0807L102.369 50.6493H103.076L103.294 49.953Z" fill="white"/>
<path d="M108.216 49.953L108.434 50.6493H109.141L108.57 51.0807L108.787 51.7812L108.216 51.3455L107.645 51.7812L107.862 51.0807L107.291 50.6493H107.998L108.216 49.953Z" fill="white"/>
<path d="M111.051 50.5444L111.269 51.2407H111.976L111.405 51.6721L111.623 52.3726L111.051 51.9369L110.48 52.3726L110.698 51.6721L110.126 51.2407H110.834L111.051 50.5444Z" fill="white"/>
<path d="M114.048 51.2435L114.265 51.9398H114.972L114.401 52.3712L114.619 53.0717L114.048 52.636L113.476 53.0717L113.694 52.3712L113.123 51.9398H113.83L114.048 51.2435Z" fill="white"/>
</g>
<path d="M15.3213 64.5186L16.3238 67.6305H19.5771L16.948 69.5587L17.9504 72.6898L15.3213 70.7424L12.6921 72.6898L13.6946 69.5587L11.0654 67.6305H14.3188L15.3213 64.5186Z" fill="#003B7E"/>
<path d="M26.3011 64.5186L27.2835 67.6953H30.4718L27.8952 69.6638L28.8777 72.86L26.3011 70.8721L23.7245 72.86L24.707 69.6638L22.1304 67.6953H25.3187L26.3011 64.5186Z" fill="#003B7E"/>
<path d="M4.25584 64.5186L5.25833 67.6305H8.51169L5.88252 69.5587L6.88501 72.6898L4.25584 70.7424L1.62668 72.6898L2.62916 69.5587L0 67.6305H3.25336L4.25584 64.5186Z" fill="#003B7E"/>
<path d="M10.4825 15.4912H17.8476L28.0247 36.6002H22.1296L14.1779 19.5356L8.25642 36.6002H1.02148L10.4825 15.4912Z" fill="url(#paint21_linear_332_456)"/>
<path d="M45.1969 36.6002H38.7431L30.9824 15.4912H38.0471L45.1969 36.6002Z" fill="url(#paint22_linear_332_456)"/>
<path d="M38.186 15.4912L17.1086 60.6029H8.3143L1.02148 38.9083H8.25301L12.7268 53.831L30.9545 15.4912H38.186Z" fill="#003B7E"/>
<path d="M37.2677 60.8177C35.2453 60.8177 33.3864 60.3478 31.6909 59.4081C29.9953 58.448 28.6471 57.1304 27.6461 55.4553C26.6656 53.7598 26.1753 51.8498 26.1753 49.7252C26.1753 47.6007 26.6656 45.7009 27.6461 44.0258C28.6471 42.3303 29.9953 41.0127 31.6909 40.073C33.3864 39.1333 35.2453 38.6635 37.2677 38.6635C39.3105 38.6635 41.1695 39.1333 42.8446 40.073C44.5401 41.0127 45.8781 42.3303 46.8587 44.0258C47.8392 45.7009 48.3295 47.6007 48.3295 49.7252C48.3295 51.8498 47.8392 53.7598 46.8587 55.4553C45.8781 57.1304 44.5401 58.448 42.8446 59.4081C41.1491 60.3478 39.2901 60.8177 37.2677 60.8177ZM37.2677 55.2408C38.7998 55.2408 40.0051 54.7403 40.8835 53.7394C41.7823 52.7384 42.2317 51.4003 42.2317 49.7252C42.2317 48.0093 41.7823 46.661 40.8835 45.6805C40.0051 44.6795 38.7998 44.179 37.2677 44.179C35.7152 44.179 34.4997 44.6795 33.6213 45.6805C32.7429 46.661 32.3037 48.0093 32.3037 49.7252C32.3037 51.4208 32.7429 52.769 33.6213 53.77C34.4997 54.7505 35.7152 55.2408 37.2677 55.2408Z" fill="#003B7E"/>
<path d="M67.3003 39.0005V43.7807H61.5396V60.6032H55.5338V43.7807H49.8343V39.0005H67.3003Z" fill="#003B7E"/>
<path d="M75.5282 43.8113V47.3352H82.4226V51.9008H75.5282V55.7924H83.3419V60.6032H69.5223V39.0005H83.3419V43.8113H75.5282Z" fill="#003B7E"/>
<path d="M50.4571 15.0895V27.9592C50.4571 29.2461 50.7737 30.2369 51.407 30.9315C52.0403 31.626 52.9697 31.9733 54.1954 31.9733C55.4211 31.9733 56.3608 31.626 57.0145 30.9315C57.6682 30.2369 57.995 29.2461 57.995 27.9592V15.0895H63.2348V27.9285C63.2348 29.8488 62.8263 31.4728 62.0091 32.8006C61.192 34.1284 60.0889 35.1294 58.6998 35.8035C57.3311 36.4777 55.799 36.8147 54.1035 36.8147C52.408 36.8147 50.8861 36.4879 49.5378 35.8342C48.21 35.1601 47.1579 34.1591 46.3817 32.8313C45.6054 31.483 45.2173 29.8488 45.2173 27.9285V15.0895H50.4571Z" fill="url(#paint23_linear_332_456)"/>
<path d="M74.6974 36.8147C73.1244 36.8147 71.7149 36.5594 70.4687 36.0487C69.2226 35.538 68.2217 34.7821 67.4658 33.7812C66.7304 32.7802 66.3423 31.5749 66.3014 30.1654H71.8783C71.96 30.9621 72.2358 31.5749 72.7056 32.0039C73.1755 32.4125 73.7883 32.6168 74.5441 32.6168C75.3204 32.6168 75.9332 32.4431 76.3827 32.0958C76.8321 31.7281 77.0568 31.2277 77.0568 30.5944C77.0568 30.0633 76.8729 29.6241 76.5052 29.2768C76.158 28.9295 75.7188 28.6435 75.1876 28.4188C74.6769 28.1941 73.9415 27.9387 72.9814 27.6528C71.5923 27.2238 70.4585 26.7948 69.5801 26.3658C68.7017 25.9368 67.9459 25.3035 67.3126 24.466C66.6793 23.6284 66.3627 22.5355 66.3627 21.1873C66.3627 19.1853 67.0879 17.6226 68.5383 16.499C69.9887 15.3551 71.8783 14.7831 74.2071 14.7831C76.5767 14.7831 78.4868 15.3551 79.9371 16.499C81.3875 17.6226 82.1638 19.1955 82.2659 21.2179H76.5972C76.5563 20.5234 76.301 19.982 75.8311 19.5939C75.3613 19.1853 74.7586 18.981 74.0232 18.981C73.39 18.981 72.8793 19.1547 72.4911 19.502C72.103 19.8288 71.9089 20.3089 71.9089 20.9421C71.9089 21.6367 72.2358 22.178 72.8895 22.5662C73.5432 22.9543 74.5646 23.3731 75.9537 23.8225C77.3428 24.2923 78.4663 24.7418 79.3243 25.1707C80.2027 25.5997 80.9585 26.2228 81.5918 27.0399C82.2251 27.857 82.5417 28.9091 82.5417 30.196C82.5417 31.4217 82.2251 32.5351 81.5918 33.536C80.979 34.537 80.0801 35.3337 78.8953 35.9261C77.7105 36.5185 76.3112 36.8147 74.6974 36.8147Z" fill="url(#paint24_linear_332_456)"/>
<path d="M91.0061 32.5555H97.8699V36.6002H85.7663V15.0895H91.0061V32.5555Z" fill="url(#paint25_linear_332_456)"/>
<path d="M105.609 15.0895V36.6002H100.369V15.0895H105.609Z" fill="url(#paint26_linear_332_456)"/>
<path d="M133.767 15.0895V36.6002H128.527V23.6999L123.716 36.6002H119.487L114.646 23.6693V36.6002H109.406V15.0895H115.596L121.632 29.9815L127.608 15.0895H133.767Z" fill="url(#paint27_linear_332_456)"/>
<path d="M145.318 36.8147C143.745 36.8147 142.335 36.5594 141.089 36.0487C139.843 35.538 138.842 34.7821 138.086 33.7812C137.351 32.7802 136.963 31.5749 136.922 30.1654H142.499C142.58 30.9621 142.856 31.5749 143.326 32.0039C143.796 32.4125 144.409 32.6168 145.165 32.6168C145.941 32.6168 146.554 32.4431 147.003 32.0958C147.452 31.7281 147.677 31.2277 147.677 30.5944C147.677 30.0633 147.493 29.6241 147.126 29.2768C146.778 28.9295 146.339 28.6435 145.808 28.4188C145.297 28.1941 144.562 27.9387 143.602 27.6528C142.213 27.2238 141.079 26.7948 140.201 26.3658C139.322 25.9368 138.566 25.3035 137.933 24.466C137.3 23.6284 136.983 22.5355 136.983 21.1873C136.983 19.1853 137.708 17.6226 139.159 16.499C140.609 15.3551 142.499 14.7831 144.827 14.7831C147.197 14.7831 149.107 15.3551 150.558 16.499C152.008 17.6226 152.784 19.1955 152.886 21.2179H147.218C147.177 20.5234 146.921 19.982 146.451 19.5939C145.982 19.1853 145.379 18.981 144.644 18.981C144.01 18.981 143.5 19.1547 143.112 19.502C142.723 19.8288 142.529 20.3089 142.529 20.9421C142.529 21.6367 142.856 22.178 143.51 22.5662C144.164 22.9543 145.185 23.3731 146.574 23.8225C147.963 24.2923 149.087 24.7418 149.945 25.1707C150.823 25.5997 151.579 26.2228 152.212 27.0399C152.845 27.857 153.162 28.9091 153.162 30.196C153.162 31.4217 152.845 32.5351 152.212 33.536C151.599 34.537 150.701 35.3337 149.516 35.9261C148.331 36.5185 146.932 36.8147 145.318 36.8147Z" fill="url(#paint28_linear_332_456)"/>
<path d="M37.1709 72.8601V65.1246H40.4721C40.8425 65.1246 41.1802 65.2009 41.4853 65.3534C41.7976 65.4987 42.0664 65.6984 42.2915 65.9527C42.5167 66.1996 42.691 66.4792 42.8145 66.7916C42.938 67.1039 42.9997 67.4235 42.9997 67.7503C42.9997 68.1934 42.8944 68.6147 42.6837 69.0141C42.4804 69.4136 42.1935 69.7405 41.823 69.9947C41.4599 70.2416 41.0277 70.3651 40.5265 70.3651H38.9577V72.8601H37.1709ZM38.9577 68.8071H40.4176C40.5556 68.8071 40.6827 68.7672 40.7989 68.6873C40.9151 68.6074 41.0096 68.4875 41.0822 68.3278C41.1548 68.168 41.1911 67.9718 41.1911 67.7394C41.1911 67.4997 41.1476 67.3036 41.0604 67.1511C40.9805 66.9913 40.8752 66.8751 40.7444 66.8025C40.621 66.7298 40.4902 66.6935 40.3522 66.6935H38.9577V68.8071Z" fill="#003B7E"/>
<path d="M37.1709 72.8601V65.1246H40.4721C40.8425 65.1246 41.1802 65.2009 41.4853 65.3534C41.7976 65.4987 42.0664 65.6984 42.2915 65.9527C42.5167 66.1996 42.691 66.4792 42.8145 66.7916C42.938 67.1039 42.9997 67.4235 42.9997 67.7503C42.9997 68.1934 42.8944 68.6147 42.6837 69.0141C42.4804 69.4136 42.1935 69.7405 41.823 69.9947C41.4599 70.2416 41.0277 70.3651 40.5265 70.3651H38.9577V72.8601H37.1709ZM38.9577 68.8071H40.4176C40.5556 68.8071 40.6827 68.7672 40.7989 68.6873C40.9151 68.6074 41.0096 68.4875 41.0822 68.3278C41.1548 68.168 41.1911 67.9718 41.1911 67.7394C41.1911 67.4997 41.1476 67.3036 41.0604 67.1511C40.9805 66.9913 40.8752 66.8751 40.7444 66.8025C40.621 66.7298 40.4902 66.6935 40.3522 66.6935H38.9577V68.8071Z" fill="url(#paint29_linear_332_456)"/>
<path d="M43.959 72.8601V65.1246H47.4454C47.8085 65.1246 48.1426 65.2009 48.4477 65.3534C48.76 65.4987 49.0288 65.6984 49.2539 65.9527C49.4791 66.1996 49.6534 66.4792 49.7769 66.7916C49.9076 67.1039 49.973 67.4198 49.973 67.7394C49.973 68.059 49.9221 68.3641 49.8205 68.6546C49.7188 68.9379 49.5735 69.1957 49.3847 69.4281C49.1958 69.6533 48.9706 69.8385 48.7092 69.9838L50.4088 72.8601H48.4368L46.9551 70.3651H45.7457V72.8601H43.959ZM45.7457 68.8071H47.38C47.5252 68.8071 47.6524 68.7635 47.7613 68.6764C47.8775 68.582 47.9719 68.4549 48.0446 68.2951C48.1172 68.1353 48.1535 67.9501 48.1535 67.7394C48.1535 67.5288 48.1099 67.3472 48.0228 67.1947C47.9429 67.0349 47.8412 66.9114 47.7177 66.8242C47.5943 66.7371 47.4635 66.6935 47.3255 66.6935H45.7457V68.8071Z" fill="#003B7E"/>
<path d="M43.959 72.8601V65.1246H47.4454C47.8085 65.1246 48.1426 65.2009 48.4477 65.3534C48.76 65.4987 49.0288 65.6984 49.2539 65.9527C49.4791 66.1996 49.6534 66.4792 49.7769 66.7916C49.9076 67.1039 49.973 67.4198 49.973 67.7394C49.973 68.059 49.9221 68.3641 49.8205 68.6546C49.7188 68.9379 49.5735 69.1957 49.3847 69.4281C49.1958 69.6533 48.9706 69.8385 48.7092 69.9838L50.4088 72.8601H48.4368L46.9551 70.3651H45.7457V72.8601H43.959ZM45.7457 68.8071H47.38C47.5252 68.8071 47.6524 68.7635 47.7613 68.6764C47.8775 68.582 47.9719 68.4549 48.0446 68.2951C48.1172 68.1353 48.1535 67.9501 48.1535 67.7394C48.1535 67.5288 48.1099 67.3472 48.0228 67.1947C47.9429 67.0349 47.8412 66.9114 47.7177 66.8242C47.5943 66.7371 47.4635 66.6935 47.3255 66.6935H45.7457V68.8071Z" fill="url(#paint30_linear_332_456)"/>
<path d="M54.5716 72.9254C53.9905 72.9254 53.4639 72.8165 52.9918 72.5986C52.527 72.3734 52.1239 72.0756 51.7825 71.7052C51.4484 71.3275 51.1905 70.9062 51.0089 70.4414C50.8274 69.9693 50.7366 69.4826 50.7366 68.9814C50.7366 68.4658 50.831 67.9755 51.0198 67.5106C51.2159 67.0458 51.4847 66.6318 51.8261 66.2686C52.1747 65.8982 52.5851 65.6076 53.0572 65.397C53.5293 65.1864 54.045 65.0811 54.6043 65.0811C55.1781 65.0811 55.6974 65.1936 56.1623 65.4188C56.6344 65.6367 57.0375 65.9345 57.3716 66.3122C57.713 66.6899 57.9745 67.1148 58.156 67.5869C58.3376 68.0517 58.4284 68.5275 58.4284 69.0141C58.4284 69.5298 58.334 70.0201 58.1451 70.485C57.9563 70.9498 57.6876 71.3674 57.3389 71.7379C56.9903 72.101 56.5799 72.3916 56.1078 72.6095C55.6429 72.8201 55.1309 72.9254 54.5716 72.9254ZM52.556 69.0032C52.556 69.301 52.5996 69.5916 52.6868 69.8748C52.7739 70.1508 52.901 70.3978 53.0681 70.6157C53.2424 70.8336 53.4567 71.0079 53.7109 71.1386C53.9651 71.2694 54.2556 71.3348 54.5825 71.3348C54.9239 71.3348 55.2217 71.2694 55.4759 71.1386C55.7301 71.0006 55.9407 70.8191 56.1078 70.5939C56.2748 70.3687 56.3983 70.1182 56.4782 69.8421C56.5654 69.5589 56.6089 69.272 56.6089 68.9814C56.6089 68.6837 56.5654 68.3968 56.4782 68.1207C56.3911 67.8447 56.2603 67.5978 56.086 67.3799C55.9117 67.1547 55.6974 66.9804 55.4432 66.8569C55.189 66.7335 54.9021 66.6717 54.5825 66.6717C54.2411 66.6717 53.9433 66.7371 53.6891 66.8678C53.4421 66.9986 53.2315 67.1765 53.0572 67.4017C52.8901 67.6196 52.763 67.8702 52.6759 68.1534C52.596 68.4294 52.556 68.7127 52.556 69.0032Z" fill="#003B7E"/>
<path d="M54.5716 72.9254C53.9905 72.9254 53.4639 72.8165 52.9918 72.5986C52.527 72.3734 52.1239 72.0756 51.7825 71.7052C51.4484 71.3275 51.1905 70.9062 51.0089 70.4414C50.8274 69.9693 50.7366 69.4826 50.7366 68.9814C50.7366 68.4658 50.831 67.9755 51.0198 67.5106C51.2159 67.0458 51.4847 66.6318 51.8261 66.2686C52.1747 65.8982 52.5851 65.6076 53.0572 65.397C53.5293 65.1864 54.045 65.0811 54.6043 65.0811C55.1781 65.0811 55.6974 65.1936 56.1623 65.4188C56.6344 65.6367 57.0375 65.9345 57.3716 66.3122C57.713 66.6899 57.9745 67.1148 58.156 67.5869C58.3376 68.0517 58.4284 68.5275 58.4284 69.0141C58.4284 69.5298 58.334 70.0201 58.1451 70.485C57.9563 70.9498 57.6876 71.3674 57.3389 71.7379C56.9903 72.101 56.5799 72.3916 56.1078 72.6095C55.6429 72.8201 55.1309 72.9254 54.5716 72.9254ZM52.556 69.0032C52.556 69.301 52.5996 69.5916 52.6868 69.8748C52.7739 70.1508 52.901 70.3978 53.0681 70.6157C53.2424 70.8336 53.4567 71.0079 53.7109 71.1386C53.9651 71.2694 54.2556 71.3348 54.5825 71.3348C54.9239 71.3348 55.2217 71.2694 55.4759 71.1386C55.7301 71.0006 55.9407 70.8191 56.1078 70.5939C56.2748 70.3687 56.3983 70.1182 56.4782 69.8421C56.5654 69.5589 56.6089 69.272 56.6089 68.9814C56.6089 68.6837 56.5654 68.3968 56.4782 68.1207C56.3911 67.8447 56.2603 67.5978 56.086 67.3799C55.9117 67.1547 55.6974 66.9804 55.4432 66.8569C55.189 66.7335 54.9021 66.6717 54.5825 66.6717C54.2411 66.6717 53.9433 66.7371 53.6891 66.8678C53.4421 66.9986 53.2315 67.1765 53.0572 67.4017C52.8901 67.6196 52.763 67.8702 52.6759 68.1534C52.596 68.4294 52.556 68.7127 52.556 69.0032Z" fill="url(#paint31_linear_332_456)"/>
<path d="M58.9217 71.0406C58.9944 71.0914 59.1469 71.1641 59.3793 71.2585C59.619 71.3457 59.8987 71.3892 60.2182 71.3892C60.4725 71.3892 60.6795 71.3457 60.8393 71.2585C61.0063 71.1713 61.1298 71.0406 61.2097 70.8663C61.2968 70.6847 61.355 70.4523 61.384 70.169C61.4131 69.8785 61.4276 69.5298 61.4276 69.1231V65.1246H63.2144V69.0577C63.2144 69.6388 63.1817 70.169 63.1163 70.6484C63.0509 71.1278 62.9166 71.5454 62.7132 71.9013C62.5171 72.2499 62.2193 72.5187 61.8198 72.7075C61.4203 72.8891 60.8865 72.9799 60.2182 72.9799C59.8769 72.9799 59.5682 72.9399 59.2922 72.8601C59.0162 72.7802 58.762 72.6603 58.5295 72.5005L58.9217 71.0406Z" fill="#003B7E"/>
<path d="M58.9217 71.0406C58.9944 71.0914 59.1469 71.1641 59.3793 71.2585C59.619 71.3457 59.8987 71.3892 60.2182 71.3892C60.4725 71.3892 60.6795 71.3457 60.8393 71.2585C61.0063 71.1713 61.1298 71.0406 61.2097 70.8663C61.2968 70.6847 61.355 70.4523 61.384 70.169C61.4131 69.8785 61.4276 69.5298 61.4276 69.1231V65.1246H63.2144V69.0577C63.2144 69.6388 63.1817 70.169 63.1163 70.6484C63.0509 71.1278 62.9166 71.5454 62.7132 71.9013C62.5171 72.2499 62.2193 72.5187 61.8198 72.7075C61.4203 72.8891 60.8865 72.9799 60.2182 72.9799C59.8769 72.9799 59.5682 72.9399 59.2922 72.8601C59.0162 72.7802 58.762 72.6603 58.5295 72.5005L58.9217 71.0406Z" fill="url(#paint32_linear_332_456)"/>
<path d="M70.047 71.2912V72.8601H64.6104V65.1246H69.949V66.6935H66.3972V68.197H69.4478V69.646H66.3972V71.2912H70.047Z" fill="#003B7E"/>
<path d="M70.047 71.2912V72.8601H64.6104V65.1246H69.949V66.6935H66.3972V68.197H69.4478V69.646H66.3972V71.2912H70.047Z" fill="url(#paint33_linear_332_456)"/>
<path d="M70.5582 68.927C70.5582 68.4549 70.6453 67.9936 70.8196 67.5433C70.994 67.0857 71.2482 66.6717 71.5823 66.3013C71.9164 65.9309 72.3231 65.6367 72.8025 65.4188C73.2819 65.1936 73.8266 65.0811 74.4368 65.0811C75.1631 65.0811 75.7914 65.2372 76.3216 65.5495C76.8591 65.8619 77.2586 66.2686 77.52 66.7698L76.1473 67.7285C76.0311 67.4525 75.8749 67.2383 75.6788 67.0857C75.4899 66.9332 75.2793 66.8279 75.0469 66.7698C74.8217 66.7044 74.6038 66.6717 74.3932 66.6717C74.0518 66.6717 73.754 66.7407 73.4998 66.8787C73.2456 67.0095 73.0349 67.1874 72.8679 67.4126C72.7008 67.6377 72.5774 67.8883 72.4975 68.1643C72.4176 68.4403 72.3776 68.7163 72.3776 68.9923C72.3776 69.2974 72.4248 69.5916 72.5192 69.8748C72.6137 70.1581 72.748 70.4087 72.9224 70.6266C73.1039 70.8445 73.3218 71.0188 73.5761 71.1495C73.8303 71.273 74.1099 71.3348 74.415 71.3348C74.6329 71.3348 74.8544 71.2984 75.0796 71.2258C75.3047 71.1532 75.5117 71.0406 75.7006 70.8881C75.8967 70.7283 76.0456 70.5213 76.1473 70.2671L77.6072 71.1278C77.4547 71.5054 77.2041 71.8287 76.8554 72.0974C76.5068 72.3661 76.111 72.5732 75.6679 72.7184C75.2321 72.8564 74.7999 72.9254 74.3714 72.9254C73.8121 72.9254 73.2964 72.8128 72.8243 72.5877C72.3595 72.3553 71.9563 72.0502 71.615 71.6725C71.2809 71.2875 71.0194 70.859 70.8305 70.3869C70.6489 69.9075 70.5582 69.4209 70.5582 68.927Z" fill="#003B7E"/>
<path d="M70.5582 68.927C70.5582 68.4549 70.6453 67.9936 70.8196 67.5433C70.994 67.0857 71.2482 66.6717 71.5823 66.3013C71.9164 65.9309 72.3231 65.6367 72.8025 65.4188C73.2819 65.1936 73.8266 65.0811 74.4368 65.0811C75.1631 65.0811 75.7914 65.2372 76.3216 65.5495C76.8591 65.8619 77.2586 66.2686 77.52 66.7698L76.1473 67.7285C76.0311 67.4525 75.8749 67.2383 75.6788 67.0857C75.4899 66.9332 75.2793 66.8279 75.0469 66.7698C74.8217 66.7044 74.6038 66.6717 74.3932 66.6717C74.0518 66.6717 73.754 66.7407 73.4998 66.8787C73.2456 67.0095 73.0349 67.1874 72.8679 67.4126C72.7008 67.6377 72.5774 67.8883 72.4975 68.1643C72.4176 68.4403 72.3776 68.7163 72.3776 68.9923C72.3776 69.2974 72.4248 69.5916 72.5192 69.8748C72.6137 70.1581 72.748 70.4087 72.9224 70.6266C73.1039 70.8445 73.3218 71.0188 73.5761 71.1495C73.8303 71.273 74.1099 71.3348 74.415 71.3348C74.6329 71.3348 74.8544 71.2984 75.0796 71.2258C75.3047 71.1532 75.5117 71.0406 75.7006 70.8881C75.8967 70.7283 76.0456 70.5213 76.1473 70.2671L77.6072 71.1278C77.4547 71.5054 77.2041 71.8287 76.8554 72.0974C76.5068 72.3661 76.111 72.5732 75.6679 72.7184C75.2321 72.8564 74.7999 72.9254 74.3714 72.9254C73.8121 72.9254 73.2964 72.8128 72.8243 72.5877C72.3595 72.3553 71.9563 72.0502 71.615 71.6725C71.2809 71.2875 71.0194 70.859 70.8305 70.3869C70.6489 69.9075 70.5582 69.4209 70.5582 68.927Z" fill="url(#paint34_linear_332_456)"/>
<path d="M84.3999 66.6935H82.0466V72.8601H80.2599V66.6935H77.8957V65.1246H84.3999V66.6935Z" fill="#003B7E"/>
<path d="M84.3999 66.6935H82.0466V72.8601H80.2599V66.6935H77.8957V65.1246H84.3999V66.6935Z" fill="url(#paint35_linear_332_456)"/>
<defs>
<linearGradient id="paint0_linear_332_456" x1="103.332" y1="37.9622" x2="103.332" y2="71.8913" gradientUnits="userSpaceOnUse">
<stop offset="0.524288" stop-color="#D9D9D9"/>
<stop offset="0.902592" stop-color="#D9D9D9" stop-opacity="0"/>
</linearGradient>
<linearGradient id="paint1_linear_332_456" x1="102.405" y1="51.2495" x2="102.405" y2="71.1133" gradientUnits="userSpaceOnUse">
<stop stop-color="#003B7E"/>
<stop offset="1" stop-color="#A3CEFF"/>
</linearGradient>
<linearGradient id="paint2_linear_332_456" x1="103.749" y1="51.4004" x2="102.553" y2="72.2304" gradientUnits="userSpaceOnUse">
<stop stop-color="#FF1212"/>
<stop offset="1" stop-color="#B50404"/>
</linearGradient>
<linearGradient id="paint3_linear_332_456" x1="103.749" y1="51.4004" x2="102.553" y2="72.2304" gradientUnits="userSpaceOnUse">
<stop stop-color="#FF1212"/>
<stop offset="1" stop-color="#B50404"/>
</linearGradient>
<linearGradient id="paint4_linear_332_456" x1="103.749" y1="51.4004" x2="102.553" y2="72.2304" gradientUnits="userSpaceOnUse">
<stop stop-color="#FF1212"/>
<stop offset="1" stop-color="#B50404"/>
</linearGradient>
<linearGradient id="paint5_linear_332_456" x1="103.749" y1="51.4004" x2="102.553" y2="72.2304" gradientUnits="userSpaceOnUse">
<stop stop-color="#FF1212"/>
<stop offset="1" stop-color="#B50404"/>
</linearGradient>
<linearGradient id="paint6_linear_332_456" x1="103.749" y1="51.4004" x2="102.553" y2="72.2304" gradientUnits="userSpaceOnUse">
<stop stop-color="#FF1212"/>
<stop offset="1" stop-color="#B50404"/>
</linearGradient>
<linearGradient id="paint7_linear_332_456" x1="103.749" y1="51.4004" x2="102.553" y2="72.2304" gradientUnits="userSpaceOnUse">
<stop stop-color="#FF1212"/>
<stop offset="1" stop-color="#B50404"/>
</linearGradient>
<linearGradient id="paint8_linear_332_456" x1="103.749" y1="51.4004" x2="102.553" y2="72.2304" gradientUnits="userSpaceOnUse">
<stop stop-color="#FF1212"/>
<stop offset="1" stop-color="#B50404"/>
</linearGradient>
<linearGradient id="paint9_linear_332_456" x1="103.749" y1="51.4004" x2="102.553" y2="72.2304" gradientUnits="userSpaceOnUse">
<stop stop-color="#FF1212"/>
<stop offset="1" stop-color="#B50404"/>
</linearGradient>
<linearGradient id="paint10_linear_332_456" x1="103.749" y1="51.4004" x2="102.553" y2="72.2304" gradientUnits="userSpaceOnUse">
<stop stop-color="#FF1212"/>
<stop offset="1" stop-color="#B50404"/>
</linearGradient>
<linearGradient id="paint11_linear_332_456" x1="103.749" y1="51.4004" x2="102.553" y2="72.2304" gradientUnits="userSpaceOnUse">
<stop stop-color="#FF1212"/>
<stop offset="1" stop-color="#B50404"/>
</linearGradient>
<linearGradient id="paint12_linear_332_456" x1="103.749" y1="51.4004" x2="102.553" y2="72.2304" gradientUnits="userSpaceOnUse">
<stop stop-color="#FF1212"/>
<stop offset="1" stop-color="#B50404"/>
</linearGradient>
<linearGradient id="paint13_linear_332_456" x1="103.749" y1="51.4004" x2="102.553" y2="72.2304" gradientUnits="userSpaceOnUse">
<stop stop-color="#FF1212"/>
<stop offset="1" stop-color="#B50404"/>
</linearGradient>
<linearGradient id="paint14_linear_332_456" x1="103.749" y1="51.4004" x2="102.553" y2="72.2304" gradientUnits="userSpaceOnUse">
<stop stop-color="#FF1212"/>
<stop offset="1" stop-color="#B50404"/>
</linearGradient>
<linearGradient id="paint15_linear_332_456" x1="103.749" y1="51.4004" x2="102.553" y2="72.2304" gradientUnits="userSpaceOnUse">
<stop stop-color="#FF1212"/>
<stop offset="1" stop-color="#B50404"/>
</linearGradient>
<linearGradient id="paint16_linear_332_456" x1="103.749" y1="51.4004" x2="102.553" y2="72.2304" gradientUnits="userSpaceOnUse">
<stop stop-color="#FF1212"/>
<stop offset="1" stop-color="#B50404"/>
</linearGradient>
<linearGradient id="paint17_linear_332_456" x1="103.749" y1="51.4004" x2="102.553" y2="72.2304" gradientUnits="userSpaceOnUse">
<stop stop-color="#FF1212"/>
<stop offset="1" stop-color="#B50404"/>
</linearGradient>
<linearGradient id="paint18_linear_332_456" x1="103.749" y1="51.4004" x2="102.553" y2="72.2304" gradientUnits="userSpaceOnUse">
<stop stop-color="#FF1212"/>
<stop offset="1" stop-color="#B50404"/>
</linearGradient>
<linearGradient id="paint19_linear_332_456" x1="103.749" y1="51.4004" x2="102.553" y2="72.2304" gradientUnits="userSpaceOnUse">
<stop stop-color="#FF1212"/>
<stop offset="1" stop-color="#B50404"/>
</linearGradient>
<linearGradient id="paint20_linear_332_456" x1="102.405" y1="48.9685" x2="102.405" y2="54.372" gradientUnits="userSpaceOnUse">
<stop stop-color="#003B7E"/>
<stop offset="1" stop-color="#0054B3"/>
</linearGradient>
<linearGradient id="paint21_linear_332_456" x1="24.5989" y1="34.8979" x2="13.9592" y2="21.3643" gradientUnits="userSpaceOnUse">
<stop stop-color="#38493A"/>
<stop offset="1" stop-color="#039F1C"/>
</linearGradient>
<linearGradient id="paint22_linear_332_456" x1="40.4266" y1="35.9732" x2="31.8071" y2="12.5285" gradientUnits="userSpaceOnUse">
<stop stop-color="#039F1C"/>
<stop offset="1"/>
</linearGradient>
<linearGradient id="paint23_linear_332_456" x1="46.4736" y1="25.8755" x2="145.039" y2="48.8571" gradientUnits="userSpaceOnUse">
<stop stop-color="#039F1C"/>
<stop offset="1" stop-color="#018C17"/>
</linearGradient>
<linearGradient id="paint24_linear_332_456" x1="46.4736" y1="25.8755" x2="145.039" y2="48.8571" gradientUnits="userSpaceOnUse">
<stop stop-color="#039F1C"/>
<stop offset="1" stop-color="#018C17"/>
</linearGradient>
<linearGradient id="paint25_linear_332_456" x1="46.4736" y1="25.8755" x2="145.039" y2="48.8571" gradientUnits="userSpaceOnUse">
<stop stop-color="#039F1C"/>
<stop offset="1" stop-color="#018C17"/>
</linearGradient>
<linearGradient id="paint26_linear_332_456" x1="46.4736" y1="25.8755" x2="145.039" y2="48.8571" gradientUnits="userSpaceOnUse">
<stop stop-color="#039F1C"/>
<stop offset="1" stop-color="#018C17"/>
</linearGradient>
<linearGradient id="paint27_linear_332_456" x1="46.4736" y1="25.8755" x2="145.039" y2="48.8571" gradientUnits="userSpaceOnUse">
<stop stop-color="#039F1C"/>
<stop offset="1" stop-color="#018C17"/>
</linearGradient>
<linearGradient id="paint28_linear_332_456" x1="46.4736" y1="25.8755" x2="145.039" y2="48.8571" gradientUnits="userSpaceOnUse">
<stop stop-color="#039F1C"/>
<stop offset="1" stop-color="#018C17"/>
</linearGradient>
<linearGradient id="paint29_linear_332_456" x1="37.758" y1="69.0298" x2="77.5334" y2="83.499" gradientUnits="userSpaceOnUse">
<stop stop-color="#FF1212"/>
<stop offset="1" stop-color="#C1272D"/>
</linearGradient>
<linearGradient id="paint30_linear_332_456" x1="37.758" y1="69.0298" x2="77.5334" y2="83.499" gradientUnits="userSpaceOnUse">
<stop stop-color="#FF1212"/>
<stop offset="1" stop-color="#C1272D"/>
</linearGradient>
<linearGradient id="paint31_linear_332_456" x1="37.758" y1="69.0298" x2="77.5334" y2="83.499" gradientUnits="userSpaceOnUse">
<stop stop-color="#FF1212"/>
<stop offset="1" stop-color="#C1272D"/>
</linearGradient>
<linearGradient id="paint32_linear_332_456" x1="37.758" y1="69.0298" x2="77.5334" y2="83.499" gradientUnits="userSpaceOnUse">
<stop stop-color="#FF1212"/>
<stop offset="1" stop-color="#C1272D"/>
</linearGradient>
<linearGradient id="paint33_linear_332_456" x1="37.758" y1="69.0298" x2="77.5334" y2="83.499" gradientUnits="userSpaceOnUse">
<stop stop-color="#FF1212"/>
<stop offset="1" stop-color="#C1272D"/>
</linearGradient>
<linearGradient id="paint34_linear_332_456" x1="37.758" y1="69.0298" x2="77.5334" y2="83.499" gradientUnits="userSpaceOnUse">
<stop stop-color="#FF1212"/>
<stop offset="1" stop-color="#C1272D"/>
</linearGradient>
<linearGradient id="paint35_linear_332_456" x1="37.758" y1="69.0298" x2="77.5334" y2="83.499" gradientUnits="userSpaceOnUse">
<stop stop-color="#FF1212"/>
<stop offset="1" stop-color="#C1272D"/>
</linearGradient>
</defs>
</svg>
