<svg width="654" height="532" viewBox="0 0 654 532" fill="none" xmlns="http://www.w3.org/2000/svg">
<path d="M262.885 518.569C367.553 518.569 452.404 433.672 452.404 328.947C452.404 224.221 367.553 139.324 262.885 139.324C158.216 139.324 73.3646 224.221 73.3646 328.947C73.3646 433.672 158.216 518.569 262.885 518.569Z" fill="#FF3737" fill-opacity="0.1"/>
<path d="M271.389 178.962C265.898 181.235 260.382 180.445 254.478 181.296C251.453 181.721 246.46 181.94 244.905 185.343C241.819 192.138 248.343 188.99 250.457 191.421C253.469 194.885 252.315 204.926 259.046 203.88C264.318 203.066 262.241 193.487 267.258 191.227C271.267 189.44 277.123 195.493 279.14 187.762C280.197 183.69 276.71 180.019 272.944 179.691L271.389 178.962Z" fill="url(#paint0_linear_89_8007)"/>
<path d="M306.377 176.628C306.207 174.866 287.595 177.309 285.651 178.768C291.361 183.545 306.936 190.582 311.662 181.199C315.246 173.966 305.405 166.989 306.377 176.628Z" fill="url(#paint1_linear_89_8007)"/>
<path d="M356.09 194.496C354.061 184.772 339.762 189.634 335.959 178.901C341.268 174.1 351.169 178.403 356.187 182.049C360.512 185.197 365.663 198.872 355.312 195.274L356.09 194.496Z" fill="url(#paint2_linear_89_8007)"/>
<path d="M331.233 220.923C324.904 219.148 318.635 217.058 320.397 208.488C321.32 203.93 333.76 195.968 324.296 193.805C310.787 190.717 309.827 212.038 316.521 218.589C320.081 222.09 326.738 227.219 330.456 220.923H331.233Z" fill="url(#paint3_linear_89_8007)"/>
<path d="M217.837 234.135C214.193 228.544 197.804 231.862 196.893 236.566C194.245 250.192 224.556 242.996 216.331 230.999L217.837 234.135Z" fill="url(#paint4_linear_89_8007)"/>
<path d="M199.189 208.488C201.176 210.281 202.924 212.324 204.389 214.565C201.461 216.462 197.889 214.821 195.314 212.305C189.106 218.382 204.376 217.471 198.448 224.995C195.471 228.775 186.19 230.89 182.096 233.71C175.596 238.207 175.159 242.802 171.162 248.88C168.732 252.526 160.313 261.23 155.065 259.127C147.095 255.942 152.088 241.344 154.64 236.749C159.633 227.79 157.81 225.043 155.66 214.663C154.798 210.457 156.486 202.872 148.662 206.908C144.848 199.493 154.737 197.694 158.94 194.485C163.338 191.106 162.403 188.821 165.221 185.162C168.866 180.3 174.43 178.44 179.8 176.763C180.638 176.495 182.084 179.023 183.724 178.136C186.02 176.921 185.303 173.967 186.785 172.703C191.863 168.412 192.337 170.867 198.497 170.405C201.497 170.187 208.446 165.179 211.301 168.862C214.715 173.262 203.818 176.811 201.522 178.173C209.066 184.785 215.748 163.586 223.195 171.682C229.816 178.914 216.124 180.348 213.767 185.332C210.767 191.701 217.169 196.551 211.702 202.276C208.313 205.777 195.399 204.148 199.189 208.488Z" fill="url(#paint5_linear_89_8007)"/>
<path d="M216.282 276.095C215.748 279.681 213.609 293.112 206.903 286.232C202.433 281.613 211.131 272.545 215.505 276.095H216.282Z" fill="url(#paint6_linear_89_8007)"/>
<path d="M226.439 273.774C229.67 269.848 217.777 258.482 216.404 267.939C215.894 271.476 221.263 275.342 221.421 278.818C221.591 284.009 215.347 287.023 219.781 292.347C226.038 289.977 237.348 291.581 232.987 281.116C231.007 276.387 226.159 276.788 225.698 270.662L226.439 273.774Z" fill="url(#paint7_linear_89_8007)"/>
<path d="M398.039 203.054C395.956 201.355 393.569 200.068 391.005 199.262C384.931 206.227 396.253 212.851 402.583 211.478C402.806 209.862 402.571 208.216 401.905 206.726C401.24 205.237 400.169 203.965 398.817 203.054H398.039Z" fill="url(#paint8_linear_89_8007)"/>
<path d="M425.216 406.655C415.047 407.056 414.112 416.683 410.637 424.414C408.208 430.006 396.727 437.992 396.8 444.252C396.97 458.972 414.185 434.527 416.238 431.549C420.478 425.459 426.783 415.674 425.216 406.655Z" fill="url(#paint9_linear_89_8007)"/>
<path d="M433.768 356.15C433.258 355.226 434.388 354.873 433.039 354.484C420.721 361.133 421.304 382.879 415.74 394.925C414.046 393.871 412.597 392.467 411.49 390.807C410.384 389.146 409.646 387.268 409.325 385.298C409.07 382.04 416.274 372.34 408.268 371.781C407.345 375.938 407.381 380.29 406.422 384.447C405.875 386.878 403.348 388.337 403.324 391.011C403.324 394.658 407.041 403.555 411.135 403.592C415.679 403.592 417.562 395.897 420.854 393.685C427.609 389.054 429.358 390.792 430.367 380.071C431.023 372.559 432.14 366.02 433.768 356.15Z" fill="url(#paint10_linear_89_8007)"/>
<path d="M437.644 243.458C428.168 245.889 441.289 275.232 439.491 283.157C436.15 278.842 435.749 272.595 432.201 268.948C425.422 274.588 437.717 293.368 436.721 301.767C436.174 306.386 432.128 309.79 431.861 313.837C431.46 319.137 439.879 325.883 434.789 330.599C433.574 325.737 430.233 319.538 426.09 316.621C426.09 327.925 434.376 339.716 428.447 350.729C426.018 355.311 422.13 357.256 420.405 362.398C418.57 367.819 421.304 373.52 418.291 378.576C412.982 376.498 408.572 358.411 401.016 358.508C389.134 358.666 398.258 390.367 388.988 391.327C384.518 391.765 376.159 364.124 370.134 359.347C364.108 354.57 359.115 355.639 351.91 353.767C346.334 352.309 342.58 347.568 337.526 346.11C337.405 355.554 345.763 355.615 351.388 359.335C361.714 366.166 353.684 369.995 346.201 375.452C342.556 378.114 332.606 386.915 327.224 384.301C321.478 381.53 317.311 361.851 312.646 355.858C310.981 353.719 305.527 350.169 304.883 347.495C303.437 341.539 308.187 342.925 309.451 338.452C310.24 335.644 309.524 330.757 306.535 329.092C302.599 326.904 301.979 331.462 298.031 331.523C289.417 331.645 289.928 319.028 285.056 318.529C278.095 317.824 285.384 331.742 284.752 335.255C272.227 329.712 272.154 307.918 257.479 304.867C252.923 312.379 268.74 316.159 270.016 321.337C269.214 321.228 267.793 321.471 266.627 321.337C267.283 322.553 268.279 326.005 266.396 327.524C262.338 330.782 264.112 327.962 262.083 325.798C259.872 323.44 260.686 320 257.345 317.204C253.627 314.105 247.905 314.688 247.237 308.89C242.774 310.894 238.521 313.337 234.542 316.183C229.682 319.623 226.536 327.707 220.874 329.882C214.108 332.471 209.941 327.646 210.099 320.486C210.257 310.847 212.99 316.329 218.068 313.4C225.151 309.316 221.373 309.012 221.713 301.439C221.822 298.777 219.66 299.178 221.02 296.796C222.697 293.818 228.832 294.51 231.383 292.566C234.542 290.135 234.117 286.257 236.473 283.814C239.79 280.35 238.745 282.841 243.082 281.2C249.594 278.769 254.83 276.594 262.18 276.022C271.146 275.317 272.567 274.624 274.705 266.152C275.422 266.383 275.92 266.614 276.698 266.809C277.633 258.057 282.869 262.056 288.154 258.361C284.959 251.323 271.559 261.424 270.502 252.356C269.846 246.801 278.569 246.643 279.14 242.109C280.184 233.758 271.462 239.338 269.081 241.927C260.965 250.764 267.683 256.61 264.707 265.775C260.832 277.724 254.721 270.443 250.979 263.66C245.779 265.885 241.855 268.085 239.231 261.849C235.38 252.721 246.848 249.147 251.1 244.212C255.207 239.459 254.587 233.272 258.487 228.617C260.584 226.285 263.161 224.435 266.04 223.193C268.919 221.951 272.033 221.346 275.167 221.421C280.768 221.822 298.529 224.861 302.101 228.617C313.836 240.979 292.236 235.995 288.628 236.785C292.6 242.996 298.104 246.971 304.36 242.218C307.616 239.787 305.867 236.044 310.714 234.925C309.499 232.895 309.876 229.954 309.426 228.301C310.483 228.969 314.978 231.583 316.412 231.169C319.06 230.404 319.51 226.879 321.162 226.526C325.681 225.566 331.95 230.501 335.425 225.614C339.543 226.83 341.56 232.178 345.581 231.412C343.151 227.486 335.17 218.212 340.138 213.909C347.743 218.589 346.784 236.214 353.696 237.794C355.543 232.567 344.597 218.346 348.715 215.489C353.745 211.988 360.718 223.025 365.043 225.614C362.383 218.832 354.741 212.061 354.255 204.671C361.168 202.24 363.087 201.304 366.404 194.558C373.79 193.95 374.191 202.629 376.912 206.968C376.975 208.254 377.296 209.514 377.855 210.673C378.414 211.832 379.201 212.866 380.168 213.714C381.287 214.04 382.465 214.106 383.613 213.906C384.761 213.706 385.847 213.245 386.789 212.56C393.228 214.48 389.389 210.663 396.107 216.875C402.352 222.636 399.837 221.178 406.507 221.555C416.76 222.041 437.996 229.699 437.644 243.458Z" fill="url(#paint11_linear_89_8007)"/>
<path d="M271.389 343.715C265.74 340.773 257.211 341.406 253.7 336.774C249.387 331.074 254.478 327.561 243.495 328.144C237.579 328.46 233.266 331.317 227.921 333.225C224.033 334.623 218.42 333.918 215.007 335.583C206.345 339.825 203.453 352.479 197.039 359.006C193.394 362.75 189.907 362.726 188.267 368.22C187.052 372.231 188.073 381.409 189.604 385.541C193.686 396.481 200.78 389.419 207.827 394.451C211.811 397.308 210.426 401.586 215.541 403.507C216.562 403.896 218.299 401.525 219.538 401.829C222.709 402.595 224.24 405.573 227.131 406.606C233.691 408.928 249.144 400.529 251.611 409.378C252.826 413.632 247.832 415.796 248.962 420.026C249.958 423.77 256.251 426.103 257.794 429.92C261.074 437.918 251.501 442.282 254.344 451.8C255.559 455.835 258.985 460.624 260.589 464.806C265.059 476.426 267.635 474.883 278.156 469.51C283.938 466.544 290.304 467.079 295.492 463.991C302.368 459.919 302.149 451.241 307.227 446.403C312.306 441.565 318.538 442.878 318.343 433.761C318.173 425.933 313.897 424.329 321.089 416.878C325.499 412.307 355.664 393.588 341.45 390.258C335.376 388.848 333.214 393.442 327.285 390.549C320.494 387.219 316.898 377.251 313.035 371.344C310.945 368.159 307.531 364.817 305.976 361.34C304.421 357.864 305.344 349.598 302.562 346.827C300.461 344.748 296.816 345.161 293.985 344.335C292.066 343.776 288.81 341.758 286.951 341.211C280.622 339.351 277.633 340.968 272.263 343.302C272.239 342.39 272.215 341.491 271.389 343.715Z" fill="url(#paint12_linear_89_8007)"/>
<path d="M111.427 391.899C111.633 392.179 116.857 394.512 118.291 397.187C120.101 400.554 118.291 405.16 118.412 408.989C118.849 418.009 122.057 423.017 130.026 427.538C145.978 436.679 144.313 447.692 152.198 463.639C156.766 472.865 168.064 490.807 179.848 490.381C183.347 482.237 169.789 478.141 171.514 469.34C172.911 462.242 180.14 463.19 183.274 456.723C185.048 453.077 183.711 449.053 185.449 445.407C186.931 442.295 190.685 440.617 192.106 437.287C196.966 425.812 188.097 422.202 180.115 417.304C172.134 412.405 163.569 409.779 155.745 404.796C149.987 401.149 145.516 394.561 139.442 391.753C133.149 388.824 120.137 386.757 113.929 391.024C113.455 389.577 113.079 388.046 111.427 391.899Z" fill="url(#paint13_linear_89_8007)"/>
<path d="M105.207 368.585C104.587 367.843 103.992 369.241 103.7 367.977C112.447 366.615 122.603 382.113 129.03 373.264C125.386 369.484 105.17 360.343 103.651 367.029L105.207 368.585Z" fill="url(#paint14_linear_89_8007)"/>
<path d="M139.381 210.043C135.894 208.767 132.383 210.371 128.569 209.921C129.711 205.631 134.436 204.524 135.712 200.72C137.413 195.663 135.615 189.938 143.147 187.616C143.147 189.257 144.083 190.643 144.216 192.102C148.164 189.27 147.946 183.824 152.587 180.882C156.596 178.342 165.622 176.421 170.397 175.157C168.21 182.572 158.029 187.859 152.453 192.965C150.214 195.152 148.12 197.482 146.184 199.942C144.289 202.13 147.047 205.533 141.665 203.929C141.458 206.481 140.474 209.192 139.381 210.043Z" fill="url(#paint15_linear_89_8007)"/>
<path d="M114.537 203.831C117.537 203.406 137.097 195.772 128.338 205.229C126.831 206.858 123.673 204.621 121.692 206.311C120.198 207.599 118.971 212.863 118.509 214.589C121.097 213.616 134.874 215.354 137.255 217.02C135.785 220.666 131.508 221.396 127.84 221.104C128.459 226.051 132.347 223.596 135.566 225.614C140.146 228.494 140.28 229.26 141.009 234.232C141.264 235.921 138.202 236.578 138.579 238.693C138.943 240.54 143.074 240.856 143.11 243.154C143.11 247.141 142.734 249.9 136.538 247.846C131.241 246.083 133.78 242.789 130.78 238.802C128.095 235.253 128.022 237.112 125.033 235.35C122.373 233.782 120.077 236.954 118.959 231.886C118.57 230.002 121.802 226.537 122.057 224.216C120.259 224.532 117.829 223.596 115.982 223.973C116.59 222.83 116.845 220.606 117.392 219.67C113.528 222.708 107.393 225.285 105.34 219.05C103.287 212.814 113.784 206.299 114.537 203.831Z" fill="url(#paint16_linear_89_8007)"/>
<path d="M122.3 254.337C118.072 253.961 119.53 251.177 123.077 248.71C126.625 246.242 129.419 246.084 132.796 248.491C137.012 251.505 137.656 257.473 131.581 258.288C128.107 258.75 125.871 254.666 122.3 254.337Z" fill="url(#paint17_linear_89_8007)"/>
<path d="M95.1109 232.579C98.6462 227.486 103.19 229.917 103.809 235.448C106.093 233.455 107.15 234.464 109.033 234.026C108.086 239.022 103.591 242.462 102.959 247.263C108.62 247.263 108.547 241.587 112.994 239.97C114.634 239.362 118.291 240.359 119.821 240.48C118.558 254.119 103.737 256.416 101.307 269.13C99.5331 278.478 99.4602 294.316 108.098 299.92C114.78 291.411 109.847 279.134 116.067 269.532C125.143 255.492 122.045 270.747 126.297 276.885C128.508 274.685 129.261 271.671 130.913 269.057C138.13 270.978 136.331 279.912 138.069 285.273C138.518 286.622 142.236 286.148 142.418 289.211C142.539 291.204 139.089 294.413 137.777 295.544C140.79 298.06 144.811 298.206 146.087 302.241C136.368 306.921 139.308 297.914 133.938 295.896C128.775 293.964 122.203 298.911 121.51 304.016C126.649 304.186 130.281 304.162 130.124 311.054C129.966 317.946 124.572 317.982 120.72 321.994C117.076 325.835 115.375 330.612 112.982 334.927C110.868 338.731 108.997 349.367 106.093 350.729C105.911 354.546 106.762 358.399 106.543 362.179C102.194 358.435 100.469 346.9 93.483 353.78C88.0282 359.14 94.1876 370.566 98.4275 374.577C99.1929 373.872 99.6424 373.435 100.347 372.657C104.174 376.595 103.457 382.843 106.774 386.526C109.932 385.25 111.633 388.325 111.342 391.753C102.704 391.437 97.7958 380.035 91.9766 374.966C84.0192 368.038 75.8431 357.779 72.2349 346.401C59.5152 306.277 75.2599 253.025 95.1109 232.579Z" fill="url(#paint18_linear_89_8007)"/>
<path d="M362.176 288.383C363.937 281.546 321.389 264.663 267.143 250.675C212.897 236.686 167.494 230.889 165.732 237.726C163.971 244.564 206.519 261.446 260.765 275.435C315.011 289.424 360.415 295.221 362.176 288.383Z" fill="#092640"/>
<path d="M442.26 44.6601C435.761 45.3618 429.217 45.5487 422.689 45.2193C396.217 43.8457 369.465 38.388 343.856 48.3432C325.256 55.5634 310.665 75.8141 300.448 95.9918C307.009 97.5842 313.557 99.2251 320.129 100.562C326.759 101.813 333.479 102.52 340.223 102.677C349.043 96.3565 362.941 87.3859 360.876 103.334C360.876 103.613 360.876 103.832 360.791 104.124C358.179 120.57 280.767 144.516 306 161.253C319.364 170.115 349.578 141.805 361.763 138.426C365.509 137.447 369.322 136.745 373.171 136.323C379.682 135.46 386.158 134.706 392.268 131.655C400.274 127.656 404.417 121.226 410.917 115.854C421.571 107.053 434.194 102.179 447.521 99.1765C442.758 83.61 440.703 67.3406 441.446 51.0781C441.542 48.9201 441.814 46.7736 442.26 44.6601Z" fill="#F3B7A8"/>
<path d="M639.811 5.99369C630.092 -8.00918 598.821 6.60145 583.683 8.92311C561.354 12.3266 538.733 16.5323 516.246 18.5136C506.077 19.4131 498.885 19.1457 491.523 25.7217C485.194 31.3861 486.968 34.4492 486.968 34.4492C489.106 56.122 492.204 76.8103 499.056 97.4257C499.893 99.8762 501.503 101.988 503.643 103.444C505.784 104.9 508.339 105.62 510.925 105.497C520.996 105.059 533.91 99.4191 542.669 96.5991C579.176 84.772 617.36 85.5378 654 76.3241C652.579 66.0772 650.757 55.6601 648.703 45.4497C646.65 35.2393 645.836 14.6604 639.811 5.99369Z" fill="#092640"/>
<path d="M361.726 138.426C349.578 141.842 319.327 170.115 305.964 161.254C280.731 144.516 358.203 120.57 360.755 104.124C360.755 103.832 360.755 103.613 360.84 103.334C353.988 102.957 347.099 102.945 340.187 102.677C333.442 102.52 326.722 101.813 320.093 100.562C313.52 99.2252 306.972 97.5842 300.412 95.9918C295.71 94.8614 291.009 93.7431 286.283 92.7829C280.816 91.6767 262.605 84.7118 257.818 86.7052C253.032 88.6987 253.129 94.7885 251.21 99.9788C244.261 118.929 234.371 136.615 227.483 155.541C218.87 179.328 207 210.069 198.496 237.443C196.577 243.52 194.852 249.489 193.333 255.141C210.402 261.863 234.043 269.399 260.491 276.255C281.594 281.724 301.347 285.979 317.712 288.665C318.618 288.402 319.507 288.082 320.372 287.705C322.575 281.781 324.815 275.886 327.09 270.019C338.996 239.315 351.801 209.06 362.322 177.785C366.392 165.714 369.441 150.958 373.183 136.323C369.318 136.742 365.488 137.445 361.726 138.426Z" fill="#F0F9FF"/>
<g style="mix-blend-mode:multiply" opacity="0.2">
<path d="M639.239 57.3009C612.257 62.0415 584.91 65.8947 558.147 71.79C547.772 74.0752 538.405 79.1683 528.334 81.6479L524.082 83.7629C515.983 84.1762 512.225 80.9834 512.808 74.1846C511.143 71.9116 509.953 69.1645 508.094 66.7456C505.409 63.2448 500.04 65.53 499.493 69.4562C496.346 92.3689 507.997 106.141 530.496 97.2675C566.214 83.1552 604.081 78.6699 641.876 72.0331C651.315 70.3678 648.728 55.6356 639.239 57.3009Z" fill="#94E6F7"/>
</g>
<path d="M498.144 92.7578C498.29 93.4993 498.327 93.5722 498.144 92.7578V92.7578Z" fill="#94E6F7"/>
<path d="M498.096 92.7574C496.881 88.029 488.984 54.9667 486.968 34.4121C483.007 36.8432 475.475 37.7305 471.721 38.7515C462.077 41.5076 452.224 43.4711 442.26 44.6225C441.804 46.723 441.519 48.8573 441.41 51.0041C440.984 61.113 441.599 71.239 443.244 81.2221C457.75 78.3413 474.09 77.697 485.765 81.8298C489.324 83.0454 489.106 87.8102 486.105 89.4877C474.187 96.1731 460.155 95.0426 446.695 96.5377C446.95 97.3886 447.168 98.2516 447.436 99.1025C464.091 95.3951 481.78 94.5807 498.096 92.7574Z" fill="#DCE6EF"/>
<g style="mix-blend-mode:multiply" opacity="0.2">
<path d="M425.434 86.2668C410.261 92.0162 392.912 105.569 389.924 122.113C389.292 125.686 393.678 128.494 396.739 126.878C412.69 118.454 419.02 102.397 438.531 97.9115C441.24 97.3065 443.982 96.86 446.743 96.5744C445.288 91.5396 444.12 86.4262 443.244 81.2588C437.182 82.442 431.225 84.1169 425.434 86.2668Z" fill="#FBAB94"/>
</g>
<path d="M485.813 81.8676C474.09 77.7348 457.75 78.379 443.293 81.2598C444.168 86.4272 445.337 91.5406 446.792 96.5755C460.252 95.0804 474.284 96.2108 486.202 89.5254C489.154 87.848 489.373 83.1196 485.813 81.8676Z" fill="#94E6F7"/>
<path d="M485.813 81.8676C474.09 77.7348 457.75 78.379 443.293 81.2598C444.168 86.4272 445.337 91.5406 446.792 96.5755C460.252 95.0804 474.284 96.2108 486.202 89.5254C489.154 87.848 489.373 83.1196 485.813 81.8676Z" fill="#E1E4E9"/>
<g style="mix-blend-mode:multiply" opacity="0.2">
<path d="M373.887 129.747C366.501 125.261 359.151 123.475 350.902 127.51C345.168 130.318 336.603 139.447 340.916 146.399C341.214 146.976 341.684 147.446 342.261 147.745C342.837 148.043 343.492 148.155 344.135 148.065C348.46 147.566 352.773 143.312 356.466 141.124C360.67 138.62 366.829 135.192 371.871 135.229C374.653 135.241 376.694 131.448 373.887 129.747Z" fill="#FBAB94"/>
</g>
<g style="mix-blend-mode:multiply" opacity="0.2">
<path d="M368.894 85.4645C366.282 78.7426 357.122 77.0895 350.756 78.0741C342.969 79.2896 335.218 84.9418 331.112 91.5543C327.929 96.6595 333.189 104.597 339.227 101.169C345.265 97.7413 350.027 90.91 357.365 93.5964C360.208 94.6417 362.953 96.1003 365.991 94.508C369.307 92.7698 370.17 88.7586 368.894 85.4645Z" fill="#FBAB94"/>
</g>
<g style="mix-blend-mode:multiply" opacity="0.2">
<path d="M344.439 148.952C325.001 181.103 315.464 219.757 308.309 256.976C290.086 241.065 268.109 233.456 242.827 234.331C237.251 234.525 236.06 242.767 241.989 243.265C267.306 245.562 290.737 257.624 307.325 276.899C311.759 282.016 319.218 278.892 320.336 272.802C327.868 231.778 343.078 193.599 352.773 153.328C353.927 148.551 347.488 143.92 344.439 148.952Z" fill="#94E6F7"/>
</g>
<path opacity="0.2" d="M635.121 11.9387C618.672 10.5044 601.518 15.9135 585.202 18.1744C565.582 20.885 545.925 22.6961 526.171 24.0575C516.124 24.7382 503.842 25.4919 498.472 35.5807C494.56 42.9468 496.881 49.9361 503.66 54.1297C506.843 56.0988 511.86 53.6799 510.876 49.535C509.115 42.1567 524.568 39.0693 528.759 38.7776C533.412 38.4615 538.053 38.182 542.694 37.8173C554.292 36.9097 565.865 35.7266 577.415 34.268C596.5 31.8369 619.704 30.9739 636.87 21.8574C641.293 19.4993 640.43 12.4128 635.121 11.9387Z" fill="white"/>
<path opacity="0.2" d="M475.888 41.985C456.713 49.3105 436.034 51.8148 415.667 49.2782C401.732 47.6007 388.441 43.6503 374.264 44.4161C352.761 45.6316 320.336 57.0454 313.156 79.6664C311.88 83.6897 315.974 88.175 320.081 86.0114C332.011 79.8365 340.503 69.2007 353.332 64.0468C369.696 57.4587 385.125 59.0632 401.999 61.9197C430.233 66.6967 454.239 63.4269 479.119 48.719C479.908 48.2316 480.489 47.4694 480.749 46.5792C481.01 45.6891 480.932 44.734 480.531 43.8978C480.129 43.0617 479.433 42.4037 478.576 42.0505C477.719 41.6973 476.761 41.674 475.888 41.985Z" fill="white"/>
<path opacity="0.2" d="M274.681 95.1892C251.282 87.2031 244.406 126.295 239.656 141.44C229.816 172.788 223.231 205.62 211.252 236.251C208.762 242.584 218.141 245.757 220.971 239.898C230.971 218.748 239.164 196.791 245.463 174.259C247.759 166.334 261.84 106.032 272.676 109.484C273.542 109.784 274.47 109.855 275.371 109.69C276.272 109.525 277.115 109.13 277.818 108.543C278.521 107.956 279.061 107.196 279.384 106.339C279.707 105.481 279.803 104.555 279.662 103.649L279.188 100.683C278.987 99.4515 278.464 98.2947 277.673 97.33C276.881 96.3652 275.849 95.6267 274.681 95.1892Z" fill="white"/>
<path d="M311.637 119.694C302.793 119.317 277.086 137.927 271.413 143.932C270.655 136.645 268.254 129.625 264.391 123.401C261.633 119.062 254.854 121.931 256.98 126.927C262.192 139.155 261.524 152.574 260.455 165.544C259.957 171.621 269.809 174.393 271.291 167.975C274.426 154.604 301.797 133.563 312.876 126.732C315.719 125.018 315.671 119.876 311.637 119.694Z" fill="#29CC31"/>
<path d="M322.097 140.541C312.281 139.387 294.872 149.925 306.401 159.127C316.169 166.955 339.348 142.571 322.097 140.541Z" fill="#F39B86"/>
<path d="M468.198 88.2729C472.224 88.2729 475.487 85.0076 475.487 80.9797C475.487 76.9518 472.224 73.6865 468.198 73.6865C464.172 73.6865 460.909 76.9518 460.909 80.9797C460.909 85.0076 464.172 88.2729 468.198 88.2729Z" fill="#092640"/>
<g opacity="0.6">
<path d="M234.663 29.7692C228.37 29.7692 223.559 34.2302 223.559 32.5649C223.559 17.8935 211.471 11.6943 203.186 11.6943C196.662 11.6943 186.372 18.9875 181.598 32.1152C181.405 32.5198 181.115 32.8705 180.754 33.1361C180.393 33.4016 179.972 33.574 179.528 33.6377C179.085 33.7014 178.633 33.6546 178.211 33.5014C177.79 33.3482 177.414 33.0933 177.115 32.7594C174.296 29.4046 168.939 26.9249 159.086 27.3989C150.873 27.8001 146.257 30.5472 146.257 40.5145C146.257 63.7311 179.058 75.6189 205.458 75.6189C228.747 75.6189 253.858 66.2715 253.858 43.8815C253.858 33.7318 246.435 29.7692 234.663 29.7692Z" fill="white"/>
</g>
<g opacity="0.6">
<path d="M487.356 485.591C481.063 485.591 476.252 490.052 476.252 488.387C476.252 473.716 464.164 467.517 455.879 467.517C449.355 467.517 439.065 474.81 434.291 487.937C434.098 488.342 433.808 488.693 433.447 488.958C433.086 489.224 432.665 489.396 432.222 489.46C431.778 489.524 431.326 489.477 430.905 489.324C430.484 489.17 430.107 488.916 429.808 488.582C426.989 485.227 421.632 482.747 411.779 483.221C403.567 483.622 398.95 486.369 398.95 496.337C398.95 519.553 431.752 531.441 458.151 531.441C481.44 531.441 506.551 522.094 506.551 499.704C506.551 489.554 499.128 485.591 487.356 485.591Z" fill="white"/>
</g>
<path opacity="0.6" d="M503.721 274.419C487.381 277.956 453.218 277.895 439.952 277.895C408.074 277.895 383.157 264.524 383.157 251.591C383.157 245.659 391.223 237.625 402.777 237.625C418.303 237.625 413.589 249.415 413.589 228.703C413.589 212.755 427.621 204.271 440.462 204.271C446.075 204.271 450.181 204.89 453.401 213.715C453.634 214.37 454.023 214.958 454.532 215.431C455.042 215.903 455.659 216.245 456.329 216.428C457 216.61 457.704 216.628 458.383 216.48C459.062 216.331 459.695 216.021 460.228 215.575C464.671 212.025 470.229 210.169 475.912 210.336C492.92 210.336 495.569 218.845 495.569 231.51C495.569 237.454 493.637 233.626 515.323 233.626C537.458 233.626 544.479 245.963 540.41 254.375C533.801 268.001 517.837 271.368 503.721 274.419Z" fill="white"/>
<path opacity="0.6" d="M58.932 500.507C75.272 504.044 109.434 503.983 122.713 503.983C154.579 503.983 179.484 490.612 179.484 477.679C179.484 471.747 171.417 463.712 159.863 463.712C144.337 463.712 149.051 475.503 149.051 454.791C149.051 438.843 135.019 430.358 122.178 430.358C116.565 430.358 112.459 430.978 109.24 439.803C109.006 440.458 108.618 441.046 108.108 441.519C107.598 441.991 106.981 442.333 106.311 442.516C105.641 442.698 104.936 442.716 104.257 442.568C103.578 442.419 102.945 442.109 102.412 441.663C97.9692 438.113 92.4113 436.257 86.7282 436.424C69.72 436.424 67.0838 444.933 67.0838 457.598C67.0838 463.542 69.0032 459.713 47.3178 459.713C25.1828 459.713 18.1609 472.051 22.2307 480.462C28.8032 494.088 44.8152 497.456 58.932 500.507Z" fill="white"/>
<path opacity="0.6" d="M1.38359 146.618C-5.60192 137.137 15.0509 114.577 36.6877 140.188C36.8813 140.43 37.1452 140.605 37.443 140.69C37.7407 140.776 38.0575 140.766 38.3497 140.664C38.6418 140.561 38.8948 140.37 39.0737 140.117C39.2526 139.864 39.3486 139.562 39.3483 139.252C39.3483 135.897 38.8624 132.396 38.8624 129.029C38.8624 114.941 53.0521 111.161 60.9973 111.161C76.2682 111.161 76.7056 119.025 77.4953 125.407C77.5321 125.708 77.6591 125.992 77.8597 126.22C78.0602 126.448 78.3249 126.61 78.6191 126.685C78.9132 126.76 79.2232 126.744 79.5082 126.639C79.7933 126.535 80.0402 126.347 80.2166 126.1C86.2909 117.591 94.0418 106.651 105.911 106.651C114.415 106.651 121.304 114.868 121.304 124.884C121.301 126.768 121.076 128.645 120.635 130.476C120.566 130.765 120.584 131.068 120.687 131.347C120.79 131.625 120.974 131.867 121.216 132.04C121.457 132.214 121.744 132.311 122.041 132.321C122.338 132.33 122.631 132.25 122.883 132.092C125.701 130.206 128.973 129.11 132.359 128.92C141.094 128.92 145.637 142.74 145.637 151.176C145.637 170.625 125.434 167.683 110.321 167.683C38.8016 167.647 18.7562 170.357 1.38359 146.618Z" fill="white"/>
<defs>
<linearGradient id="paint0_linear_89_8007" x1="244.5" y1="191.546" x2="278.277" y2="193.812" gradientUnits="userSpaceOnUse">
<stop stop-color="#FF1212"/>
<stop offset="1" stop-color="#C1272D"/>
</linearGradient>
<linearGradient id="paint1_linear_89_8007" x1="285.963" y1="178.914" x2="311.549" y2="181.261" gradientUnits="userSpaceOnUse">
<stop stop-color="#FF1212"/>
<stop offset="1" stop-color="#C1272D"/>
</linearGradient>
<linearGradient id="paint2_linear_89_8007" x1="336.255" y1="186.387" x2="360.616" y2="187.929" gradientUnits="userSpaceOnUse">
<stop stop-color="#FF1212"/>
<stop offset="1" stop-color="#C1272D"/>
</linearGradient>
<linearGradient id="paint3_linear_89_8007" x1="312.691" y1="208.804" x2="330.737" y2="209.334" gradientUnits="userSpaceOnUse">
<stop stop-color="#FF1212"/>
<stop offset="1" stop-color="#C1272D"/>
</linearGradient>
<linearGradient id="paint4_linear_89_8007" x1="196.974" y1="237.524" x2="217.175" y2="239.09" gradientUnits="userSpaceOnUse">
<stop stop-color="#FF1212"/>
<stop offset="1" stop-color="#C1272D"/>
</linearGradient>
<linearGradient id="paint5_linear_89_8007" x1="148.702" y1="213.802" x2="222.891" y2="216.765" gradientUnits="userSpaceOnUse">
<stop stop-color="#FF1212"/>
<stop offset="1" stop-color="#C1272D"/>
</linearGradient>
<linearGradient id="paint6_linear_89_8007" x1="205.784" y1="281.772" x2="215.994" y2="282.173" gradientUnits="userSpaceOnUse">
<stop stop-color="#FF1212"/>
<stop offset="1" stop-color="#C1272D"/>
</linearGradient>
<linearGradient id="paint7_linear_89_8007" x1="216.574" y1="278.407" x2="233.497" y2="278.912" gradientUnits="userSpaceOnUse">
<stop stop-color="#FF1212"/>
<stop offset="1" stop-color="#C1272D"/>
</linearGradient>
<linearGradient id="paint8_linear_89_8007" x1="389.425" y1="205.504" x2="402.287" y2="206.165" gradientUnits="userSpaceOnUse">
<stop stop-color="#FF1212"/>
<stop offset="1" stop-color="#C1272D"/>
</linearGradient>
<linearGradient id="paint9_linear_89_8007" x1="397.133" y1="427.94" x2="424.698" y2="428.829" gradientUnits="userSpaceOnUse">
<stop stop-color="#FF1212"/>
<stop offset="1" stop-color="#C1272D"/>
</linearGradient>
<linearGradient id="paint10_linear_89_8007" x1="403.678" y1="379.209" x2="432.963" y2="380.073" gradientUnits="userSpaceOnUse">
<stop stop-color="#FF1212"/>
<stop offset="1" stop-color="#C1272D"/>
</linearGradient>
<linearGradient id="paint11_linear_89_8007" x1="212.766" y1="293.614" x2="433.103" y2="305.845" gradientUnits="userSpaceOnUse">
<stop stop-color="#FF1212"/>
<stop offset="1" stop-color="#C1272D"/>
</linearGradient>
<linearGradient id="paint12_linear_89_8007" x1="189.564" y1="401.34" x2="340.792" y2="409.13" gradientUnits="userSpaceOnUse">
<stop stop-color="#FF1212"/>
<stop offset="1" stop-color="#C1272D"/>
</linearGradient>
<linearGradient id="paint13_linear_89_8007" x1="112.382" y1="439.845" x2="191.274" y2="442.871" gradientUnits="userSpaceOnUse">
<stop stop-color="#FF1212"/>
<stop offset="1" stop-color="#C1272D"/>
</linearGradient>
<linearGradient id="paint14_linear_89_8007" x1="103.947" y1="370.369" x2="128.107" y2="372.938" gradientUnits="userSpaceOnUse">
<stop stop-color="#FF1212"/>
<stop offset="1" stop-color="#C1272D"/>
</linearGradient>
<linearGradient id="paint15_linear_89_8007" x1="129.055" y1="192.721" x2="169.195" y2="195.012" gradientUnits="userSpaceOnUse">
<stop stop-color="#FF1212"/>
<stop offset="1" stop-color="#C1272D"/>
</linearGradient>
<linearGradient id="paint16_linear_89_8007" x1="105.517" y1="224.698" x2="142.084" y2="226.076" gradientUnits="userSpaceOnUse">
<stop stop-color="#FF1212"/>
<stop offset="1" stop-color="#C1272D"/>
</linearGradient>
<linearGradient id="paint17_linear_89_8007" x1="119.904" y1="252.587" x2="135.561" y2="253.641" gradientUnits="userSpaceOnUse">
<stop stop-color="#FF1212"/>
<stop offset="1" stop-color="#C1272D"/>
</linearGradient>
<linearGradient id="paint18_linear_89_8007" x1="68.5645" y1="311.335" x2="144.038" y2="313.074" gradientUnits="userSpaceOnUse">
<stop stop-color="#FF1212"/>
<stop offset="1" stop-color="#C1272D"/>
</linearGradient>
</defs>
</svg>
