<svg width="100" height="100" viewBox="0 0 100 100" fill="none" xmlns="http://www.w3.org/2000/svg">
<g clip-path="url(#clip0_1720_15779)">
<path d="M43.3198 27.2514C42.7491 26.2985 41.6883 25.7515 40.5807 25.8356L16.7733 27.6747C14.363 27.861 12.2159 29.1243 10.8823 31.1411L0.891202 46.2527C-0.119923 47.7821 -0.28086 49.696 0.460931 51.3725C1.20253 53.0491 2.72693 54.2173 4.53844 54.4979L23.843 57.4879C23.9932 57.5112 24.1432 57.5227 24.292 57.5227C25.2809 57.5225 26.2164 57.0211 26.7599 56.1708L43.2749 30.3344C43.8731 29.3983 43.8903 28.2046 43.3198 27.2514Z" fill="#E45A6E"/>
<path d="M72.7485 56.6804C71.7953 56.1097 70.6014 56.127 69.6655 56.7253L43.8294 73.2402C42.851 73.8656 42.3344 75.0097 42.512 76.1572L45.5018 95.4617C45.7825 97.2734 46.9508 98.7976 48.6276 99.5394C49.3248 99.8478 50.0631 99.9999 50.7979 99.9999C51.8293 99.9999 52.8541 99.6996 53.7472 99.1091L68.859 89.1178C70.8758 87.7846 72.1393 85.6374 72.3252 83.2268L74.1643 59.4196C74.25 58.312 73.7016 57.2513 72.7485 56.6804Z" fill="#D82E44"/>
<path d="M37.6696 80.5225C38.8356 81.6885 40.4924 82.234 42.1188 81.9619C65.9686 77.9741 84.8413 58.2273 92.0262 44.3362C100.004 28.9117 100.3 12.6119 99.883 4.9674C99.74 2.34789 97.652 0.259817 95.0325 0.11685C87.388 -0.299944 71.0883 -0.00443828 55.6636 7.97382C41.7727 15.1587 22.026 34.0314 18.0381 57.8812C17.7663 59.5076 18.3116 61.1644 19.4776 62.3304L37.6696 80.5225Z" fill="#F1F1FB"/>
<path d="M98.3865 1.61328L28.5736 71.4262L37.6696 80.5222C38.8356 81.6882 40.4925 82.2336 42.1188 81.9617C65.9686 77.9738 84.8413 58.2271 92.0262 44.3362C100.004 28.9117 100.3 12.6118 99.883 4.96736C99.8115 3.6576 99.2537 2.48066 98.3865 1.61328Z" fill="#D7D6FB"/>
<path d="M68.5016 46.1399C64.7499 46.1401 60.9997 44.7124 58.1437 41.8563C55.3769 39.0897 53.8531 35.4111 53.8531 31.4984C53.8531 27.5857 55.3769 23.907 58.1437 21.1405C63.8548 15.4292 73.1479 15.429 78.8593 21.1405C81.6261 23.907 83.1497 27.5857 83.1497 31.4984C83.1497 35.4111 81.6261 39.0897 78.8593 41.8563C76.0041 44.7118 72.2522 46.1395 68.5016 46.1399ZM60.2151 23.2121H60.2171H60.2151Z" fill="#466288"/>
<path d="M18.0381 57.8814C17.7663 59.5078 18.3116 61.1646 19.4776 62.3306L37.6696 80.5227C38.8356 81.6887 40.4924 82.234 42.1188 81.9621C47.3084 81.0943 52.2619 79.4799 56.9111 77.3426L22.6576 43.0894C20.5203 47.7383 18.9059 52.692 18.0381 57.8814Z" fill="#466288"/>
<path d="M2.98907 82.4094C3.73868 82.4094 4.48868 82.1232 5.06055 81.5512L14.6256 71.9861C15.7697 70.8422 15.7697 68.9871 14.6256 67.843C13.4816 66.6988 11.6268 66.6988 10.4824 67.843L0.917584 77.408C-0.226556 78.552 -0.226556 80.407 0.917584 81.5512C1.48965 82.1234 2.23926 82.4094 2.98907 82.4094Z" fill="#FDB43A"/>
<path d="M23.3914 76.6089C22.2474 75.465 20.3924 75.465 19.2482 76.6089L0.858777 94.9984C-0.285364 96.1423 -0.285364 97.9974 0.858777 99.1416C1.43085 99.7136 2.18065 99.9996 2.93046 99.9996C3.68026 99.9996 4.43007 99.7134 5.00194 99.1414L23.3914 80.7519C24.5355 79.608 24.5355 77.7529 23.3914 76.6089Z" fill="#FDB43A"/>
<path d="M32.1571 85.3746C31.0131 84.2306 29.1581 84.2306 28.0139 85.3746L18.4491 94.9394C17.3049 96.0833 17.3049 97.9384 18.4491 99.0826C19.0211 99.6546 19.771 99.9408 20.5206 99.9408C21.2702 99.9408 22.0202 99.6546 22.592 99.0826L32.1571 89.5175C33.3012 88.3736 33.3012 86.5185 32.1571 85.3746Z" fill="#F57A21"/>
<path d="M0.858795 99.1412C1.43087 99.7133 2.18067 99.9992 2.93047 99.9992C3.68028 99.9992 4.43008 99.7131 5.00196 99.141L23.3914 80.7516C24.5356 79.6076 24.5356 77.7525 23.3914 76.6084L0.858795 99.1412Z" fill="#F57A21"/>
<path d="M28.5736 71.4265L37.6696 80.5225C38.8356 81.6885 40.4925 82.2338 42.1188 81.9619C47.3084 81.0942 52.2619 79.4797 56.9111 77.3424L39.7845 60.2158L28.5736 71.4265Z" fill="#354A67"/>
<path d="M58.1437 41.8566C60.9997 44.7127 64.7499 46.1406 68.5017 46.1402C72.2523 46.1398 76.0042 44.7119 78.8595 41.8566C81.6263 39.0898 83.1499 35.4113 83.1499 31.4986C83.1499 27.5859 81.6263 23.9072 78.8595 21.1406L58.1437 41.8566Z" fill="#354A67"/>
<path d="M68.5015 22.7139C66.2509 22.7139 64.0001 23.5705 62.2868 25.284C60.6269 26.9439 59.7124 29.151 59.7124 31.4986C59.7124 33.8463 60.6269 36.0533 62.2868 37.7133C65.7136 41.14 71.2898 41.1402 74.7165 37.7133C76.3765 36.0531 77.2907 33.8461 77.2907 31.4984C77.2907 29.1508 76.3765 26.9438 74.7165 25.2838C73.0031 23.5705 70.7525 22.7139 68.5015 22.7139Z" fill="#4BBEFD"/>
<path d="M74.7163 25.2837L62.2868 37.7132C65.7136 41.1399 71.2897 41.1401 74.7163 37.7132C76.3763 36.053 77.2905 33.846 77.2905 31.4983C77.2905 29.1507 76.3764 26.9437 74.7163 25.2837Z" fill="#0590FB"/>
</g>
<defs>
<clipPath id="clip0_1720_15779">
<rect width="100" height="100" fill="white"/>
</clipPath>
</defs>
</svg>
