<svg width="62" height="1122" viewBox="0 0 62 1122" fill="none" xmlns="http://www.w3.org/2000/svg">
<rect opacity="0.1" x="26" y="14.3359" width="10" height="1081.66" rx="5" fill="#2B2926"/>
<circle opacity="0.2" cx="31" cy="31" r="31" fill="url(#paint0_linear_261_2843)"/>
<circle cx="31" cy="31" r="17" fill="#0054B2"/>
<circle cx="31" cy="31" r="17" fill="black" fill-opacity="0.2"/>
<circle opacity="0.2" cx="31" cy="243" r="31" fill="#FF3737"/>
<circle cx="31" cy="243" r="17" fill="url(#paint1_linear_261_2843)"/>
<circle opacity="0.2" cx="31" cy="455" r="31" fill="#FF3737"/>
<circle cx="31" cy="455" r="17" fill="url(#paint2_linear_261_2843)"/>
<circle opacity="0.2" cx="31" cy="667" r="31" fill="url(#paint3_linear_261_2843)"/>
<circle cx="31" cy="667" r="17" fill="#0054B2"/>
<circle cx="31" cy="667" r="17" fill="black" fill-opacity="0.2"/>
<circle opacity="0.2" cx="31" cy="879" r="31" fill="url(#paint4_linear_261_2843)"/>
<circle cx="31" cy="879" r="17" fill="#0054B2"/>
<circle cx="31" cy="879" r="17" fill="black" fill-opacity="0.2"/>
<circle opacity="0.2" cx="31" cy="1091" r="31" fill="#FF3737"/>
<circle cx="31" cy="1091" r="17" fill="url(#paint5_linear_261_2843)"/>
<defs>
<linearGradient id="paint0_linear_261_2843" x1="30.9921" y1="0" x2="30.9921" y2="62" gradientUnits="userSpaceOnUse">
<stop stop-color="#003B7E"/>
<stop offset="1" stop-color="#A3CEFF"/>
</linearGradient>
<linearGradient id="paint1_linear_261_2843" x1="14.3957" y1="243.118" x2="47.0552" y2="244.672" gradientUnits="userSpaceOnUse">
<stop stop-color="#FF1212"/>
<stop offset="1" stop-color="#C1272D"/>
</linearGradient>
<linearGradient id="paint2_linear_261_2843" x1="14.3957" y1="455.118" x2="47.0552" y2="456.672" gradientUnits="userSpaceOnUse">
<stop stop-color="#FF1212"/>
<stop offset="1" stop-color="#C1272D"/>
</linearGradient>
<linearGradient id="paint3_linear_261_2843" x1="30.9921" y1="636" x2="30.9921" y2="698" gradientUnits="userSpaceOnUse">
<stop stop-color="#003B7E"/>
<stop offset="1" stop-color="#A3CEFF"/>
</linearGradient>
<linearGradient id="paint4_linear_261_2843" x1="30.9921" y1="848" x2="30.9921" y2="910" gradientUnits="userSpaceOnUse">
<stop stop-color="#003B7E"/>
<stop offset="1" stop-color="#A3CEFF"/>
</linearGradient>
<linearGradient id="paint5_linear_261_2843" x1="14.3957" y1="1091.12" x2="47.0552" y2="1092.67" gradientUnits="userSpaceOnUse">
<stop stop-color="#FF1212"/>
<stop offset="1" stop-color="#C1272D"/>
</linearGradient>
</defs>
</svg>
