<svg width="376" height="376" viewBox="0 0 376 376" fill="none" xmlns="http://www.w3.org/2000/svg">
<path fill-rule="evenodd" clip-rule="evenodd" d="M190.313 81.0485C174.622 81.0264 159.115 84.4228 144.876 91.0004L147.837 95.0663L152.865 95.3373L155.874 92.4331L158.155 93.5561L154.02 97.593L148.526 97.6995C148.817 97.6995 149.002 101.649 149.002 101.649L155.991 101.475L156.767 99.5388L161.62 99.2678L162.183 96.4216L159.339 95.9472L160.31 93.4012L162.475 92.7429L170.036 93.1301L165.872 96.896L166.551 99.8002L170.9 100.458L170.599 95.1728L174.763 93.014L182.14 92.1524L192.818 96.8669V100.933L196.234 101.785L194.429 105.096H189.576L188.149 108.755L177.132 106.16L185.79 101.581L182.49 98.7837L175.025 99.7034L174.365 100.381L174.229 100.536L172.104 102.753L168.551 103.063L168.823 104.825L170.065 105.347L170.017 105.938L167.105 106.344L166.901 108.01L164.135 108.145L163.62 104.825L158.66 106.344L148.526 112.25L149.662 116.422L152.506 118.252L158.165 119.046V125.425L160.795 124.999L163.212 119.965L169.25 118.029V110.285L172.599 107.758L180.704 109.694L180.141 114.776H182.305L188.256 111.872L188.556 118.552L192.895 121.195L192.721 125.164L188.556 126.587L188.848 127.894L193.847 130.169L193.759 132.899L192.284 133.015V132.947L185.975 131.011L185.703 128.978L187.557 127.71V125.909L185.567 125.416L185.062 127.129L181.577 127.652L181.238 127.536V127.72L180.044 127.894L179.073 125.909L177.947 125.416H175.452L174.327 126.384V128.33L176.452 129.036L178.559 129.327L178.083 129.53L176.142 131.65L175.278 130.585L173.453 130.111L168.405 134.835L169.056 135.377L161.611 139.482L154.622 146.742L154.146 149.976L147.138 154.574L143.653 158.05L144.032 165.049L139.179 162.813V158.727H125.871L118.921 162.232L115.912 167.779L114.708 172.184L116.65 176.443L122.124 177.121L130.86 171.312L131.637 174.217L128.967 179.231L135.597 180.354L136.247 190.558L145.323 192.087L151.108 185.446L158.097 186.86L160.562 190.277L167.26 189.89L167.464 187.954L171.152 189.735L175.287 196.26L182.49 196.347L185.082 200.936L185.47 206.599L193.41 209.6L203.417 209.716L206.329 214.498L210.765 215.921L209.921 219.891L205.068 226.048L203.66 239.659L199.273 243.124L192.759 242.921L190.566 246.697L192.187 253.783L185.082 262.893L182.82 267.046L176.025 270.269L171.589 270.947L171.415 272.883L174.511 273.764L174.152 275.788L171.376 278.382L173.074 280.531L176.443 280.618L176.258 283.213L175.355 285.768L175.064 287.84L180.044 292.013L179.384 294.181L172.589 294.075L165.794 288.198L160.553 278.992L161.29 270.124L157.311 264.819L158.922 255.864L156.563 255.206V235.786C156.563 235.786 149.934 230.772 149.575 230.772C149.215 230.772 146.07 229.939 146.07 229.939L145.41 226.231L136.791 215.495L137.645 211.623L137.927 205.311L143.877 201.158L143.032 194.091L134.345 193.433L127.55 185.688L122.697 184.381L119.571 183.81L119.959 180.974L115.98 180.403V182.01L106.166 179.638L102.157 173.52L103.769 170.615L97.4983 161.457L96.4111 154.777H93.8389L94.7028 161.273L99.0513 167.982L98.5757 170.615L94.8872 170.054L90.3639 162.309V153.306L88.4226 152.406C79.7214 176.462 79.8656 202.819 88.8294 226.779C97.7933 250.74 114.995 270.749 137.369 283.242C159.744 295.735 185.839 299.9 211.005 294.996C236.172 290.093 258.776 276.438 274.791 256.465V252.96L270.452 247.152V238.1L267.151 234.818L266.86 231.033L271.073 223.017L263.084 208.98L264.055 199.435L256.882 198.719L254.232 196.056H249.378L246.932 198.331H238.468L238.196 199.077H233.44L222.588 186.734L222.675 177.101L224.481 176.443L225.141 172.764H222.588L221.54 168.892L234.158 159.85V153.403L240.312 149.995L242.807 150.237H247.874L251.834 148.117L264.589 147.149V153.655L274.664 156.201L276.654 157.624H278.508V154.08L284.332 153.519L289.855 157.624H294C293.029 154.4 291.894 151.234 290.622 148.165H290.535L287.574 144.893L287.069 140.382L286.778 139.792L283.954 141.331L282.303 147.72L277.906 143.073L277.732 138.649L273.412 134.98L271.83 133.422H266.889L268.452 137.807L274.383 141.099L275.421 142.183L274.13 142.812L274.198 146.287L271.286 147.488L268.84 146.946L267.287 144.787L271.296 144.99L272.383 143.548L263.511 137.565L262.832 135.019L259.24 138.291L255.571 137.517L249.98 144.738L248.893 147.565L245.34 147.904H240.07L236.925 146.442L235.954 140.189L237.09 137.207L242.448 136.035L248.272 137.207L248.99 133.983L246.505 133.393L247.369 128.388L253.251 127.42L257.348 121.611L261.619 120.914L265.443 121.456H266.85L266.074 115.996L261.415 117.932L259.823 113.886L257.115 113.528L256.591 110.72L258.804 108.329L261.182 107.361C241.527 90.3312 216.359 80.9681 190.323 81.0001L190.313 81.0485ZM135.51 95.8988C134.131 96.712 132.772 97.5446 131.433 98.4255L131.772 98.6095L136.626 99.6453L137.014 101.581L144.653 101.853L143.615 99.413L136.82 99.2097L138.402 97.7382L137.839 95.9376L135.51 95.8988ZM126.327 101.949L126.143 102.085L125.958 102.801H125.172L123.473 104.128V105.299H129.064L130.239 103.74V101.988L126.327 101.949ZM274.286 120.875C273.315 119.723 272.403 118.62 271.432 117.516L268.132 119.21L268.627 120.808L274.286 120.875ZM127.434 108.513C127.434 108.513 129.919 108.087 130.151 108.087C130.248 108.91 130.248 109.742 130.151 110.565L124.531 110.923L123.473 109.636L127.434 108.513ZM133.966 121.553L136.956 120.149L139.654 120.778L138.684 124.389L135.772 125.358L133.966 121.553ZM149.769 130.053V132.386H142.974L140.421 131.679L141.052 130.053L144.333 128.707H148.788V130.053H149.769ZM152.914 133.305V135.561L151.215 136.665L149.089 137.052V133.267L152.914 133.305ZM150.972 132.337V129.646L153.321 131.766L150.972 132.337ZM152.03 137.768V139.985L150.4 141.612H146.808L147.371 139.124L149.07 138.988L149.429 138.136L152.03 137.768ZM143.023 133.257H146.779L141.926 139.985L139.984 138.901L140.431 136.074L143.023 133.257ZM158.427 137.042V139.23H154.836L153.865 137.807V135.755H154.137L158.427 137.042ZM155.107 134.022L156.127 132.938L157.864 134.022L156.486 135.106L155.107 134.022Z" fill="url(#paint0_linear_89_4028)"/>
<path opacity="0.6" fill-rule="evenodd" clip-rule="evenodd" d="M161.327 76.6115C162.204 58.5835 178.413 58.4572 182.091 53.4937L182.515 51.1625C177.218 48.4427 173.472 41.9056 173.472 34.2514C173.472 24.169 179.982 16 187.995 16C196.008 16 202.518 24.169 202.518 34.2514C202.518 41.8279 198.839 48.3358 193.591 51.0945L194.082 53.7462C198.03 58.3601 213.074 58.8846 214.576 75.4168C197.005 71.3315 178.701 71.7422 161.327 76.6115ZM220.345 78.1559C230.043 62.9836 244.143 71.0457 249.806 68.598L251.327 66.8107C248.072 61.7598 248.072 54.1833 251.867 47.5879C256.875 38.8459 266.554 35.0674 273.507 39.0887C280.461 43.11 282.021 53.4937 277.013 62.2357C273.257 68.802 266.843 72.5805 260.939 72.3279L260.063 74.8728C261.18 80.8466 273.96 88.8795 267.064 103.964C253.869 91.5667 237.808 82.6947 220.345 78.1559ZM270.705 109.239C286.624 100.982 294.839 115.067 300.945 115.815L303.17 115.018C302.852 109.015 306.579 102.478 313.157 98.6512C321.825 93.6197 332.082 95.2029 336.098 102.197C340.114 109.19 336.329 118.981 327.681 124.032C321.17 127.811 313.735 127.859 308.756 124.664L306.714 126.402C304.721 132.162 311.809 145.567 298.364 155.144C293.091 137.752 283.582 121.97 270.705 109.239ZM298.904 161.604C316.769 162.488 316.884 178.864 321.825 182.575L324.136 183.002C326.833 177.64 333.315 173.852 340.904 173.852C350.901 173.852 359 180.418 359 188.51C359 196.601 350.901 203.158 340.904 203.158C333.382 203.158 326.939 199.447 324.204 194.163L321.575 194.668C317 198.631 316.48 213.794 300.088 215.319C304.139 197.594 303.732 179.129 298.904 161.604ZM297.372 221.137C312.416 230.918 304.403 245.158 306.849 250.86L308.621 252.404C313.61 249.121 321.141 249.121 327.681 252.948C336.348 257.97 340.095 267.751 336.098 274.755C332.101 281.758 321.854 283.312 313.186 278.271C306.676 274.463 302.929 268.014 303.17 262.059L300.656 261.146C294.714 262.283 286.74 275.163 271.764 268.218C284.051 254.905 292.847 238.709 297.353 221.098L297.372 221.137ZM266.554 271.919C274.75 287.975 260.775 296.26 260.043 302.448L260.833 304.662C266.756 304.342 273.247 308.13 277.042 314.764C282.05 323.506 280.48 333.851 273.517 337.882C266.554 341.913 256.904 338.125 251.896 329.393C248.149 322.826 248.101 315.328 251.27 310.296L249.536 308.266C243.835 306.246 230.544 313.375 221.048 299.845C228.86 297.417 236.378 294.114 243.459 289.995C251.95 285.068 259.727 278.985 266.573 271.919H266.554ZM214.673 300.359C213.815 318.387 197.587 318.523 193.909 323.506L193.485 325.808C198.801 328.548 202.528 335.075 202.528 342.729C202.528 352.821 196.037 361 188.024 361C180.011 361 173.501 352.821 173.501 342.729C173.501 335.143 177.18 328.645 182.409 325.876L181.918 323.225C177.989 318.611 162.926 318.086 161.443 301.583C179.012 305.638 197.305 305.217 214.673 300.359ZM155.655 298.825C146.024 313.997 131.857 305.935 126.194 308.373L124.673 310.189C127.928 315.211 127.928 322.817 124.133 329.393C119.125 338.135 109.446 341.933 102.512 337.882C95.5778 333.832 93.9791 323.477 98.9872 314.735C102.734 308.169 109.157 304.41 115.061 304.662L115.937 302.108C114.839 296.124 102.04 288.091 108.955 273.036C122.154 285.414 138.205 294.277 155.655 298.825ZM105.315 267.742C89.4045 275.988 81.1605 261.914 75.0546 261.156L72.8298 261.943C73.1669 267.946 69.4205 274.493 62.8427 278.32C54.175 283.341 43.9181 281.758 39.9213 274.765C35.9245 267.771 39.6709 257.931 48.3387 252.909C54.8491 249.102 62.2552 249.082 67.2632 252.278L69.2857 250.51C71.2793 244.76 64.2103 231.355 77.6356 221.797C80.0356 229.667 83.3049 237.239 87.382 244.371C92.2739 252.933 98.3078 260.777 105.315 267.684V267.742ZM77.1252 215.416C59.2504 214.532 59.1156 198.184 54.175 194.474L51.8636 194.017C49.1669 199.379 42.6854 203.167 35.0963 203.167C25.0995 203.167 17 196.601 17 188.519C17 180.438 25.0995 173.862 35.0963 173.862C42.6372 173.862 49.0802 177.582 51.7961 182.876L54.4446 182.381C59.0289 178.398 59.5201 163.226 75.9117 161.71C71.8529 179.432 72.2702 197.899 77.1252 215.416ZM78.6469 155.882C63.6035 146.111 71.5971 131.89 69.1701 126.179L67.3788 124.644C62.39 127.927 54.8587 127.927 48.3387 124.1C39.6709 119.049 35.9053 109.287 39.9213 102.265C43.9374 95.2418 54.2038 93.6876 62.8427 98.7192C69.3724 102.517 73.0995 108.977 72.8587 114.931L75.3724 115.834C81.3146 114.698 89.2889 101.818 104.217 108.773C91.9237 122.074 83.1326 138.271 78.6469 155.882ZM109.465 105.101C101.289 89.0447 115.244 80.7591 115.995 74.6008L115.205 72.357C109.263 72.6776 102.772 68.8894 98.9775 62.2843C93.9695 53.5422 95.5682 43.1975 102.502 39.1373C109.437 35.0771 119.135 38.8944 124.124 47.6365C127.899 54.2027 127.918 61.6918 124.75 66.7233L126.502 68.7534C132.204 70.7932 145.494 63.6441 154.971 77.204C137.737 82.5381 122.095 92.1269 109.465 105.101Z" fill="#FF3737"/>
<defs>
<linearGradient id="paint0_linear_89_4028" x1="84.4674" y1="189.751" x2="288.126" y2="199.263" gradientUnits="userSpaceOnUse">
<stop stop-color="#FF1212"/>
<stop offset="1" stop-color="#C1272D"/>
</linearGradient>
</defs>
</svg>
