<svg width="473" height="345" viewBox="0 0 473 345" fill="none" xmlns="http://www.w3.org/2000/svg">
<path d="M277.986 344.529C385.309 344.529 472.312 332.833 472.312 318.405C472.312 303.977 385.309 292.281 277.986 292.281C170.663 292.281 83.6599 303.977 83.6599 318.405C83.6599 332.833 170.663 344.529 277.986 344.529Z" fill="#C9D2DE" fill-opacity="0.2"/>
<path d="M142.515 270.688C153.14 276.148 166.262 277.69 179.88 275.35C183.608 274.712 187.397 274.207 190.992 272.771C192.869 272.017 193.843 271.308 194.073 269.056C197.385 237.481 176.081 206.65 142.612 202.777C132.226 201.571 121.973 202.555 111.702 203.796C109.931 204.009 108.558 204.257 109.045 206.73C111.631 220.302 114.03 233.909 120.095 246.514C124.834 256.738 132.682 265.199 142.515 270.688Z" fill="url(#paint0_linear_89_4195)"/>
<path d="M165.43 318.928C170.096 319.141 173.399 316.694 176.347 313.432C179.296 310.17 181.35 306.287 183.891 302.741C186.954 298.469 190.328 294.621 195.534 292.893C198.102 292.006 197.305 289.888 197.305 288.062C197.305 287.796 197.385 287.53 197.42 287.273C198.146 285.686 198.447 283.957 196.995 282.761C190.222 277.229 184.874 270.076 177.454 265.315C173.363 262.7 169.272 259.828 164.172 259.527L163.287 259.412C160.445 258.995 159.134 260.759 157.974 262.957C154.309 270.093 153.698 270.2 147.411 265.067C141.718 260.422 135.475 256.903 128.073 255.919C123.974 255.378 119.945 255.609 116.262 257.834C116.262 258.215 116.262 258.596 116.332 258.977H115.075C111.923 260.52 111.046 263.17 111.657 266.397C112.056 268.462 113.579 270.767 111.17 272.292C108.762 273.816 106.743 271.999 104.919 270.678C102.086 268.684 99.2258 266.902 95.5335 267.496C95.2637 267.512 95.0002 267.585 94.7606 267.71C94.521 267.835 94.3106 268.01 94.1434 268.223C94.3334 268.71 94.6369 269.145 95.0288 269.49C94.6369 269.145 94.3334 268.71 94.1434 268.223L93.3376 268.347C90.7965 269.526 90.7964 271.423 91.5668 273.79C92.7887 277.531 92.1512 279.233 88.9105 281.36C86.8563 282.707 84.6338 283.807 82.5708 285.136C79.9853 286.812 79.1707 289.391 79.6134 292.299C80.003 294.958 82.1104 296.137 84.3239 296.953C86.2577 297.625 88.2335 298.17 90.2386 298.584C92.3548 299.071 93.5767 300.171 93.7804 302.466C93.9497 303.825 94.3011 305.155 94.8252 306.42C96.2684 310.232 98.6679 311.57 102.794 311.287C105.45 311.1 107.832 310.117 110.276 309.283C111.569 308.849 112.799 308.211 114.101 307.812C117.97 306.624 118.891 307.094 119.954 311.003C120.715 313.813 121.849 316.153 125.134 316.526L126.701 316.579C129.915 317.465 132.899 316.508 135.776 315.249C139.869 313.338 143.84 311.177 147.668 308.778C148.845 308.095 150.041 307.413 151.272 306.837C155.628 304.833 155.911 305.011 156.363 309.762C156.947 315.967 159.329 318.626 164.562 319.016L165.43 318.928Z" fill="url(#paint1_linear_89_4195)"/>
<path d="M273.7 187.911V187.024C272.266 185.792 270.699 186.138 269.043 186.528C251.476 190.419 234.139 188.247 217.458 182.707C199.227 176.661 183.165 166.627 170.459 151.743C164.473 144.723 159.356 137.126 156.292 128.474C150.979 113.564 150.829 98.3348 154.371 82.9106C155.035 79.9941 157.239 77.0777 155.548 73.7979C144.569 81.0313 136.148 90.3035 132.013 103.051C131.086 106.079 130.451 109.19 130.119 112.341C129.366 118.369 131.748 122.242 137.308 124.751C138.194 125.159 139.584 125.035 139.965 126.338C139.867 127.428 138.902 127.667 138.194 127.924C132.35 130.167 131.571 134.741 131.996 140.255C132.571 147.347 132.403 147.347 139.398 147.09C139.479 147.244 139.529 147.413 139.544 147.586C139.558 147.76 139.538 147.935 139.483 148.101C139.428 148.266 139.341 148.419 139.226 148.55C139.111 148.681 138.971 148.787 138.814 148.862C134.386 150.751 135.148 153.711 136.68 157.231C138.448 161.234 140.607 165.052 143.126 168.63C146.056 172.876 149.722 175.722 155.522 174.233C159.205 173.284 163.066 173.036 167.298 172.415C165.979 175.961 162.977 177.619 160.631 179.569C157.895 181.847 157.779 183.602 160.241 185.836C165.959 191.084 172.065 195.89 178.507 200.214C182.439 202.874 186.379 201.81 190.257 200.161C193.533 198.778 196.694 197.103 199.997 195.729C201.299 195.197 203.131 193.841 204.123 195.038C205.292 196.465 203.114 197.537 202.432 198.761C201.745 199.781 200.981 200.747 200.147 201.651C197.208 205.365 197.226 205.799 201.759 207.732C211.295 211.792 221.345 212.217 231.545 212.084C244.897 211.907 256.142 206.065 267.033 199.346C268.7 198.376 270.105 197.015 271.128 195.379C272.151 193.743 272.76 191.883 272.903 189.958C272.802 189.775 272.742 189.571 272.727 189.362C272.713 189.152 272.745 188.942 272.821 188.747C272.897 188.551 273.016 188.375 273.168 188.23C273.32 188.086 273.501 187.977 273.7 187.911Z" fill="url(#paint2_linear_89_4195)"/>
<path d="M273.603 182.814C270.539 171.902 261.632 167.017 252.308 162.886C247.881 160.91 242.985 159.908 238.301 158.454C235.14 157.488 233.643 158.8 232.802 161.894C232.103 164.482 230.713 166.884 229.632 169.366C229.296 170.129 229.021 171.015 227.985 170.891C226.95 170.767 227.1 169.703 226.861 168.976C225.869 165.617 226.64 162.16 226.409 158.756C226.241 156.282 225.32 155.121 223.107 154.261C218.68 152.488 214.252 150.618 209.985 148.579C207.975 147.631 206.744 147.418 206.089 150.015C205.823 151.061 205.327 152.577 203.76 152.418C202.193 152.258 202.228 150.645 201.989 149.537C201.6 147.941 200.891 146.159 201.245 144.688C202.6 139.121 199.475 135.619 196.11 132.073C190.912 126.489 185.357 121.248 179.481 116.383C178.074 120.86 176.754 125.026 175.178 130.017C173.813 128.02 173.221 125.593 173.514 123.191C173.691 120.053 173.708 116.906 173.93 113.768C174.063 111.916 172.646 110.87 171.619 110.143C162.136 103.503 158.497 94.0359 158.036 82.9287C154.397 89.1339 154.273 107.944 155.911 116.321C159.347 133.935 169.122 147.826 182.474 159.323C197.199 171.981 214.19 179.711 233.333 183.257C246.657 185.744 260.338 185.593 273.603 182.814Z" fill="#C9D1F8"/>
<path d="M273.603 182.814C275.879 182.282 278.128 181.679 280.332 181.041L281.041 184.02C278.441 184.65 275.958 185.688 273.683 187.096C272.248 185.863 270.681 186.209 269.025 186.599C251.458 190.491 234.122 188.319 217.44 182.779C199.209 176.733 183.147 166.698 170.441 151.815C164.456 144.794 159.338 137.197 156.274 128.546C150.962 113.635 150.811 98.4062 154.353 82.982C155.008 80.1099 157.151 77.2378 155.592 74.0111C156.068 73.9899 156.529 73.838 156.924 73.5722C157.319 73.3064 157.633 72.9369 157.833 72.5042C157.779 72.3797 157.752 72.2454 157.754 72.1099C157.755 71.9744 157.784 71.8407 157.84 71.7172C157.896 71.5938 157.977 71.4833 158.078 71.393C158.179 71.3026 158.297 71.2342 158.426 71.1922C159.054 70.9617 159.63 71.2454 159.391 71.9191C158.089 75.5092 159.55 79.4362 158.001 82.982C154.362 89.1872 154.238 107.998 155.876 116.375C159.311 133.988 169.086 147.879 182.439 159.376C197.164 172.035 214.155 179.765 233.298 183.31C246.636 185.784 260.33 185.616 273.603 182.814Z" fill="#E1E5FA"/>
<path d="M250.112 196.235L249.732 196.988C247.899 197.476 246.642 196.465 245.305 195.411C231.138 184.268 214.607 178.683 197.181 176.423C178.136 173.95 159.311 175.997 141.399 183.878C132.961 187.601 125.054 192.219 118.546 198.69C107.327 209.824 100.545 223.467 97.0476 238.891C96.3835 241.807 97.1007 245.389 94.1522 247.614C87.4052 236.32 83.8369 224.309 85.6609 211.003C86.1339 207.893 86.9048 204.835 87.9631 201.873C89.911 196.12 93.7361 193.664 99.819 193.842C100.811 193.842 101.988 194.577 102.9 193.567C103.281 192.547 102.52 191.909 102.015 191.395C97.7205 186.83 99.0044 182.371 101.794 177.602C105.335 171.485 105.247 171.397 111.436 174.668C111.572 174.563 111.686 174.432 111.771 174.283C111.856 174.133 111.911 173.969 111.933 173.798C111.954 173.628 111.941 173.454 111.896 173.289C111.85 173.123 111.772 172.968 111.666 172.833C108.496 169.216 110.471 166.876 113.366 164.367C116.698 161.531 120.302 159.031 124.124 156.903C128.604 154.359 133.129 153.402 137.698 157.24C140.611 159.696 143.984 161.593 147.526 164.004C147.88 160.21 145.888 157.435 144.622 154.652C143.143 151.416 143.798 149.785 146.986 148.836C154.415 146.602 162.001 144.928 169.68 143.828C174.355 143.172 177.463 145.823 180.243 148.987C182.598 151.647 184.714 154.545 187.105 157.187C188.044 158.224 189.106 160.245 190.523 159.589C192.196 158.827 190.7 156.93 190.611 155.511C190.441 154.293 190.174 153.089 189.814 151.912C188.77 147.285 188.982 146.904 193.905 147.135C204.247 147.622 213.491 151.611 222.62 156.167C234.573 162.133 242.17 172.283 249.059 183.062C250.144 184.656 250.827 186.49 251.047 188.406C251.268 190.323 251.02 192.264 250.325 194.063C250.154 194.181 250.011 194.335 249.905 194.514C249.8 194.693 249.735 194.893 249.714 195.1C249.694 195.306 249.719 195.515 249.788 195.711C249.857 195.907 249.968 196.086 250.112 196.235Z" fill="url(#paint3_linear_89_4195)"/>
<path d="M247.81 200.782C240.302 209.318 230.172 209.806 219.99 209.469C215.12 209.31 210.295 208.095 205.451 207.359C202.184 206.854 201.414 205.019 201.998 201.863C202.485 199.204 202.272 196.465 202.379 193.752C202.379 192.928 202.547 191.979 201.564 191.669C200.581 191.359 200.227 192.343 199.714 192.901C197.367 195.499 196.561 198.947 194.87 201.917C193.648 204.062 192.311 204.709 189.947 204.532C185.201 204.159 180.429 203.982 175.665 203.938C173.443 203.938 172.239 203.583 172.779 200.95C172.991 199.887 173.204 198.291 171.716 197.777C170.229 197.263 169.582 198.663 168.847 199.55C167.803 200.817 166.386 202.112 166.076 203.592C164.872 209.203 160.515 210.976 155.964 212.722C148.865 215.497 141.592 217.804 134.192 219.628C134.856 214.983 135.475 210.648 136.219 205.445C134.138 206.663 132.566 208.592 131.792 210.879C130.588 213.777 129.242 216.623 128.082 219.539C127.391 221.312 125.665 221.605 124.425 221.8C113.003 223.67 105.619 230.611 100.386 240.415C99.7836 233.279 107.85 216.25 112.959 209.389C123.69 195.02 138.53 186.758 155.566 182.22C174.319 177.22 193.002 177.61 211.764 182.778C224.841 186.36 237.087 192.477 247.81 200.782Z" fill="url(#paint4_linear_89_4195)"/>
<path d="M247.81 200.783C249.634 202.245 251.352 203.77 253.123 205.339L255.053 202.963C252.979 201.264 251.186 199.248 249.741 196.989C247.908 197.476 246.65 196.466 245.313 195.411C231.146 184.268 214.615 178.683 197.19 176.423C178.144 173.95 159.32 175.997 141.408 183.878C132.97 187.601 125.063 192.219 118.555 198.691C107.336 209.824 100.554 223.467 97.0565 238.891C96.4013 241.763 97.0565 245.282 94.2851 247.507C94.7018 247.735 95.0483 248.073 95.2871 248.484C95.5259 248.895 95.6478 249.363 95.6398 249.839C95.5405 249.93 95.4612 250.041 95.407 250.165C95.3528 250.288 95.3248 250.422 95.3248 250.557C95.3248 250.692 95.3528 250.825 95.407 250.949C95.4612 251.072 95.5405 251.183 95.6398 251.275C96.1091 251.762 96.7554 251.753 96.8263 251.044C97.2159 247.241 100.235 244.343 100.368 240.469C99.7659 233.333 107.832 216.304 112.941 209.443C123.673 195.074 138.512 186.812 155.548 182.274C174.302 177.274 192.984 177.664 211.747 182.832C224.825 186.396 237.078 192.495 247.81 200.783Z" fill="#E1E5FA"/>
<path d="M425.357 217.111C425.32 217.213 425.261 217.307 425.186 217.385C425.11 217.464 425.019 217.526 424.919 217.568C424.818 217.609 424.71 217.63 424.601 217.627C424.492 217.625 424.385 217.6 424.286 217.554L424.242 217.457C424.282 217.354 424.343 217.262 424.421 217.184C424.498 217.106 424.591 217.046 424.693 217.006C424.796 216.966 424.905 216.947 425.015 216.952C425.124 216.956 425.232 216.983 425.331 217.031L425.357 217.111Z" fill="#277C38"/>
<path d="M379.191 69.9602C367.919 69.3308 358.02 73.2223 348.608 79.0374C345.438 81.0053 344.269 83.381 344.11 87.0155C343.96 90.3042 344.163 93.8234 342.259 96.9969C338.364 95.1619 339.222 91.1375 337.832 87.9108C336.416 89.3468 335.176 90.4638 334.122 91.6693C327.407 99.2918 321.727 107.769 317.228 116.88C313.315 124.619 313.58 126.551 320.496 131.95C322.213 133.297 323.993 134.609 325.746 135.903C326.446 136.435 327.473 136.71 327.42 137.986C326.369 138.501 325.226 138.8 324.057 138.864C322.889 138.928 321.72 138.756 320.619 138.359C317.734 137.438 315.102 135.857 312.934 133.74C311.376 132.242 310.348 132.49 309.738 134.547C306.886 144.014 304.381 153.552 303.938 163.516C303.862 164.193 303.978 164.878 304.274 165.491C304.57 166.105 305.034 166.622 305.611 166.982C307.081 168.002 308.578 168.959 310.039 169.987C312.429 171.671 315.263 172.407 317.804 173.755C318.689 174.224 320 174.641 319.867 176.024C319.734 177.407 318.61 177.699 317.627 178.213C315.795 179.176 313.703 179.524 311.659 179.206C309.061 178.779 306.564 177.878 304.292 176.547C304.101 178.048 304.14 179.57 304.407 181.059C305.312 188.418 307.433 195.575 310.685 202.236C317.281 215.941 327.579 225.639 341.87 230.984C342.711 231.294 343.641 231.994 344.42 230.833C354.09 222.82 361.603 212.51 366.272 200.845C365.183 200.712 364.502 200.614 363.837 200.552C362.067 200.384 360.579 199.612 360.074 197.893C359.499 195.872 360.765 194.4 362.27 193.389C363.799 192.47 365.398 191.673 367.052 191.005C368.601 190.287 369.832 189.418 370.195 187.53C371.938 178.07 372.657 168.45 372.338 158.836C372.285 156.371 371.213 156.469 369.495 157.125C367.711 157.849 365.833 158.318 363.917 158.517C362.748 158.623 361.571 158.517 361.031 157.462C360.553 156.522 361.27 155.636 361.916 154.864C363.917 152.373 366.131 150.095 369.159 148.934C371.514 148.048 372.072 146.505 371.921 144.129C371.479 137.153 370.956 130.177 371.178 123.174C371.231 121.587 370.948 120.568 369.017 120.656C368.182 120.71 367.354 120.475 366.67 119.991C365.987 119.507 365.49 118.803 365.263 117.997C364.528 116.029 365.484 114.531 366.839 113.237C367.49 112.537 368.242 111.939 369.07 111.464C371.045 110.498 371.727 108.946 371.904 106.845C373.143 94.1603 377.27 82.3882 383.29 71.2278C382.29 69.5347 380.599 70.0222 379.191 69.9602Z" fill="url(#paint5_linear_89_4195)"/>
<path d="M289.346 123.253C285.928 124.308 283.299 125.913 280.288 126.17C279.5 126.241 278.57 126.533 278.145 125.531C277.72 124.53 278.42 123.98 279.031 123.422C281.42 121.143 284.151 119.253 287.124 117.819C291.241 115.896 292.675 112.704 293.242 108.52C294.384 100.232 294.65 92.0058 292.472 83.23C290.701 85.978 289.222 88.2916 286.752 89.6124C285.866 90.1 284.866 91.2258 283.83 90.2418C283.077 89.5238 283.679 88.4068 284.033 87.5824C285.494 84.0366 287.008 80.4908 288.461 76.945C289.116 75.3849 289.443 73.8425 288.602 72.1937C283.522 62.4033 276.061 54.0505 266.909 47.9049C265.386 46.8501 264.518 47.1071 264.076 49.0573C263.536 51.4153 262.801 53.7644 259.914 55.3866C259.666 52.0092 259.215 49.0396 259.294 46.0789C259.348 44.1198 258.869 43.0472 257.063 42.2671C247.801 38.2604 238.327 35.2819 228.047 35.9201C226.463 35.3439 224.957 35.3439 225.834 37.5601C227.277 41.2122 226.719 44.8467 226.365 48.5077C225.666 55.2093 223.939 61.7158 222.354 68.2401C221.832 70.3764 222.089 71.6441 224.603 71.9189C226.941 72.1671 229.03 73.2751 231.173 74.2148C231.926 74.5428 232.696 75.048 232.714 75.9877C232.731 76.9273 231.766 77.1312 231.04 77.4858C228.251 78.842 225.205 79.0371 222.186 79.303C220.194 79.4803 219.441 80.3136 219.034 82.246C217.576 89.3559 216.722 96.5768 216.484 103.831C216.351 107.297 217.042 107.758 220.282 106.712C220.672 106.588 221.017 106.322 221.407 106.207C225.94 104.913 230.447 103.468 235.29 103.911C235.343 105.684 234.13 105.888 233.236 106.428C229.013 109.026 224.293 110.559 219.857 112.713C218.184 113.529 217.67 114.371 218.193 116.259C219.645 121.555 222.045 126.544 225.276 130.983C225.8 131.862 226.592 132.549 227.536 132.943C228.48 133.338 229.525 133.418 230.518 133.173C235.489 132.11 240.398 130.778 245.225 129.184C247.04 128.652 248.767 127.951 251.219 128.403C249.723 132.197 246.402 133.368 243.489 134.83C240.382 136.39 236.937 137.1 233.334 137.977C233.647 138.402 233.997 138.799 234.378 139.165C235.032 139.665 235.719 140.121 236.433 140.53C248.891 147.462 262.579 149.093 276.481 149.776C276.755 149.793 277.028 149.73 277.267 149.595C277.506 149.459 277.7 149.257 277.827 149.013C282.694 140.925 286.562 132.275 289.346 123.253Z" fill="url(#paint6_linear_89_4195)"/>
<path d="M332.219 108.068H157.027V323.423H332.219V108.068Z" fill="#A0CDFF"/>
<path d="M232.227 155.316C232.229 159.633 231.2 163.888 229.225 167.726C223.558 165.413 215.457 163.968 206.461 163.968C196.216 163.968 187.123 165.847 181.474 168.746C179.421 165.128 178.226 161.088 177.98 156.935C177.733 152.782 178.442 148.628 180.052 144.793C181.662 140.958 184.13 137.544 187.266 134.814C190.401 132.084 194.121 130.112 198.138 129.048C202.155 127.984 206.363 127.858 210.436 128.679C214.51 129.5 218.341 131.246 221.634 133.783C224.927 136.32 227.595 139.58 229.431 143.311C231.268 147.043 232.224 151.147 232.227 155.307V155.316Z" fill="#FEFEFE"/>
<path d="M229.225 167.735C226.988 172.092 223.616 175.762 219.467 178.359C215.318 180.955 210.545 182.381 205.653 182.485C200.761 182.59 195.931 181.369 191.675 178.952C187.419 176.535 183.894 173.012 181.474 168.755C187.123 165.856 196.216 163.977 206.461 163.977C215.457 163.977 223.558 165.421 229.225 167.735Z" fill="#B1B9DE"/>
<path d="M197.589 156.141C194.224 157.098 191.452 155.68 190.195 152.356C188.672 148.358 189.451 144.537 192.559 143.686C194.985 143.03 195.216 141.576 195.844 139.768C197.447 134.866 201.369 132.783 206.098 132.242C210.826 131.701 214.208 134.015 216.723 137.898C217.236 138.678 218.122 144.378 217.502 146.886C216.616 145.175 215.837 145.521 214.846 146.275C211.879 148.535 208.329 149.466 204.805 150.414C203.282 150.822 202.149 150.485 201.83 148.641C201.679 147.817 201.183 146.993 200.201 147.205C199.218 147.418 199.395 148.446 199.448 149.226C199.526 149.83 199.709 150.415 199.988 150.955C201.006 153.348 200.599 154.501 198.27 155.689C198.04 155.848 197.819 156.008 197.589 156.141Z" fill="#FE8B97"/>
<path d="M216.891 144.094C213.394 147.205 209.4 148.677 205.221 149.758L204.823 149.865C204.783 149.133 204.542 148.427 204.127 147.825C203.712 147.222 203.138 146.746 202.47 146.449C201.801 146.152 201.064 146.046 200.339 146.142C199.614 146.239 198.929 146.534 198.362 146.996C197.794 147.457 197.364 148.067 197.121 148.757C196.878 149.448 196.83 150.192 196.982 150.908C197.135 151.624 197.483 152.284 197.986 152.815C198.49 153.346 199.131 153.727 199.838 153.916C199.498 154.403 199.096 154.844 198.642 155.228C198.306 155.529 197.819 155.671 197.615 156.114C198.651 155.813 199.227 155.848 199.386 157.284C199.643 160.165 199.811 162.957 198.014 165.466C199.65 169.291 202.48 172.482 206.08 174.561C208.86 176.228 210.888 174.836 211.012 171.556C211.012 170.474 210.268 167.629 209.887 165.351C209.639 163.808 209.568 162.55 210.082 162.31C210.129 162.278 210.185 162.263 210.241 162.266C211.888 162.133 212.898 161.034 213.641 159.748C215.855 156.087 216.528 147.338 216.661 146.842C216.825 146.142 216.937 145.431 216.997 144.714C216.953 144.537 216.891 144.333 216.891 144.094Z" fill="#F7A683"/>
<path d="M209.887 165.386L208.594 164.739C205.256 163.206 203.158 161.194 202.264 158.534C203.478 159.931 205.066 160.949 206.841 161.468C208.231 161.841 209.312 161.743 210.082 162.355C209.568 162.585 209.639 163.844 209.887 165.386Z" fill="#B67A62"/>
<path d="M232.227 273.365C232.227 280.574 229.367 287.488 224.276 292.586C219.185 297.685 212.28 300.55 205.079 300.553C204.468 300.553 203.857 300.553 203.255 300.49C202.759 300.49 202.272 300.411 201.785 300.34C200.591 300.201 199.408 299.982 198.244 299.684C193.329 298.407 188.869 295.777 185.372 292.091C181.875 288.405 179.48 283.812 178.46 278.832C177.439 273.852 177.833 268.686 179.598 263.919C181.363 259.152 184.427 254.976 188.443 251.865C192.459 248.754 197.265 246.833 202.317 246.319C207.369 245.805 212.463 246.72 217.022 248.959C221.581 251.198 225.421 254.672 228.107 258.986C230.793 263.3 232.217 268.281 232.218 273.365H232.227Z" fill="#FEFEFE"/>
<path d="M229.615 285.004C227.413 289.654 223.939 293.583 219.596 296.335C215.253 299.088 210.219 300.55 205.079 300.552C204.468 300.552 203.857 300.552 203.255 300.49C202.759 300.49 202.272 300.41 201.786 300.339C200.592 300.201 199.408 299.982 198.244 299.683C194.599 298.733 191.191 297.035 188.235 294.698C185.28 292.36 182.842 289.433 181.075 286.103C185.009 284.66 189.088 283.653 193.241 283.098C194.87 282.859 196.579 282.655 198.332 282.504H198.536C201.192 282.274 204.052 282.149 206.956 282.149H207.328C212.569 282.149 217.8 282.594 222.965 283.479C225.208 283.865 227.428 284.374 229.615 285.004Z" fill="#6B758B"/>
<path d="M198.509 289.339C197.898 288.452 198.323 287.335 198.102 285.465C197.907 283.834 198.509 282.256 198.58 280.625C198.671 280.155 198.638 279.669 198.482 279.216C198.327 278.764 198.055 278.36 197.695 278.045C196.393 276.903 195.428 275.425 194.906 273.773C194.482 272.553 194.141 271.306 193.887 270.041C193.838 269.818 193.859 269.585 193.949 269.376C194.59 267.656 195.366 265.991 196.269 264.394C197.309 262.447 198.77 260.757 200.546 259.447C200.898 259.21 201.275 259.011 201.67 258.854C201.918 258.719 202.206 258.677 202.482 258.736C202.757 258.794 203.004 258.949 203.176 259.173C204.946 261.132 206.797 262.976 208.488 264.97C209.494 266.251 210.129 267.784 210.321 269.402C210.711 271.734 209.763 273.684 208.701 275.607C208.586 275.811 208.55 276.086 208.382 276.228C207.945 276.625 207.616 277.128 207.427 277.688C207.238 278.248 207.195 278.847 207.302 279.428C207.373 280.314 207.302 281.201 207.302 282.141C207.302 283.913 207.443 283.639 208.966 284.011C209.757 284.151 210.531 284.37 211.277 284.667C211.212 284.675 211.15 284.703 211.1 284.747C211.025 284.849 210.991 284.975 211.003 285.101C210.247 287.236 208.687 288.989 206.655 289.986C203.981 291.315 199.864 291.342 198.509 289.339Z" fill="#954C39"/>
<path d="M199.342 279.233C200.449 279.624 201.629 279.763 202.796 279.639C203.964 279.515 205.089 279.13 206.089 278.515C205.814 279.056 205.417 279.526 204.93 279.887C204.443 280.249 203.879 280.492 203.282 280.598C202.563 280.76 201.814 280.718 201.118 280.477C200.422 280.236 199.806 279.805 199.342 279.233Z" fill="#6A2F29"/>
<path d="M222.983 293.797C219.606 296.774 215.54 298.858 211.153 299.86C210.848 299.57 210.588 299.236 210.383 298.868C209.796 297.758 209.393 296.561 209.188 295.322C208.497 291.82 208.373 287.229 207.151 282.849C207.098 282.592 207.045 282.344 207.018 282.096C206.791 280.707 206.916 279.284 207.381 277.956C207.514 277.593 207.656 277.229 207.815 276.884C208.701 274.907 209.976 273.134 210.259 270.572C210.135 265.573 206.018 262.594 202.582 258.977C199.475 259.022 197.217 263.232 195.703 265.856C194.96 266.837 194.468 267.984 194.268 269.198C194.123 270.118 194.156 271.057 194.366 271.964C194.392 272.102 194.427 272.238 194.472 272.372C194.49 272.456 194.514 272.539 194.543 272.62C195.351 274.963 196.907 276.975 198.97 278.346C198.729 279.707 198.602 281.086 198.589 282.468C198.552 284.56 198.928 286.639 199.696 288.585C200.254 289.95 201.467 292.343 200.776 295.082C200.247 296.384 199.638 297.651 198.952 298.877C198.753 299.155 198.534 299.419 198.297 299.665C194.827 298.764 191.571 297.182 188.717 295.012C188.83 294.27 189.048 293.547 189.363 292.866C189.925 286.929 189.351 280.939 187.672 275.217C186.848 272.558 185.201 268.081 187.291 265.227C188.176 264.021 188.77 264.34 189.947 263.082C192.71 260.059 190.895 256.54 192.471 254.102C194.835 250.459 204.513 249.67 209.772 254.102C214.04 257.648 212.552 262.505 217.511 273.364C218.952 276.527 220.648 279.565 222.584 282.451C222.744 282.796 222.885 283.133 223.027 283.461C223.705 285.101 224.05 286.859 224.042 288.634C224.035 290.408 223.675 292.163 222.983 293.797Z" fill="#4C5463"/>
<path d="M232.227 214.567C232.228 219.944 230.637 225.201 227.654 229.673C224.671 234.146 220.431 237.632 215.469 239.691C210.507 241.75 205.046 242.289 199.778 241.241C194.51 240.193 189.67 237.605 185.871 233.803C182.072 230.001 179.485 225.157 178.437 219.883C177.388 214.609 177.925 209.142 179.981 204.173C182.036 199.205 185.516 194.958 189.982 191.97C194.448 188.983 199.699 187.388 205.07 187.388C208.64 187.373 212.178 188.065 215.479 189.426C218.78 190.786 221.779 192.787 224.304 195.314C226.828 197.841 228.828 200.843 230.188 204.147C231.548 207.451 232.241 210.993 232.227 214.567Z" fill="#FEFEFE"/>
<path d="M229.402 226.64C227.155 231.176 223.686 234.993 219.388 237.662C215.09 240.331 210.133 241.745 205.075 241.745C200.017 241.745 195.06 240.331 190.762 237.662C186.464 234.993 182.995 231.176 180.748 226.64C188.733 224.875 196.894 224.031 205.07 224.122C213.25 224.03 221.414 224.875 229.402 226.64Z" fill="#FE8B97"/>
<path d="M212.154 224.335C213.039 227.633 210.383 230.212 206.709 229.893C203.813 229.636 198.89 225.939 198.235 225.328C198.148 225.243 198.083 225.139 198.044 225.024C198.005 224.909 197.994 224.787 198.011 224.667C198.028 224.547 198.074 224.432 198.143 224.333C198.213 224.234 198.305 224.153 198.412 224.096C200.183 222.934 200.183 221.321 199.74 219.504C199.631 218.64 199.61 217.766 199.678 216.898C198.509 214.894 199.607 212.66 199.032 210.577C198.872 209.966 199.714 209.389 200.28 209.611C201.759 210.196 201.98 209.106 202.432 208.246C202.64 207.897 202.789 207.517 202.875 207.12C203.3 204.328 205.38 203.574 207.709 203.486C209.48 203.432 211.454 202.759 213.119 204.106C214.491 208.813 213.836 213.449 212.623 218.059C212.473 218.65 212.114 219.166 211.614 219.513C209.427 221.037 209.657 223.005 212.154 224.335Z" fill="#B47156"/>
<path d="M213.119 204.107C210.516 204.107 207.913 203.584 205.336 204.621C204.892 204.748 204.491 204.996 204.178 205.337C203.866 205.678 203.654 206.099 203.565 206.553C203.327 207.601 202.955 208.614 202.458 209.567C202.131 210.17 201.777 211.216 200.626 210.135C199.908 209.452 199.173 210.241 199.501 210.941C200.387 212.953 199.262 214.93 199.669 216.898C196.854 215.595 196.632 212.714 195.667 210.294C195.472 209.798 195.446 209.239 195.251 208.743C192.931 202.724 196.455 197.059 203.016 196.208C204.915 195.966 206.843 196.105 208.687 196.618C210.531 197.131 212.255 198.008 213.757 199.196C215.944 200.818 215.616 202.972 213.119 204.107Z" fill="#5E759B"/>
<path d="M210.693 223.316L209.4 222.669C206.062 221.135 203.964 219.123 203.069 216.464C204.283 217.86 205.872 218.879 207.647 219.398C209.037 219.77 210.117 219.673 210.888 220.284C210.401 220.524 210.472 221.783 210.693 223.316Z" fill="#815546"/>
<path d="M200.236 213.423C201.718 213.423 202.919 212.22 202.919 210.737C202.919 209.253 201.718 208.051 200.236 208.051C198.754 208.051 197.553 209.253 197.553 210.737C197.553 212.22 198.754 213.423 200.236 213.423Z" fill="#B47156"/>
<path d="M251.715 298.841C254.168 295.526 256.266 292.166 259.232 289.534C260.065 288.798 260.932 288.098 261.818 287.424C262.34 287.016 262.942 286.183 263.589 286.927C264.474 287.885 263.226 288.479 262.774 288.833C260.206 290.94 257.928 293.378 256.001 296.085C254.743 297.778 253.725 299.63 252.547 301.403C251.724 302.635 250.715 302.91 250.201 301.244C249.458 299.038 248.334 296.98 246.881 295.163C246.509 294.675 246.093 294.046 246.686 293.558C247.279 293.071 247.899 293.558 248.457 294.063C249.918 295.313 250.121 297.317 251.715 298.841Z" fill="#FDFCFC"/>
<path d="M255.23 151.779C258.772 151.779 262.314 151.841 265.855 151.779C267.626 151.735 268.432 152.293 268.388 154.199C268.222 161.61 268.122 169.017 268.087 176.422C268.087 177.867 267.609 178.417 266.156 178.399C258.754 178.34 251.349 178.313 243.941 178.319C242.25 178.319 241.887 177.433 241.896 176.041C241.931 168.731 241.952 161.421 241.958 154.11C241.958 152.337 242.701 151.628 244.552 151.69C248.094 151.814 251.635 151.69 255.177 151.69L255.23 151.779ZM255.115 154.438V154.385C252.273 154.385 249.422 154.447 246.58 154.385C244.915 154.332 244.207 154.819 244.233 156.619C244.313 162.212 244.286 167.815 244.233 173.408C244.233 174.933 244.685 175.5 246.261 175.66C252.149 176.227 258.046 175.775 263.969 175.926C265.422 175.926 266.148 175.261 266.13 173.674C266.13 167.974 266.13 162.274 266.13 156.583C266.13 154.97 265.528 154.412 263.987 154.447C261.012 154.509 258.064 154.474 255.115 154.474V154.438Z" fill="#7B8AD2"/>
<path d="M308.684 124.583H243.72C242.262 124.583 241.081 125.766 241.081 127.225C241.081 128.684 242.262 129.866 243.72 129.866H308.684C310.141 129.866 311.322 128.684 311.322 127.225C311.322 125.766 310.141 124.583 308.684 124.583Z" fill="#7B8AD2"/>
<path d="M308.684 134.147H243.72C242.262 134.147 241.081 135.33 241.081 136.789C241.081 138.248 242.262 139.431 243.72 139.431H308.684C310.141 139.431 311.322 138.248 311.322 136.789C311.322 135.33 310.141 134.147 308.684 134.147Z" fill="#7B8AD2"/>
<path d="M276.72 143.766H243.658C242.235 143.766 241.081 144.921 241.081 146.345V146.354C241.081 147.779 242.235 148.934 243.658 148.934H276.72C278.143 148.934 279.296 147.779 279.296 146.354V146.345C279.296 144.921 278.143 143.766 276.72 143.766Z" fill="#7B8AD2"/>
<path d="M255.23 216.046C258.772 216.046 262.314 216.109 265.855 216.046C267.626 216.046 268.432 216.552 268.388 218.466C268.222 225.877 268.122 233.285 268.087 240.69C268.087 242.126 267.609 242.684 266.156 242.667C258.754 242.607 251.349 242.581 243.941 242.587C242.25 242.587 241.887 241.7 241.896 240.309C241.931 232.998 241.952 225.688 241.958 218.378C241.958 216.605 242.701 215.896 244.552 215.958C248.094 216.082 251.635 215.958 255.177 215.958L255.23 216.046ZM255.115 218.706V218.661C252.273 218.661 249.422 218.724 246.58 218.661C244.915 218.608 244.207 219.096 244.233 220.895C244.313 226.489 244.286 232.082 244.233 237.685C244.233 239.209 244.685 239.777 246.261 239.936C252.149 240.504 258.046 240.052 263.969 240.202C265.422 240.202 266.148 239.537 266.13 237.951C266.13 232.251 266.13 226.551 266.13 220.851C266.13 219.247 265.528 218.688 263.987 218.724C261.012 218.777 258.064 218.732 255.115 218.732V218.706Z" fill="#7B8AD2"/>
<path d="M308.684 188.851H243.72C242.262 188.851 241.081 190.033 241.081 191.492C241.081 192.951 242.262 194.134 243.72 194.134H308.684C310.141 194.134 311.322 192.951 311.322 191.492C311.322 190.033 310.141 188.851 308.684 188.851Z" fill="#7B8AD2"/>
<path d="M308.684 198.406H243.72C242.262 198.406 241.081 199.589 241.081 201.048C241.081 202.507 242.262 203.689 243.72 203.689H308.684C310.141 203.689 311.322 202.507 311.322 201.048C311.322 199.589 310.141 198.406 308.684 198.406Z" fill="#7B8AD2"/>
<path d="M276.72 208.033H243.658C242.235 208.033 241.081 209.188 241.081 210.613V210.622C241.081 212.046 242.235 213.201 243.658 213.201H276.72C278.143 213.201 279.296 212.046 279.296 210.622V210.613C279.296 209.188 278.143 208.033 276.72 208.033Z" fill="#7B8AD2"/>
<path d="M255.23 280.314C258.772 280.314 262.314 280.376 265.855 280.314C267.626 280.314 268.432 280.819 268.388 282.734C268.222 290.139 268.122 297.547 268.087 304.957C268.087 306.394 267.609 306.952 266.156 306.934C258.754 306.872 251.343 306.828 243.941 306.854C242.25 306.854 241.887 305.968 241.896 304.576C241.931 297.266 241.952 289.953 241.958 282.637C241.958 280.864 242.701 280.155 244.552 280.226C248.094 280.35 251.635 280.226 255.177 280.226L255.23 280.314ZM255.115 282.973V282.929C252.273 282.929 249.422 282.991 246.58 282.929C244.915 282.876 244.207 283.364 244.233 285.163C244.313 290.757 244.286 296.35 244.233 301.952C244.233 303.477 244.685 304.044 246.261 304.195C252.149 304.771 258.046 304.319 263.969 304.47C265.422 304.47 266.148 303.805 266.13 302.218C266.13 296.518 266.13 290.819 266.13 285.119C266.13 283.514 265.528 282.956 263.987 282.982C261.012 283.044 258.064 283 255.115 283V282.973Z" fill="#7B8AD2"/>
<path d="M308.684 253.109H243.72C242.262 253.109 241.081 254.292 241.081 255.751C241.081 257.21 242.262 258.393 243.72 258.393H308.684C310.141 258.393 311.322 257.21 311.322 255.751C311.322 254.292 310.141 253.109 308.684 253.109Z" fill="#7B8AD2"/>
<path d="M308.684 262.674H243.72C242.262 262.674 241.081 263.857 241.081 265.315C241.081 266.774 242.262 267.957 243.72 267.957H308.684C310.141 267.957 311.322 266.774 311.322 265.315C311.322 263.857 310.141 262.674 308.684 262.674Z" fill="#7B8AD2"/>
<path d="M276.72 272.301H243.658C242.235 272.301 241.081 273.456 241.081 274.88V274.889C241.081 276.314 242.235 277.469 243.658 277.469H276.72C278.143 277.469 279.296 276.314 279.296 274.889V274.88C279.296 273.456 278.143 272.301 276.72 272.301Z" fill="#7B8AD2"/>
<path opacity="0.8" d="M289.416 156.378L251.483 73.6582L206.082 94.5255L244.016 177.245L289.416 156.378Z" fill="#FDFCFC"/>
<path d="M275.791 148.253L248.752 89.291L219.711 102.639L246.75 161.601L275.791 148.253Z" fill="#0054B2"/>
<path d="M275.791 148.253L248.752 89.291L219.711 102.639L246.75 161.601L275.791 148.253Z" fill="black" fill-opacity="0.2"/>
<path d="M213.163 104.656C220.787 108.033 228.393 111.464 236.043 114.779C240.47 116.676 244.897 115.063 246.668 111.153C248.501 107.022 246.668 102.741 242.197 100.622C233.697 96.6422 229.021 95.8887 220.061 90.3395C219.175 89.7899 218.476 89.3201 218.033 89.0187L238.832 79.5248C233.98 73.5501 228.889 67.7439 224.337 61.5476C219.335 54.7308 212.163 53.9951 204.725 53.2859C195.242 52.3995 185.795 51.2471 176.338 50.1301C174.508 49.9803 172.732 49.436 171.132 48.5345C169.033 47.6481 167.989 48.8093 167.121 50.529C164.562 55.6439 163.446 61.2817 161.25 66.4851C159.807 69.9423 158.727 73.5767 157.487 77.1225C156.859 78.8954 155.964 80.6683 156.513 82.7072C162.534 84.0546 166.829 88.2564 171.734 91.5717C178.038 95.8532 185.334 98.0871 192.922 99.1065C196.532 99.4974 200.105 100.17 203.609 101.119C204.495 101.385 204.814 101.686 204.61 102.546C207.479 103.193 210.055 104.993 213.163 104.656Z" fill="#ECC6AC"/>
<path d="M1.05307 39.6208C4.78931 33.2617 8.34614 26.8232 11.9663 20.4112C15.4176 14.1579 18.9322 7.93104 22.2779 1.64246C23.1117 0.0725258 24.0299 -0.121512 25.8875 0.381221C39.3549 4.36781 52.8539 8.31911 66.3424 12.2087C97.9 21.399 129.465 30.5746 161.036 39.7355C163.97 40.6175 165.258 41.6053 163.928 44.1454C164.22 44.7048 164.243 45.3365 163.991 45.9094C161.743 51.2014 159.622 56.6079 157.258 61.8999C157.06 62.4943 156.619 63.0122 156.012 63.364C156.029 63.5165 156.029 63.67 156.012 63.8226C154.851 69.1145 151.907 73.8596 150.049 78.9222C149.344 80.9116 148.023 82.7099 146.218 84.1348C134.344 80.6068 122.481 77.0789 110.597 73.6126C90.6984 67.7621 70.8139 61.9469 50.9436 56.1669C34.8165 51.463 18.6929 46.7591 2.57289 42.0551C1.03196 41.623 0.0398458 41.2878 1.05307 39.6208Z" fill="#FF3737"/>
<path d="M163.597 44.3146C161.194 50.8152 158.798 57.3159 156.407 63.8165C153.928 70.7397 151.891 77.8135 148.757 84.4885C150.528 82.9549 152.299 82.1571 154.477 83.7793C155.513 84.5417 156.088 83.5666 156.513 82.7067C159.657 73.6915 162.773 64.6586 165.961 55.6523C166.66 53.6578 167.732 51.7785 168.396 49.7751C168.927 48.2682 168.83 45.8038 167.032 45.1744C165.899 44.8021 164.854 44.1639 163.597 44.3146Z" fill="#EFEFEF"/>
<path d="M213.163 104.656C211.153 103.911 209.099 103.238 207.142 102.378C206.735 102.212 206.295 102.141 205.857 102.17C205.418 102.2 204.992 102.328 204.61 102.546C202.441 107.244 203.813 110.108 208.426 112.111C210.967 113.219 213.27 114.939 215.97 115.825C215.651 112.909 214.27 110.312 213.562 107.51C213.349 106.58 212.552 105.711 213.163 104.656Z" fill="#6D422A"/>
<path d="M234.768 105.542C232.537 110.311 232.669 110.976 236.158 112.634C240.364 114.61 243.02 113.866 244.711 110.231C246.234 106.969 244.88 103.902 241.17 102.165C237.734 100.534 236.884 100.986 234.768 105.542Z" fill="#FFEAE1"/>
<path d="M307.125 196.59V195.703C308.622 194.533 310.171 194.967 311.809 195.411C329.182 200.1 346.598 198.717 363.51 193.948C381.998 188.727 398.502 179.437 411.863 165.147C418.168 158.401 423.622 151.044 427.066 142.534C433.008 127.881 433.893 112.669 431.06 97.1032C430.519 94.1691 428.456 91.1552 430.298 87.9551C440.923 95.6849 448.892 105.321 452.478 118.272C453.258 121.321 453.747 124.438 453.939 127.579C454.408 133.634 451.858 137.392 446.192 139.626C445.306 139.981 443.907 139.795 443.464 141.089C443.518 142.179 444.465 142.463 445.12 142.747C450.858 145.255 451.425 149.838 450.734 155.343C449.848 162.381 449.999 162.435 443.022 161.841C442.936 161.99 442.881 162.154 442.86 162.325C442.839 162.496 442.853 162.669 442.9 162.834C442.947 162.999 443.027 163.153 443.134 163.287C443.242 163.421 443.375 163.532 443.526 163.614C447.856 165.706 446.962 168.631 445.297 172.07C443.352 175.993 441.024 179.714 438.347 183.178C435.221 187.273 431.431 189.941 425.729 188.204C422.081 187.096 418.238 186.67 414.033 185.855C415.201 189.48 418.123 191.244 420.381 193.301C423.038 195.703 423.038 197.458 420.487 199.586C414.533 204.562 408.214 209.083 401.583 213.113C397.537 215.56 393.615 214.345 389.843 212.528C386.629 210.994 383.556 209.177 380.315 207.688C379.04 207.103 377.269 205.667 376.234 206.801C374.994 208.167 377.119 209.337 377.748 210.587C378.382 211.642 379.102 212.644 379.899 213.583C382.671 217.43 382.626 217.864 378.004 219.584C368.309 223.21 358.242 223.13 348.059 222.58C334.733 221.8 323.754 215.489 313.191 208.246C311.568 207.203 310.224 205.78 309.275 204.099C308.326 202.418 307.801 200.531 307.745 198.602C307.844 198.431 307.906 198.241 307.929 198.044C307.951 197.848 307.932 197.649 307.874 197.46C307.816 197.271 307.719 197.097 307.59 196.947C307.462 196.797 307.303 196.675 307.125 196.59Z" fill="url(#paint7_linear_89_4195)"/>
<path d="M307.444 191.501C310.986 180.695 320.124 176.263 329.624 172.566C334.158 170.794 339.081 170.014 343.791 168.79C346.988 167.966 348.413 169.349 349.104 172.478C349.688 175.137 350.972 177.557 351.946 180.084C352.238 180.855 352.468 181.759 353.513 181.688C354.558 181.617 354.478 180.536 354.726 179.818C355.869 176.511 355.258 173.027 355.612 169.632C355.886 167.168 356.86 166.087 359.109 165.289C363.616 163.764 368.079 162.053 372.47 160.209C374.525 159.323 375.764 159.199 376.304 161.823C376.526 162.886 376.951 164.411 378.518 164.323C380.085 164.234 380.121 162.638 380.448 161.53C380.917 159.952 381.705 158.215 381.413 156.726C380.315 151.097 383.627 147.746 387.124 144.315C392.591 138.982 398.4 134.014 404.514 129.441C405.727 133.97 406.852 138.199 408.207 143.252C409.658 141.316 410.356 138.919 410.172 136.506C410.172 133.359 410.261 130.221 410.172 127.074C410.128 125.212 411.589 124.237 412.643 123.528C422.382 117.323 426.482 108.024 427.456 96.9346C430.803 103.264 430.068 122.083 428.058 130.38C423.834 147.826 413.431 161.255 399.547 172.132C384.256 184.108 366.928 191.093 347.652 193.735C334.232 195.627 320.572 194.868 307.444 191.501Z" fill="url(#paint8_linear_89_4195)"/>
<path d="M431.104 97.1478C430.573 94.258 428.572 91.2883 430.272 88.1414C429.799 88.0914 429.348 87.9154 428.967 87.6316C428.585 87.3478 428.287 86.9667 428.102 86.5281C428.161 86.4069 428.194 86.2746 428.199 86.1398C428.204 86.005 428.181 85.8706 428.131 85.7454C428.081 85.6201 428.005 85.5067 427.909 85.4125C427.812 85.3183 427.697 85.2454 427.571 85.1984C426.951 84.9325 426.367 85.1984 426.579 85.8721C427.713 89.5243 426.075 93.3804 427.465 96.9971C430.812 103.326 430.077 122.146 428.067 130.443C423.843 147.888 413.439 161.318 399.556 172.195C384.264 184.171 366.937 191.156 347.661 193.797C334.234 195.67 320.571 194.89 307.444 191.502C304.15 190.568 300.925 189.486 297.766 188.257C297.837 189.401 297.89 190.544 297.935 191.688C301.158 192.689 304.372 193.709 307.17 195.748C308.666 194.577 310.216 195.012 311.854 195.455C329.226 200.144 346.642 198.762 363.554 193.992C382.042 188.771 398.546 179.481 411.908 165.192C418.212 158.446 423.666 151.088 427.119 142.578C433.052 127.925 433.937 112.714 431.104 97.1478Z" fill="#E1E5FA"/>
<path d="M447.989 225.975C452.567 216.445 454.382 206.154 456.339 195.897C456.693 194.036 455.675 193.841 454.329 193.681C446.555 192.795 438.816 191.997 430.962 192.91C405.665 195.835 389.559 219.14 392.065 243.012C392.242 244.705 392.95 245.246 394.394 245.813C397.118 246.759 399.935 247.413 402.796 247.764C413.085 249.537 423.002 248.366 431.033 244.218C438.466 240.081 444.402 233.695 447.989 225.975Z" fill="url(#paint9_linear_89_4195)"/>
<path d="M428.899 309.301C432.273 305.268 431.989 301.687 427.934 296.962C424.826 293.345 424.897 293.008 429.368 291.271C430.635 290.775 431.954 290.384 433.264 290.021C437.659 288.93 441.985 287.577 446.218 285.97C449.131 284.756 451.858 283.266 453.47 280.35C453.815 279.96 454.169 279.579 454.524 279.189C456.534 276.529 455.63 274.118 454.143 271.618C452.071 268.143 452.372 267.186 455.914 265.192C457.109 264.527 458.419 264.083 459.633 263.419C461.926 262.231 464.299 261.194 466.264 259.412C469.328 256.646 470.027 253.987 468.292 250.299C467.745 249.029 467.034 247.837 466.176 246.753C464.662 245.025 464.715 243.385 465.839 241.514C466.931 239.784 467.907 237.984 468.761 236.125C469.718 233.962 470.311 231.604 468.691 229.494C466.92 227.154 464.494 225.948 461.492 226.658C459.092 227.216 456.764 228.058 454.408 228.608C450.61 229.494 448.936 228.758 447.104 225.284C445.935 223.085 444.571 221.738 441.959 222.784L441.304 223.28C441.536 223.738 441.649 224.247 441.632 224.761C441.649 224.247 441.536 223.738 441.304 223.28C441.037 223.253 440.768 223.283 440.513 223.367C440.258 223.451 440.024 223.587 439.825 223.768C436.833 226.019 436.133 229.326 435.602 232.748C435.248 235.008 435.115 237.712 432.414 238.368C429.714 239.024 429.05 236.355 427.837 234.636C425.951 231.976 423.409 230.744 420.133 231.976L419.248 232.863L418.478 232.021C414.325 233.138 411.394 235.877 408.906 239.21C404.479 245.229 402.708 252.17 402.062 259.501C401.389 267.585 400.884 267.957 393.207 265.644C390.826 264.926 388.647 264.633 387.009 266.982L386.487 267.691C383.14 271.609 382.361 276.556 381.404 281.316C379.678 289.959 381.112 298.779 380.386 307.502C380.236 309.372 381.688 310.356 383.335 310.932C383.547 311.092 383.76 311.252 383.981 311.402C385.274 312.696 386.266 314.771 388.656 313.512C393.508 310.959 398.617 311.198 403.815 311.961C408.136 312.59 412.368 313.778 416.742 313.937C421.116 314.097 425.189 313.397 428.253 309.886L428.899 309.301Z" fill="url(#paint10_linear_89_4195)"/>
<path d="M428.27 184.046L408.995 169.863H407.764H304.549V169.961H296.385C294.331 171.512 292.25 173.046 290.187 174.632C285.698 178.178 280.757 181.086 276.507 184.933C277.33 185.405 278.287 185.586 279.225 185.447H426.508C427.447 185.588 428.406 185.423 429.244 184.977C428.941 184.645 428.616 184.335 428.27 184.046Z" fill="#0054B2"/>
<path d="M420.434 202.467H281.846V323.636H420.434V202.467Z" fill="#0054B2"/>
<path d="M372.727 246.957C373.861 247.374 373.542 248.358 373.551 249.173C373.551 259.146 373.498 269.127 373.595 279.109C373.595 281.183 372.975 281.768 370.939 281.768C357.598 281.691 344.255 281.691 330.908 281.768C329.031 281.768 328.34 281.351 328.349 279.312C328.438 265.886 328.438 252.45 328.349 239.006C328.349 237.135 328.73 236.417 330.784 236.435C344.207 236.532 357.631 236.479 371.045 236.497C372.267 236.497 373.772 236.169 373.524 238.27C373.09 240.982 370.868 242.215 368.991 243.757C368.654 244.05 368.105 243.757 367.707 243.473C367.276 243.069 366.762 242.763 366.2 242.578C365.639 242.393 365.044 242.332 364.457 242.401C355.355 242.401 346.244 242.401 337.133 242.401C334.618 242.401 334.361 242.684 334.353 245.317C334.353 254.598 334.353 263.879 334.353 273.152C334.353 275.022 334.946 275.811 336.92 275.811C346.182 275.758 355.447 275.758 364.714 275.811C366.671 275.811 367.3 275.013 367.308 273.152C367.308 266.397 367.14 259.633 367.397 252.879C368.194 250.069 370.266 248.331 372.727 246.957Z" fill="url(#paint11_linear_89_4195)"/>
<path d="M372.727 246.957L367.99 251.85C367.105 254.075 364.962 255.201 363.324 256.717C359.711 260.068 356.001 263.318 352.194 266.468C349.954 268.312 347.882 268.09 346.067 265.901C343.552 262.887 341.401 259.607 339.134 256.407C337.859 254.634 338.08 252.577 339.47 251.558C340.861 250.539 342.667 250.973 344.039 252.595C345.576 254.48 347.004 256.451 348.316 258.499C349.201 259.846 349.954 259.979 351.273 258.836C356.409 254.359 361.659 250.016 366.37 245.06C366.893 244.368 367.631 243.869 368.468 243.642C370.41 242.139 372.11 240.345 373.506 238.323C377.048 238.509 378.562 240.096 376.995 242.206C375.906 243.66 374.932 245.3 373.338 246.346C373.111 246.524 372.906 246.73 372.727 246.957Z" fill="#2B2926"/>
<path d="M368.468 243.633C365.502 247.427 361.677 250.353 358.18 253.597C355.869 255.733 353.389 257.666 351.096 259.802C349.839 260.99 349.157 260.777 348.28 259.403C346.89 257.223 345.332 255.148 343.853 253.038C342.826 251.602 341.454 250.734 339.851 251.868C338.248 253.003 338.505 254.528 339.594 256.008C341.772 258.978 343.871 262.027 346.111 264.952C348.351 267.878 349.431 268.028 352.229 265.608C357.542 261.034 362.748 256.425 368.008 251.824C368.008 259.439 368.008 267.053 368.088 274.668C368.088 276.148 367.539 276.529 366.148 276.521C355.96 276.485 345.766 276.485 335.566 276.521C334.043 276.521 333.529 276.077 333.538 274.517C333.603 264.234 333.603 253.949 333.538 243.66C333.538 242.117 334.016 241.639 335.557 241.648C345.748 241.71 355.922 241.736 366.14 241.648C367.787 241.639 367.99 242.623 368.468 243.633Z" fill="#FDFDFD"/>
<path d="M429.333 184.985H276.215V216.419H429.333V184.985Z" fill="#FF3737"/>
<path opacity="0.9" d="M380.439 157.799C387.487 146.417 394.571 135.043 401.69 123.679C402.575 122.287 402.575 121.286 401.026 120.39C397.581 118.36 394.181 116.277 390.781 114.185C380.386 107.785 369.991 101.376 359.596 94.9581C357.064 93.398 356.595 93.4866 355.169 95.8446C352.3 100.516 349.502 105.214 346.651 109.886C339.674 121.303 332.691 132.715 325.702 144.121C321.983 150.202 318.282 156.292 314.545 162.355C313.775 163.605 313.926 164.261 315.271 165.13C317.042 166.273 335.273 178.151 336.398 178.692C337.503 179.091 338.677 179.266 339.851 179.206C348.221 179.206 356.592 179.206 364.962 179.206C366.137 179.344 367.325 179.112 368.362 178.542C369.017 177.955 369.565 177.259 369.982 176.485C370.292 175.82 378.5 160.928 380.439 157.799Z" fill="#FDFCFC"/>
<path d="M361.907 110.595L362.607 111.029C369.433 115.257 376.233 119.512 383.096 123.688C384.866 124.751 385.238 125.629 384.034 127.553C377.013 138.74 370.133 150.024 363.218 161.238C360.88 165.04 358.489 168.808 356.267 172.673C355.098 174.703 353.841 174.596 352.097 173.515C346.194 169.857 340.255 166.246 334.282 162.683C331.112 160.794 330.846 160.023 332.812 156.867C340.344 144.688 347.885 132.511 355.435 120.337C357.126 117.607 358.728 114.823 360.349 112.057C360.496 111.721 360.71 111.417 360.978 111.166C361.246 110.914 361.562 110.72 361.907 110.595Z" fill="#0054B2"/>
<path d="M361.907 110.595L362.607 111.029C369.433 115.257 376.233 119.512 383.096 123.688C384.866 124.751 385.238 125.629 384.034 127.553C377.013 138.74 370.133 150.024 363.218 161.238C360.88 165.04 358.489 168.808 356.267 172.673C355.098 174.703 353.841 174.596 352.097 173.515C346.194 169.857 340.255 166.246 334.282 162.683C331.112 160.794 330.846 160.023 332.812 156.867C340.344 144.688 347.885 132.511 355.435 120.337C357.126 117.607 358.728 114.823 360.349 112.057C360.496 111.721 360.71 111.417 360.978 111.166C361.246 110.914 361.562 110.72 361.907 110.595Z" fill="black" fill-opacity="0.2"/>
<defs>
<linearGradient id="paint0_linear_89_4195" x1="151.668" y1="202.229" x2="151.668" y2="276.407" gradientUnits="userSpaceOnUse">
<stop stop-color="#003B7E"/>
<stop offset="1" stop-color="#A3CEFF"/>
</linearGradient>
<linearGradient id="paint1_linear_89_4195" x1="138.747" y1="255.673" x2="138.747" y2="319.016" gradientUnits="userSpaceOnUse">
<stop stop-color="#003B7E"/>
<stop offset="1" stop-color="#A3CEFF"/>
</linearGradient>
<linearGradient id="paint2_linear_89_4195" x1="201.823" y1="73.7979" x2="201.823" y2="212.104" gradientUnits="userSpaceOnUse">
<stop stop-color="#003B7E"/>
<stop offset="1" stop-color="#A3CEFF"/>
</linearGradient>
<linearGradient id="paint3_linear_89_4195" x1="168.135" y1="143.728" x2="168.135" y2="247.614" gradientUnits="userSpaceOnUse">
<stop stop-color="#003B7E"/>
<stop offset="1" stop-color="#A3CEFF"/>
</linearGradient>
<linearGradient id="paint4_linear_89_4195" x1="174.063" y1="178.678" x2="174.063" y2="240.415" gradientUnits="userSpaceOnUse">
<stop stop-color="#003B7E"/>
<stop offset="1" stop-color="#A3CEFF"/>
</linearGradient>
<linearGradient id="paint5_linear_89_4195" x1="343.593" y1="69.8936" x2="343.593" y2="231.478" gradientUnits="userSpaceOnUse">
<stop stop-color="#003B7E"/>
<stop offset="1" stop-color="#A3CEFF"/>
</linearGradient>
<linearGradient id="paint6_linear_89_4195" x1="255.279" y1="35.5967" x2="255.279" y2="149.779" gradientUnits="userSpaceOnUse">
<stop stop-color="#003B7E"/>
<stop offset="1" stop-color="#A3CEFF"/>
</linearGradient>
<linearGradient id="paint7_linear_89_4195" x1="380.541" y1="87.9551" x2="380.541" y2="222.861" gradientUnits="userSpaceOnUse">
<stop stop-color="#003B7E"/>
<stop offset="1" stop-color="#A3CEFF"/>
</linearGradient>
<linearGradient id="paint8_linear_89_4195" x1="368.59" y1="96.9346" x2="368.59" y2="194.75" gradientUnits="userSpaceOnUse">
<stop stop-color="#003B7E"/>
<stop offset="1" stop-color="#A3CEFF"/>
</linearGradient>
<linearGradient id="paint9_linear_89_4195" x1="424.101" y1="192.506" x2="424.101" y2="248.564" gradientUnits="userSpaceOnUse">
<stop stop-color="#003B7E"/>
<stop offset="1" stop-color="#A3CEFF"/>
</linearGradient>
<linearGradient id="paint10_linear_89_4195" x1="425.027" y1="222.423" x2="425.027" y2="313.958" gradientUnits="userSpaceOnUse">
<stop stop-color="#003B7E"/>
<stop offset="1" stop-color="#A3CEFF"/>
</linearGradient>
<linearGradient id="paint11_linear_89_4195" x1="328.876" y1="259.259" x2="372.338" y2="261.323" gradientUnits="userSpaceOnUse">
<stop stop-color="#FF1212"/>
<stop offset="1" stop-color="#C1272D"/>
</linearGradient>
</defs>
</svg>
