<svg width="693" height="693" viewBox="0 0 693 693" fill="none" xmlns="http://www.w3.org/2000/svg">
<g opacity="0.2">
<path d="M151.307 522.5C144.547 522.5 141.167 518.555 141.167 510.665C141.167 502.774 143.983 497.139 149.617 493.757C164.263 485.867 180.6 471.214 198.626 449.797C217.779 427.254 235.243 403.02 251.016 377.095C266.789 351.17 276.929 328.626 281.435 309.464C273.549 318.482 266.226 324.681 259.466 328.063C252.706 330.317 241.439 331.444 225.666 331.444C209.893 331.444 196.373 323.554 185.106 307.774C173.84 291.993 168.206 277.34 168.206 263.814C168.206 242.398 177.22 220.981 195.246 199.565C214.399 178.149 233.552 168.568 252.706 170.822C275.239 173.076 291.575 180.403 301.715 192.802C312.982 204.074 320.305 217.036 323.685 231.689C327.065 246.343 328.755 259.869 328.755 272.268C328.755 298.193 319.179 328.063 300.025 361.878C280.872 395.693 258.339 427.254 232.426 456.56C206.513 485.867 182.853 506.72 161.446 519.118C156.94 521.373 153.56 522.5 151.307 522.5ZM374.385 522.5C367.625 522.5 364.245 518.555 364.245 510.665C364.245 502.774 367.061 497.139 372.695 493.757C387.341 485.867 403.678 471.214 421.704 449.797C440.858 427.254 458.321 403.02 474.094 377.095C489.867 351.17 500.007 328.626 504.514 309.464C496.627 318.482 489.304 324.681 482.544 328.063C475.784 330.317 464.517 331.444 448.744 331.444C432.971 331.444 419.451 323.554 408.184 307.774C396.918 291.993 391.285 277.34 391.285 263.814C391.285 242.398 400.298 220.981 418.324 199.565C437.478 178.149 456.631 168.568 475.784 170.822C498.317 173.076 514.654 180.403 524.793 192.802C536.06 204.074 543.383 217.036 546.763 231.689C550.143 246.343 551.833 259.869 551.833 272.268C551.833 298.193 542.257 328.063 523.104 361.878C503.95 395.693 481.417 427.254 455.504 456.56C429.591 485.867 405.931 506.72 384.525 519.118C380.018 521.373 376.638 522.5 374.385 522.5Z" fill="white"/>
</g>
</svg>
